<svg width="182" height="120" viewBox="0 0 182 120" fill="none" xmlns="http://www.w3.org/2000/svg">
<path d="M43.5453 97.1939L41.1092 89.6939H39.8303L37.3942 97.1939H38.3382L39.1299 94.7449H41.8096L42.5709 97.1939H43.5453ZM41.5355 93.8878H39.4039L40.1043 91.7143C40.1652 91.5 40.2261 91.3164 40.287 91.1021C40.3479 90.8878 40.3784 90.7041 40.4088 90.4592H40.5002C40.5306 90.6735 40.5915 90.8878 40.622 91.1021C40.6829 91.3164 40.7134 91.5 40.8047 91.7143L41.5355 93.8878ZM52.1326 97.1939L50.2751 94.0714C50.5491 93.9796 50.8232 93.8266 51.0364 93.6735C51.2495 93.4898 51.4018 93.2755 51.5236 93C51.6454 92.7245 51.7063 92.3878 51.7063 91.9898C51.7063 91.5919 51.6454 91.2857 51.554 91.0102C51.4627 90.7347 51.3104 90.5204 51.1277 90.3368C50.945 90.1531 50.7014 90.0306 50.4578 89.9388C50.1837 89.847 49.9097 89.7857 49.6051 89.7551C49.3006 89.7245 48.9657 89.6939 48.6307 89.6939H46.8645V97.1939H47.7781V94.2857H48.6307H48.8743C48.9657 94.2857 49.0266 94.2857 49.1179 94.2857C49.2093 94.2857 49.2702 94.2857 49.3311 94.2857L51.0973 97.2245H52.1326V97.1939ZM50.7318 91.9898C50.7318 92.2959 50.7014 92.5102 50.61 92.7245C50.5187 92.9082 50.3969 93.0612 50.2142 93.1837C50.0315 93.3061 49.8183 93.3674 49.5442 93.4286C49.2702 93.4592 48.9657 93.4898 48.6002 93.4898H47.7476V90.551H48.5698C48.9352 90.551 49.2397 90.551 49.5138 90.6123C49.7878 90.6429 50.001 90.7041 50.1837 90.8266C50.3664 90.9184 50.5187 91.0715 50.5796 91.2551C50.6709 91.4082 50.7318 91.6837 50.7318 91.9898ZM57.6747 94.7449V94.347C57.6747 93.7347 57.5834 93.2143 57.4311 92.7857C57.2484 92.3572 57.0048 92.051 56.6394 91.8368C56.3044 91.6225 55.8477 91.5 55.2995 91.5C54.7819 91.5 54.3555 91.6225 53.9901 91.8061C53.6552 92.0204 53.3811 92.3266 53.1984 92.7245C53.0157 93.1225 52.9548 93.6123 52.9548 94.1939V94.6225C52.9548 95.0817 52.9852 95.449 53.0766 95.7857C53.1679 96.1225 53.2897 96.398 53.4725 96.6123C53.6552 96.8266 53.9292 97.0102 54.2642 97.1021C54.5992 97.2245 54.995 97.2551 55.4822 97.2551C55.7868 97.2551 56.0608 97.2551 56.3044 97.2245C56.548 97.1939 56.7612 97.1633 56.9744 97.1327C57.1571 97.1021 57.3093 97.0715 57.4616 97.0408V96.3061C57.3398 96.3368 57.1875 96.3368 57.0353 96.3674C56.883 96.398 56.7003 96.398 56.548 96.4286C56.3653 96.4592 56.2131 96.4592 56.0304 96.4592C55.8477 96.4592 55.6954 96.4592 55.5431 96.4592C55.2386 96.4592 54.995 96.4286 54.7819 96.3674C54.5687 96.3061 54.4164 96.2449 54.2946 96.1225C54.1728 96.0306 54.0815 95.9082 54.0206 95.7551C53.9597 95.6021 53.9292 95.449 53.8988 95.2959C53.8683 95.1123 53.8683 94.9286 53.8683 94.7449V94.6225H57.6747V94.7449ZM56.7307 94.0102H53.8683V93.9184C53.8683 93.7959 53.8683 93.6429 53.8988 93.4898C53.9292 93.3368 53.9597 93.2143 54.0206 93.0612C54.0815 92.9082 54.1424 92.7857 54.2642 92.6939C54.3555 92.5714 54.5078 92.4796 54.6905 92.4184C54.8732 92.3572 55.0864 92.3266 55.33 92.3266C55.5736 92.3266 55.8172 92.3572 55.9695 92.4184C56.1522 92.4796 56.274 92.5714 56.3958 92.6939C56.4871 92.8163 56.5785 92.9388 56.6394 93.0612C56.7003 93.2143 56.7307 93.3368 56.7612 93.4898C56.7916 93.6429 56.7916 93.7653 56.7916 93.9184V94.0102H56.7307ZM60.0804 89.3878H59.1973V97.1939H60.0804V89.3878ZM65.8052 97.1939V93.4286C65.8052 93.1837 65.8052 92.9388 65.7443 92.7551C65.7139 92.5408 65.653 92.3572 65.5616 92.2041C65.4703 92.051 65.3485 91.9286 65.1962 91.8061C65.044 91.7143 64.8308 91.6225 64.5872 91.5612C64.3436 91.5 64.0391 91.4694 63.6736 91.4694C63.4605 91.4694 63.2473 91.4694 63.0646 91.5C62.8819 91.5306 62.6992 91.5306 62.5165 91.5612C62.3642 91.5919 62.212 91.6225 62.1206 91.6531C61.9988 91.6837 61.9379 91.7143 61.9075 91.7143V92.3572C62.1206 92.3266 62.3033 92.3266 62.486 92.2959C62.6688 92.2653 62.8515 92.2653 63.0342 92.2653C63.2169 92.2653 63.3996 92.2653 63.6127 92.2653C63.8868 92.2653 64.1 92.2653 64.2827 92.3266C64.4654 92.3572 64.5872 92.4184 64.6785 92.5102C64.7699 92.6021 64.8308 92.7245 64.8612 92.8776C64.8917 93.0306 64.9221 93.2143 64.9221 93.4592V93.8572H64.1C63.7041 93.8572 63.3691 93.8878 63.0646 93.9184C62.7601 93.949 62.486 94.0408 62.2729 94.1633C62.0597 94.2857 61.877 94.4694 61.7552 94.6837C61.6334 94.898 61.5725 95.2041 61.5725 95.5715V95.7857C61.5725 96.1531 61.6334 96.4592 61.7857 96.6735C61.9075 96.9184 62.0902 97.0715 62.3338 97.1939C62.5774 97.3164 62.8819 97.347 63.2169 97.347C63.4909 97.347 63.7345 97.3164 63.9782 97.2551C64.1913 97.1939 64.4045 97.1327 64.5567 97.0715C64.7394 96.9796 64.8612 96.9184 64.983 96.8266V97.1939H65.8052ZM64.9221 96.1837C64.8308 96.2449 64.709 96.3061 64.5567 96.3674C64.4045 96.4286 64.2218 96.4898 64.0086 96.551C63.7954 96.6123 63.5823 96.6429 63.3691 96.6429C63.1864 96.6429 63.0342 96.6123 62.8819 96.5817C62.7297 96.5204 62.6383 96.4592 62.5469 96.3368C62.4556 96.2143 62.4251 96.0613 62.4251 95.847V95.5715C62.4251 95.3572 62.4556 95.1735 62.5165 95.051C62.5774 94.9286 62.6688 94.8061 62.7906 94.7449C62.9124 94.6837 63.0951 94.6225 63.3082 94.5919C63.5214 94.5612 63.765 94.5612 64.0695 94.5612H64.8917V96.1837H64.9221ZM70.2511 97.1633V96.551C70.1902 96.551 70.0989 96.551 70.0075 96.5817C69.9162 96.5817 69.7944 96.6123 69.6726 96.6123C69.5507 96.6123 69.4289 96.6123 69.3376 96.6123C69.1549 96.6123 69.0331 96.6123 68.9722 96.551C68.8808 96.5204 68.8504 96.4286 68.8199 96.3368C68.7895 96.2449 68.7895 96.0613 68.7895 95.8776V92.3878H70.2511V91.6225H68.7895V90.1837H67.8759V91.6225H66.7492V92.2959L67.8759 92.3878V95.9082C67.8759 96.2449 67.9064 96.5204 67.9977 96.7347C68.0891 96.949 68.2413 97.1021 68.424 97.1939C68.6372 97.2857 68.8808 97.3164 69.2158 97.3164C69.368 97.3164 69.4898 97.3163 69.6421 97.2857C69.7639 97.2551 69.8857 97.2551 70.0075 97.2245C70.1293 97.2245 70.1902 97.1939 70.2511 97.1633ZM72.4132 91.6531H71.4996V97.1939H72.4132V91.6531ZM72.4436 89.3878H71.5301V90.6123H72.4436V89.3878ZM78.6557 94.8062V94.0102C78.6557 93.4592 78.5643 93 78.3816 92.6327C78.1989 92.2653 77.9553 91.9898 77.5899 91.7755C77.2549 91.5919 76.7982 91.4694 76.2805 91.4694C75.7628 91.4694 75.3365 91.5612 74.9711 91.7755C74.6361 91.9592 74.3621 92.2653 74.1793 92.6327C73.9966 93 73.9053 93.4592 73.9053 94.0102V94.8062C73.9053 95.3572 73.9966 95.8164 74.1793 96.1837C74.3621 96.551 74.6057 96.8572 74.9711 97.0408C75.306 97.2245 75.7628 97.3164 76.2805 97.3164C76.7982 97.3164 77.2245 97.2245 77.5899 97.0408C77.9553 96.8572 78.1989 96.551 78.3816 96.1837C78.5643 95.8164 78.6557 95.3572 78.6557 94.8062ZM77.7421 94.8062C77.7421 95.2041 77.6812 95.5408 77.5899 95.7857C77.4985 96.0306 77.3158 96.2143 77.1027 96.3368C76.8895 96.4592 76.6155 96.5204 76.2805 96.5204C75.9455 96.5204 75.6715 96.4592 75.4583 96.3368C75.2451 96.2143 75.0929 96.0306 75.0015 95.7857C74.9102 95.5408 74.8493 95.2041 74.8493 94.8062V94.0102C74.8493 93.6123 74.9102 93.2755 75.0015 93.0306C75.0929 92.7857 75.2756 92.6021 75.4888 92.4796C75.7019 92.3572 75.976 92.2959 76.3109 92.2959C76.6459 92.2959 76.92 92.3572 77.1331 92.4796C77.3463 92.6021 77.4985 92.7857 77.6203 93.0306C77.7117 93.2755 77.7726 93.6123 77.7726 94.0102V94.8062H77.7421ZM84.5632 97.1939V93.6429C84.5632 93.3061 84.5328 93 84.5023 92.7245C84.4719 92.449 84.3805 92.2347 84.2587 92.051C84.1369 91.8674 83.9542 91.7143 83.7411 91.6225C83.4974 91.5306 83.2234 91.4694 82.858 91.4694C82.6448 91.4694 82.4621 91.5 82.2489 91.5306C82.0358 91.5919 81.8531 91.6531 81.6399 91.7449C81.4268 91.8368 81.244 91.9286 81.0004 92.051V91.6225H80.1174V97.1633H81.0004V92.7551C81.3659 92.6021 81.7008 92.4796 81.9749 92.3878C82.2489 92.2959 82.523 92.2653 82.7362 92.2653C82.9798 92.2653 83.1929 92.2959 83.3147 92.3878C83.4365 92.4796 83.5279 92.6327 83.5888 92.8164C83.6497 93 83.6497 93.2755 83.6497 93.6123V97.1633H84.5632V97.1939ZM89.8922 95.7857C89.8922 95.5715 89.8618 95.3878 89.8009 95.2347C89.74 95.0817 89.6486 94.9286 89.5268 94.8062C89.405 94.6837 89.2223 94.5612 89.0091 94.4082C88.796 94.2857 88.5219 94.1633 88.2174 94.0102L87.8215 93.8266C87.5779 93.7041 87.3648 93.6123 87.2125 93.5204C87.0602 93.4286 86.9689 93.3368 86.908 93.2449C86.8471 93.1531 86.8166 93.0306 86.8166 92.8776C86.8166 92.7245 86.8471 92.5715 86.9384 92.4796C87.0298 92.3878 87.1516 92.3266 87.3039 92.2959C87.4561 92.2653 87.6997 92.2347 87.9433 92.2347C88.0651 92.2347 88.2174 92.2347 88.4001 92.2347C88.5828 92.2347 88.7655 92.2653 88.9787 92.2653C89.1918 92.2959 89.3746 92.2959 89.5877 92.3266V91.6531C89.5268 91.6225 89.4659 91.6225 89.3441 91.5919C89.2223 91.5613 89.1005 91.5612 88.9482 91.5306C88.796 91.5 88.6437 91.5 88.461 91.4694C88.2783 91.4694 88.0956 91.4388 87.9129 91.4388C87.4561 91.4388 87.0602 91.5 86.7862 91.5919C86.4817 91.6837 86.2685 91.8368 86.1467 92.051C85.9945 92.2653 85.9336 92.5102 85.9336 92.8164C85.9336 93.0919 85.9945 93.3061 86.0858 93.5204C86.1772 93.7347 86.3599 93.8878 86.573 94.0714C86.7862 94.2245 87.0907 94.3776 87.4257 94.5306L87.8215 94.7143C88.0651 94.8061 88.2478 94.898 88.4001 94.9898C88.5524 95.051 88.6742 95.1429 88.7351 95.2041C88.8264 95.2653 88.8569 95.3572 88.8873 95.449C88.9178 95.5408 88.9178 95.6327 88.9178 95.7551C88.9178 95.8776 88.8873 95.9694 88.8569 96.0612C88.8264 96.1531 88.7655 96.2143 88.6742 96.3061C88.5828 96.3674 88.461 96.398 88.3088 96.4592C88.1565 96.4898 87.9433 96.5204 87.7302 96.5204C87.5779 96.5204 87.3952 96.5204 87.2125 96.4898C87.0298 96.4898 86.8775 96.4592 86.7253 96.4592C86.573 96.4286 86.4208 96.4286 86.2685 96.4286C86.1467 96.398 86.0249 96.398 85.9336 96.398V97.1021C85.9945 97.1021 86.0554 97.1327 86.1772 97.1633C86.299 97.1939 86.4512 97.2245 86.6035 97.2245C86.7862 97.2551 86.9384 97.2551 87.1516 97.2857C87.3343 97.3163 87.5475 97.3164 87.7302 97.3164C88.126 97.3164 88.461 97.2857 88.7351 97.1939C89.0091 97.1021 89.2223 97.0102 89.3745 96.8572C89.5268 96.7041 89.6486 96.551 89.7095 96.3674C89.8618 96.1837 89.8922 96 89.8922 95.7857ZM95.6475 97.1939V93.6429C95.6475 92.9082 95.4953 92.3878 95.2212 92.0204C94.9471 91.6531 94.4904 91.5 93.8813 91.5C93.6073 91.5 93.3637 91.5306 93.1505 91.5612C92.9069 91.6225 92.7242 91.6837 92.5415 91.7449C92.3588 91.8061 92.2065 91.8674 92.0847 91.9286V89.3878H91.2016V97.1939H92.0847V92.6939C92.2065 92.6327 92.3588 92.5715 92.511 92.5102C92.6937 92.449 92.8765 92.3878 93.0592 92.3572C93.2723 92.3266 93.455 92.2959 93.6682 92.2959C93.8509 92.2959 94.0336 92.3266 94.1554 92.3572C94.2772 92.3878 94.399 92.4796 94.4904 92.5715C94.5817 92.6633 94.6426 92.8163 94.6731 93C94.7035 93.1837 94.734 93.398 94.734 93.6735V97.1939H95.6475ZM98.2663 91.6531H97.3528V97.1939H98.2663V91.6531ZM98.2663 89.3878H97.3528V90.6123H98.2663V89.3878ZM104.478 94.6225V94.0714C104.478 93.4592 104.387 92.9388 104.235 92.5715C104.083 92.2041 103.839 91.9286 103.565 91.7449C103.26 91.5613 102.895 91.5 102.499 91.5C102.316 91.5 102.134 91.5306 101.951 91.5612C101.768 91.5919 101.586 91.6531 101.403 91.7449C101.22 91.8061 101.037 91.9286 100.885 92.0204V91.6531H100.033V99.3368H100.916V97.1939C101.037 97.2245 101.159 97.2551 101.311 97.2857C101.464 97.3163 101.616 97.3164 101.738 97.347C101.89 97.347 102.012 97.3776 102.134 97.3776C102.469 97.3776 102.773 97.347 103.047 97.2551C103.321 97.1633 103.565 97.0408 103.778 96.8266C103.991 96.6123 104.143 96.3368 104.265 96C104.417 95.6021 104.478 95.1735 104.478 94.6225ZM103.595 94.6225C103.595 95.0204 103.565 95.3572 103.504 95.6021C103.443 95.847 103.352 96.0613 103.199 96.1837C103.078 96.3062 102.925 96.4286 102.743 96.4592C102.56 96.5204 102.377 96.551 102.134 96.551C101.951 96.551 101.768 96.5204 101.555 96.5204C101.342 96.4898 101.129 96.4592 100.916 96.398V92.6939C101.129 92.6021 101.311 92.5102 101.494 92.449C101.646 92.3878 101.799 92.3572 101.951 92.3266C102.073 92.2959 102.225 92.2959 102.377 92.2959C102.59 92.2959 102.773 92.3266 102.925 92.3878C103.078 92.449 103.199 92.5408 103.321 92.6939C103.413 92.8163 103.504 93 103.565 93.2449C103.626 93.4898 103.656 93.7653 103.656 94.1021V94.6225H103.595ZM112.426 90.5204V89.6939H108.011V97.1939H108.924V93.7347H112.213V92.9082H108.924V90.551H112.426V90.5204ZM117.968 94.8062V94.0102C117.968 93.4592 117.877 93 117.694 92.6327C117.512 92.2653 117.268 91.9898 116.903 91.7755C116.568 91.5919 116.111 91.4694 115.593 91.4694C115.075 91.4694 114.649 91.5612 114.314 91.7755C113.979 91.9592 113.705 92.2653 113.522 92.6327C113.34 93 113.248 93.4592 113.248 94.0102V94.8062C113.248 95.3572 113.34 95.8164 113.522 96.1837C113.705 96.551 113.949 96.8572 114.314 97.0408C114.649 97.2245 115.106 97.3164 115.593 97.3164C116.111 97.3164 116.537 97.2245 116.903 97.0408C117.237 96.8572 117.512 96.551 117.694 96.1837C117.877 95.8164 117.968 95.3572 117.968 94.8062ZM117.055 94.8062C117.055 95.2041 116.994 95.5408 116.903 95.7857C116.811 96.0306 116.628 96.2143 116.415 96.3368C116.202 96.4592 115.928 96.5204 115.593 96.5204C115.258 96.5204 114.984 96.4592 114.771 96.3368C114.558 96.2143 114.406 96.0306 114.314 95.7857C114.223 95.5408 114.162 95.2041 114.162 94.8062V94.0102C114.162 93.6123 114.223 93.2755 114.314 93.0306C114.406 92.7857 114.588 92.6021 114.801 92.4796C115.015 92.3572 115.289 92.2959 115.624 92.2959C115.959 92.2959 116.233 92.3572 116.446 92.4796C116.659 92.6021 116.811 92.7857 116.933 93.0306C117.024 93.2755 117.085 93.6123 117.085 94.0102V94.8062H117.055ZM122.262 92.2959V91.5C121.866 91.5 121.501 91.5306 121.196 91.6225C120.861 91.7143 120.557 91.8674 120.313 92.0817V91.6531H119.43V97.1939H120.313V92.7857C120.435 92.7245 120.557 92.6633 120.678 92.6021C120.831 92.5408 120.983 92.4796 121.166 92.449C121.348 92.4184 121.531 92.3878 121.714 92.3572C121.897 92.3266 122.079 92.2959 122.262 92.2959ZM129.753 97.1939V96.3674H126.342V89.6939H125.429V97.1939H129.753ZM131.854 91.6531H130.941V97.1939H131.854V91.6531ZM131.885 89.3878H130.971V90.6123H131.885V89.3878ZM136.544 92.3878V91.6225H134.991V90.949C134.991 90.7653 134.991 90.6123 135.021 90.4898C135.021 90.3674 135.052 90.2449 135.112 90.1837C135.143 90.0919 135.204 90.0306 135.295 90C135.386 89.9694 135.508 89.9388 135.661 89.9388C135.782 89.9388 135.874 89.9388 135.995 89.9388C136.117 89.9388 136.209 89.9388 136.33 89.9694C136.422 89.9694 136.513 89.9694 136.605 89.9694V89.3572C136.483 89.3266 136.33 89.2959 136.148 89.2653C135.965 89.2347 135.752 89.2347 135.539 89.2041C135.204 89.2041 134.96 89.2653 134.777 89.3572C134.595 89.449 134.442 89.5715 134.351 89.7551C134.26 89.9082 134.199 90.0919 134.168 90.3061C134.138 90.5204 134.138 90.7041 134.138 90.949V91.6225H133.103V92.2959L134.138 92.3878V97.1939H135.052V92.3878H136.544ZM141.994 94.7449V94.347C141.994 93.7347 141.903 93.2143 141.751 92.7857C141.599 92.3572 141.324 92.051 140.959 91.8368C140.594 91.6225 140.167 91.5 139.619 91.5C139.102 91.5 138.675 91.6225 138.31 91.8061C137.975 92.0204 137.701 92.3266 137.518 92.7245C137.335 93.1225 137.274 93.6123 137.274 94.1939V94.6225C137.274 95.0817 137.305 95.449 137.396 95.7857C137.488 96.1225 137.609 96.398 137.792 96.6123C137.975 96.8266 138.249 97.0102 138.584 97.1021C138.919 97.2245 139.315 97.2551 139.802 97.2551C140.106 97.2551 140.38 97.2551 140.624 97.2245C140.868 97.1939 141.081 97.1633 141.294 97.1327C141.477 97.1021 141.659 97.0715 141.781 97.0408V96.3061C141.659 96.3368 141.507 96.3368 141.355 96.3674C141.203 96.398 141.02 96.398 140.868 96.4286C140.685 96.4592 140.533 96.4592 140.35 96.4592C140.167 96.4592 140.015 96.4592 139.863 96.4592C139.558 96.4592 139.315 96.4286 139.102 96.3674C138.888 96.3061 138.736 96.2449 138.614 96.1225C138.493 96.0306 138.401 95.9082 138.34 95.7551C138.279 95.6021 138.249 95.449 138.218 95.2959C138.188 95.1123 138.188 94.9286 138.188 94.7449V94.6225H141.994V94.7449ZM141.081 94.0102H138.218V93.9184C138.218 93.7959 138.218 93.6429 138.249 93.4898C138.279 93.3368 138.31 93.2143 138.371 93.0612C138.432 92.9082 138.493 92.7857 138.614 92.6939C138.706 92.5714 138.858 92.4796 139.041 92.4184C139.223 92.3572 139.437 92.3266 139.68 92.3266C139.924 92.3266 140.137 92.3572 140.32 92.4184C140.502 92.4796 140.624 92.5714 140.746 92.6939C140.837 92.8163 140.929 92.9388 140.99 93.0612C141.05 93.2143 141.081 93.3368 141.111 93.4898C141.142 93.6429 141.142 93.7653 141.142 93.9184V94.0102H141.081Z" fill="black"/>
<path fill-rule="evenodd" clip-rule="evenodd" d="M20.2806 68.5408V20.7551H160.996V69.2449L90.8058 84.1837L20.2806 68.5408Z" fill="#790013"/>
<path fill-rule="evenodd" clip-rule="evenodd" d="M43.3932 30.153C43.1191 31.5612 42.8755 32.9388 42.6319 34.2857C41.3529 34.2857 40.1044 34.2551 38.8864 34.2857C38.2164 34.3163 37.577 34.3775 36.907 34.4694C35.9935 34.6224 35.3845 35.2653 35.354 36.153C35.2627 38.1428 35.2627 40.1326 35.354 42.153C35.4149 43.2245 36.1762 43.8979 37.2724 43.9592C38.5818 44.051 39.8913 44.051 41.2007 44.0816C41.9619 44.0816 42.6928 44.0816 43.515 44.0816C43.2713 45.4592 43.0277 46.8061 42.7537 48.1836C40.2262 48.1836 37.7292 48.3979 35.2322 47.9694C32.3393 47.4796 30.7254 45.8571 30.2991 42.7959C29.9641 40.3469 29.9337 37.8979 30.36 35.449C30.8777 32.449 32.4307 30.8265 35.4454 30.3979C37.1202 30.153 38.8255 30.1837 40.5003 30.153C41.4443 30.1224 42.3883 30.153 43.3932 30.153Z" fill="white"/>
<path fill-rule="evenodd" clip-rule="evenodd" d="M71.1038 51.0612C71.1038 51.2449 71.0733 51.398 71.0733 51.5816C71.0733 55.8367 71.0733 60.1224 71.0733 64.3775C71.0733 64.5612 71.1038 64.7143 71.1038 64.9286H79.2038C78.9298 66.3367 78.6861 67.6837 78.4121 69.0612H66.1707V51.0612H71.1038Z" fill="white"/>
<path d="M98.4185 32.0816H93.5159V48.3061H98.4185V32.0816Z" fill="white"/>
<path fill-rule="evenodd" clip-rule="evenodd" d="M45.5247 32.1122H58.9841C58.7405 33.2755 58.4969 34.4387 58.2533 35.602H50.2446V38.3571H58.101C57.8879 39.3367 57.6443 40.2857 57.5225 41.2347C57.4616 41.8163 57.1875 41.8775 56.6089 41.8775C54.6905 41.8469 52.7721 41.8775 50.8536 41.8775H50.2446V44.8163H59.1364C58.8928 45.9489 58.6796 47.0204 58.4665 48.1224C58.436 48.2143 58.2838 48.3061 58.1924 48.3367C58.0706 48.3673 57.9488 48.3367 57.827 48.3367H46.0728H45.5247V32.1122Z" fill="white"/>
<path fill-rule="evenodd" clip-rule="evenodd" d="M68.9722 38.2653C69.7944 36.7653 72.3827 32.1122 72.3827 32.1122C72.3827 32.1122 73.7226 32.1122 74.423 32.1122C75.4583 32.1122 76.4632 32.1122 77.5899 32.1122C77.2854 32.602 77.0113 33 76.7677 33.4285C75.032 36.1224 73.2963 38.7857 71.591 41.4796C71.4387 41.6938 71.3778 41.9694 71.3778 42.2449C71.3474 44.2653 71.3778 46.2551 71.3778 48.3061H66.5056V47.8163C66.5056 45.9796 66.5056 44.1428 66.5056 42.3061C66.5056 42.0612 66.4143 41.7857 66.262 41.5408C64.374 38.602 62.486 35.6632 60.5676 32.7245C60.4458 32.5408 60.3545 32.3877 60.1718 32.1122H61.3289C62.5774 32.1122 65.2267 32.1122 65.318 32.1122H65.5921C65.5921 32.1122 65.7139 32.3571 65.8052 32.5102C66.7797 34.2857 67.7541 36.0612 68.7286 37.8367C68.7895 37.9592 68.8808 38.0816 68.9722 38.2653Z" fill="white"/>
<path fill-rule="evenodd" clip-rule="evenodd" d="M92.0543 44.5714C91.7802 45.8571 91.5062 47.051 91.2626 48.2755H79.082V32.1122H83.9238V44.5714H92.0543Z" fill="white"/>
<path fill-rule="evenodd" clip-rule="evenodd" d="M100.885 32.0816C102.103 32.0816 104.783 32.1122 104.783 32.1122C104.783 32.1122 104.966 32.3571 105.027 32.449C107.219 35.2347 109.412 38.0204 111.604 40.8061C111.726 40.9286 111.817 41.0816 112.03 41.3265V32.1122H116.659V48.3061C115.837 48.3061 112.792 48.3061 112.792 48.3061C112.792 48.3061 107.859 42.1837 105.849 39.6735C105.757 39.5816 105.666 39.4592 105.483 39.2755V48.2755H100.855V32.0816H100.885Z" fill="white"/>
<path fill-rule="evenodd" clip-rule="evenodd" d="M131.428 35.7858C130.027 35.7858 128.687 35.7552 127.347 35.7858C126.799 35.7858 126.221 35.8776 125.703 35.9694C124.789 36.1225 124.211 36.7041 124.15 37.5001C124.059 39.3062 124.059 41.1123 124.15 42.8878C124.211 43.8368 125.003 44.4184 126.099 44.5103C127.012 44.6021 127.956 44.6021 128.87 44.6021C129.997 44.6327 131.123 44.6021 132.311 44.6021C132.067 45.8572 131.824 47.0511 131.55 48.3368C130.027 48.3368 128.505 48.398 126.982 48.3062C125.673 48.245 124.363 48.1531 123.115 47.8776C120.892 47.3878 119.582 45.9796 119.217 43.9899C118.73 41.3572 118.669 38.6939 119.308 36.0919C119.826 33.9796 121.47 32.847 123.724 32.3878C125.277 32.0511 126.83 32.0817 128.413 32.0817H132.159C131.915 33.3368 131.671 34.5613 131.428 35.7858Z" fill="white"/>
<path fill-rule="evenodd" clip-rule="evenodd" d="M150.247 36.551C149.912 34.1326 148.267 32.5102 145.649 31.9898C144.705 31.8061 143.761 31.7449 142.817 31.6224H141.355C140.746 31.6837 140.106 31.7449 139.497 31.8061C136.422 32.2041 134.382 33.5204 133.894 36.551C133.529 38.9082 133.499 41.3265 133.864 43.6837C134.321 46.6837 135.935 48.0306 139.223 48.5204C141.142 48.7959 143.03 48.7653 144.948 48.5204C147.932 48.1531 149.881 46.4388 150.247 43.7755C150.582 41.3571 150.582 38.9388 150.247 36.551ZM145.222 43.102C145.009 44.4184 144.491 44.8469 143.03 44.9694C142.238 45.0306 141.446 45 140.685 44.9082C139.558 44.7857 138.919 44.1735 138.827 43.102C138.736 42.0918 138.706 41.051 138.706 40.0102C138.706 39 138.767 37.9898 138.888 36.9796C139.01 36.0612 139.711 35.4796 140.685 35.4184C141.629 35.3571 142.603 35.3571 143.547 35.4796C144.552 35.602 145.07 36.153 145.192 37.0714C145.314 38.1122 145.344 39.1531 145.405 40.102C145.344 41.1735 145.374 42.1531 145.222 43.102Z" fill="white"/>
<path fill-rule="evenodd" clip-rule="evenodd" d="M116.994 52.8673C116.75 54.0306 116.507 55.1938 116.233 56.3571H108.224V59.1122H116.08C115.867 60.1224 115.35 62.6326 115.35 62.6326C115.35 62.6326 114.954 62.6326 114.619 62.6326C112.518 62.6326 110.386 62.6326 108.254 62.6326V65.5714H117.146C116.903 66.7347 116.385 69.0918 116.385 69.0918C116.385 69.0918 108.924 69.0918 105.422 69.0918H103.474V52.8673H116.994Z" fill="white"/>
<path fill-rule="evenodd" clip-rule="evenodd" d="M101.616 52.8673C101.403 54.0306 101.19 55.2245 100.977 56.4489H93.3637V59.602H100.489C100.246 60.7653 100.033 61.8673 99.7889 63.0306H93.3332V69.0612H88.6133V52.8673H101.616Z" fill="white"/>
<path fill-rule="evenodd" clip-rule="evenodd" d="M86.0858 52.8673C86.0858 58.0714 86.0858 63.2755 86.0858 68.4796C86.0858 68.6632 86.0858 68.8469 86.0858 69.0612H81.1527V52.8673H86.0858Z" fill="white"/>
<path fill-rule="evenodd" clip-rule="evenodd" d="M121.653 52.9286C122.14 52.9286 122.475 52.9898 122.719 53.0817C123.115 53.2347 123.328 53.5715 123.328 54.0613C123.328 54.398 123.206 54.6735 122.962 54.8266C122.841 54.9184 122.627 54.9796 122.414 55.0102C122.719 55.0715 122.932 55.1939 123.084 55.3776C123.236 55.5919 123.297 55.7755 123.297 55.9898V56.2653C123.297 56.3572 123.297 56.449 123.297 56.5408C123.297 56.6327 123.328 56.6939 123.328 56.7551L123.358 56.8164H122.719V56.7857V56.7551V56.6327V56.3266C122.719 55.8674 122.597 55.5919 122.353 55.4388C122.201 55.347 121.957 55.3164 121.592 55.3164H121.044V56.847H120.374V52.9592H121.653V52.9286ZM122.627 54.0919C122.627 53.8164 122.536 53.6327 122.384 53.5102C122.201 53.4184 121.927 53.3572 121.562 53.3572H120.983V54.7653H121.592C121.866 54.7653 122.079 54.7347 122.231 54.6735C122.506 54.5817 122.627 54.398 122.627 54.0919ZM125.246 54.8572C125.246 55.8368 124.911 56.6633 124.211 57.3674C123.541 58.0715 122.688 58.4082 121.714 58.4082C120.739 58.4082 119.917 58.0715 119.217 57.3674C118.547 56.6633 118.212 55.8368 118.212 54.8572C118.212 53.8776 118.547 53.0511 119.247 52.3776C119.917 51.7041 120.739 51.3368 121.714 51.3368C122.688 51.3368 123.51 51.6735 124.211 52.3776C124.881 53.0511 125.246 53.8776 125.246 54.8572ZM121.714 51.8266C120.892 51.8266 120.161 52.1327 119.582 52.7143C119.004 53.2959 118.699 54.0306 118.699 54.8572C118.699 55.7143 119.004 56.4184 119.582 57.0306C120.161 57.6123 120.892 57.9184 121.714 57.9184C122.536 57.9184 123.267 57.6123 123.845 57.0306C124.424 56.449 124.728 55.7143 124.728 54.8572C124.728 54.0306 124.424 53.2959 123.845 52.7143C123.267 52.1327 122.566 51.8266 121.714 51.8266Z" fill="white"/>
<path fill-rule="evenodd" clip-rule="evenodd" d="M142.421 90.4898V90H144.857V90.4898H143.913V92.8776H143.334V90.4898H142.421ZM146.166 90L146.897 92.051L147.628 90H148.45V92.8469H147.932V90.551L147.141 92.8469H146.684L145.892 90.551V92.8469H145.375V90H146.166Z" fill="black"/>
</svg>
