<svg width="96" height="96" viewBox="0 0 96 96" fill="none" xmlns="http://www.w3.org/2000/svg">
<g clip-path="url(#clip0)">
<path d="M81.7279 84.0124C80.8963 91.9695 72.6368 93.8217 57.1196 92.2908C45.08 91.1001 34.7793 91.9884 30.5267 92.2908C20.7173 92.9712 12.9871 93.5193 8.88567 89.7014C6.52312 87.4901 5.37019 83.7478 5.37019 78.2478C5.37019 62.1446 15.4252 47.7803 30.4511 42.2047C34.2311 44.8696 38.8428 46.4572 43.8137 46.4572C48.7845 46.4572 53.3962 44.8696 57.1763 42.1857C62.1849 44.0569 66.8533 46.9865 70.6901 50.7476L72.8636 48.5174C69.1402 44.8696 64.6986 41.94 59.9168 39.9177C64.3017 35.684 67.0423 29.7682 67.0423 23.2286C67.0423 10.4141 56.6282 0 43.8137 0C30.9992 0 20.585 10.4141 20.585 23.2286C20.585 29.7871 23.3256 35.7029 27.7105 39.9366C12.4012 46.3627 2.27052 61.4264 2.27052 78.2289C2.27052 84.6361 3.83926 89.021 6.78772 91.9506C12.628 97.7908 24.7053 95.6929 30.7724 95.3716C42.415 94.7667 42.2638 94.1997 56.9306 95.3716C70.3499 96.4489 81.9736 97.1293 84.7709 84.6928L81.7279 84.0124ZM23.7036 23.2286C23.7036 12.1341 32.7191 3.11857 43.8137 3.11857C54.9082 3.11857 63.9237 12.1341 63.9237 23.2286C63.9237 34.3232 54.9082 43.3387 43.8137 43.3387C32.738 43.3387 23.7036 34.3232 23.7036 23.2286Z" fill="#D4A5A6"/>
<path d="M78.8362 51.6737C70.6334 51.6737 63.9426 58.3456 63.9426 66.5672C63.9426 74.7889 70.6145 81.4608 78.8362 81.4608C87.0578 81.4608 93.7297 74.7889 93.7297 66.5672C93.7297 58.3456 87.0389 51.6737 78.8362 51.6737ZM78.8362 78.3422C72.3344 78.3422 67.0612 73.0501 67.0612 66.5672C67.0612 60.0655 72.3533 54.7923 78.8362 54.7923C85.3379 54.7923 90.6111 60.0844 90.6111 66.5672C90.6111 73.069 85.319 78.3422 78.8362 78.3422Z" fill="#D4A5A6"/>
<path d="M80.386 65.0174V58.2322H77.2674V65.0174H70.5011V68.1171H77.2674V74.9024H80.386V68.1171H87.1713V65.0174H80.386Z" fill="#D4A5A6"/>
</g>
<defs>
<clipPath id="clip0">
<rect width="96" height="96" fill="white"/>
</clipPath>
</defs>
</svg>
