<svg width="171" height="140" viewBox="0 0 171 140" fill="none" xmlns="http://www.w3.org/2000/svg">
<g opacity="0.86">
<g opacity="0.86">
<g opacity="0.86">
<g opacity="0.65">
<g opacity="0.47">
<path opacity="0.47" d="M165.143 74.1907C164.316 64.912 160.473 55.5847 153.712 48.9779C143.254 38.6304 127.396 36.0071 113.485 38.3875C107.647 39.4077 101.908 41.1566 95.9247 40.6222C87.2177 39.7963 79.5809 34.2097 71.7008 30.129C60.9509 24.5423 48.5958 21.5304 37.1648 23.9594C24.1773 26.7284 13.5247 37.1245 12.26 50.9211C11.6763 57.1879 17.5133 68.1669 15.6649 74.0936C13.8165 80.1175 0.148058 98.4806 0.488554 112.52C0.82905 126.462 3.99079 130.786 8.41724 137.879H11.9681H118.738H139.946C151.085 137.879 159.014 126.608 155.414 115.824C155.366 115.726 155.366 115.629 155.317 115.532C152.739 108.002 159.743 101.784 162.467 94.7885C164.948 88.5217 165.775 80.9919 165.143 74.1907Z" fill="#E9D2D3"/>
</g>
</g>
<g opacity="0.53">
<path opacity="0.53" d="M2.58017 75.3084C1.70461 73.4138 2.3856 71.1305 4.03944 70.1589C5.69327 69.1874 8.90366 69.2845 9.77922 71.1791C10.6548 73.0737 8.07675 74.6769 7.00662 76.4257C5.59599 78.8547 3.45573 77.203 2.58017 75.3084Z" fill="#E9D2D3"/>
</g>
<g opacity="0.53">
<path opacity="0.53" d="M78.4135 5.35342C79.0458 2.24432 81.9644 -0.0389251 84.8829 0.252553C87.8501 0.544031 91.7414 3.55597 91.1091 6.66507C90.4768 9.77416 85.8071 9.48269 82.9372 10.6972C78.8999 12.3975 77.7811 8.46251 78.4135 5.35342Z" fill="#E9D2D3"/>
</g>
<g opacity="0.53">
<path opacity="0.53" d="M168.937 108.294C170.98 109.994 171.418 113.298 169.861 115.581C168.353 117.864 164.364 119.953 162.321 118.253C160.278 116.552 162.565 112.812 162.905 109.994C163.392 105.962 166.894 106.545 168.937 108.294Z" fill="#E9D2D3"/>
</g>
<g opacity="0.53">
<path opacity="0.53" d="M158.77 37.2215C156.581 39.0189 153.128 38.776 151.036 36.7357C148.945 34.6953 147.583 30.226 149.772 28.4286C151.96 26.6311 155.365 29.7402 158.235 30.6632C162.224 31.9749 160.959 35.424 158.77 37.2215Z" fill="#E9D2D3"/>
</g>
<g opacity="0.41">
<path opacity="0.41" d="M104.097 27.7001C105.459 25.3683 108.182 24.6882 110.177 26.1941C112.171 27.7001 114.117 31.8294 112.755 34.1612C111.393 36.493 108.182 34.2583 105.75 34.1126C102.443 33.8211 102.735 30.0319 104.097 27.7001Z" fill="#E9D2D3"/>
</g>
</g>
</g>
<g opacity="0.67">
<g opacity="0.67">
<g opacity="0.67">
<path opacity="0.67" d="M143.302 129.62C144.664 121.605 142.475 114.755 141.94 106.885C141.405 99.4523 143.643 93.1855 144.907 86.0443C146.026 79.729 145.637 72.5877 144.275 66.3696C142.378 57.8681 138.049 50.0468 131.774 45.2374C122.046 37.7561 109.009 38.6791 98.2595 43.78C93.7358 45.9175 89.358 48.7837 84.5424 49.5124C77.4893 50.5812 70.6307 46.9377 63.7722 44.8002C54.4329 41.8368 44.1693 41.6425 35.3651 46.3062C25.3934 51.6013 18.243 63.5034 19.1186 76.5713C19.5077 82.498 21.4048 88.3761 20.7238 94.2543C20.0428 100.23 17.027 105.233 15.4704 110.869C13.3301 118.544 13.0869 129.863 16.5892 137.685L132.115 139.288C137.562 139.385 142.378 135.304 143.351 129.669C143.302 129.669 143.302 129.62 143.302 129.62Z" fill="#E9D2D3"/>
</g>
</g>
</g>
<g opacity="0.86">
<g opacity="0.86">
<g opacity="0.82">
<path opacity="0.82" d="M120.197 102.998C119.808 98.1404 117.911 93.2825 114.603 89.8333C109.447 84.441 101.664 83.0807 94.8058 84.2952C91.9359 84.8296 89.1147 85.7526 86.1475 85.4611C81.867 85.0239 78.1215 82.1091 74.2302 79.9716C68.9282 77.0568 62.8479 75.5023 57.2054 76.7654C50.8332 78.2228 45.5799 83.6151 44.9475 90.8535C44.6557 94.1083 47.5256 99.8893 46.65 102.95C45.7258 106.107 39.0132 115.726 39.1591 123.013C39.305 130.3 40.8616 132.583 43.0505 136.275H44.8016H91.9359H107.404C113.095 136.275 117.181 130.446 115.382 124.762C115.382 124.714 115.333 124.665 115.333 124.616C114.068 120.681 117.522 117.427 118.884 113.783C120.1 110.48 120.489 106.545 120.197 102.998Z" fill="#E9D2D3"/>
</g>
</g>
</g>
</g>
<path d="M97.8218 101.104C99.0378 70.3045 71.1658 66.661 71.1658 66.661V66.8068L68.6364 66.1752L58.4215 70.9846L48.3526 64.1835L34.5382 67.1468C34.5382 67.1468 14.5462 72.0048 15.2758 96.9747C15.2758 97.4605 15.665 97.8978 16.1514 97.9949L24.4206 106.399L27.4851 129.475C26.0744 132.341 23.7396 137.83 23.7396 137.83H94.1249L97.8218 101.104Z" fill="#FF9797"/>
<path d="M69.7066 66.6611L58.8593 70.6932L47.1852 64.4264L48.2553 137.83H71.6522L69.7066 66.6611Z" fill="#E9D2D3"/>
<path d="M78.219 26.9228C80.797 24.8824 80.9916 20.8017 78.3649 18.5185C74.8626 15.458 69.1715 12.4946 61.6806 14.8264C62.9939 9.677 59.2485 6.95654 54.968 7.19943C54.141 7.24801 53.2168 7.39375 52.2926 7.73381C52.2926 7.73381 52.1467 -0.0875139 45.7746 0.0582251C45.7746 0.0582251 40.959 -0.0389338 41.2995 7.2966C41.2995 7.2966 37.9432 4.81903 34.4896 6.76222C32.4952 7.87955 31.3764 10.1628 31.5224 12.3975C31.6197 13.952 32.2034 15.9438 33.9058 18.0327C33.9058 18.0327 29.674 20.4617 32.3007 24.2509C34.4409 27.3114 39.2079 26.0483 39.2079 26.0483C39.2079 26.0483 36.192 29.9347 38.4296 31.9751C37.5054 33.3839 37.1649 35.0842 37.5054 36.7844C37.8459 38.3876 38.7214 40.3793 40.7644 42.3711C40.7644 42.3711 36.6785 45.4802 39.9375 49.0751C42.5642 51.9899 47.3798 49.9981 47.3798 49.9981C47.3798 49.9981 44.8017 54.4674 47.3798 56.2649C49.9578 58.1109 54.0924 56.8478 59.2485 51.1154C60.4645 49.7552 61.486 48.5893 62.4102 47.5206C63.7236 47.1805 65.1828 46.6461 66.788 45.9174C73.452 42.8569 76.6138 40.768 76.6138 40.768C85.5153 34.5498 83.2291 28.7202 78.219 26.9228Z" fill="#291F19"/>
<path d="M76.5658 40.8652C76.517 40.914 76.4681 40.9628 76.4192 40.9628C76.4192 40.9628 76.4681 40.914 76.5658 40.8652Z" fill="#291F19"/>
<path d="M76.6143 40.8652C76.6143 40.8652 76.5652 40.8652 76.5652 40.9144C76.5652 40.8652 76.6143 40.8652 76.6143 40.8652Z" fill="#291F19"/>
<path d="M76.3714 41.0111C76.0781 41.2063 76.2247 41.1087 76.3714 41.0111V41.0111Z" fill="#291F19"/>
<path d="M60.9023 26.923C59.5403 28.1375 57.8865 29.0119 56.0867 29.4491C54.968 33.044 53.0709 35.7159 51.0766 36.056L49.3741 35.6673L46.3096 35.7159C43.1965 35.7645 40.6671 38.3878 40.7158 41.5455V41.6912C40.7644 44.8003 43.3911 47.3264 46.5528 47.2779L48.839 47.2293L48.0121 65.3009C47.9635 70.4503 53.0223 73.4137 58.2756 73.4623H58.4702C63.7236 73.5109 68.0041 69.333 68.0527 64.1836L68.1014 59.6657C74.0844 58.7427 78.3649 52.7674 77.7812 45.9662L76.176 28.0403C74.6194 28.6718 72.771 29.2062 70.4848 29.5949C66.6907 30.2264 63.4317 28.9147 60.9023 26.923Z" fill="#FFB27D"/>
<path d="M68.1987 59.6172C68.1987 59.6172 57.011 59.9573 55.1626 55.9738C53.3142 51.9902 55.1626 55.9738 55.1626 55.9738C55.1626 55.9738 54.3357 63.3579 68.1501 64.7667L68.1987 59.6172Z" fill="#FF9966"/>
<path d="M45.9204 43.5371C45.7745 43.5371 45.5799 43.44 45.5313 43.2942C45.3853 43.0513 45.434 42.7599 45.6772 42.6141L47.0878 41.7397L45.4826 39.9422C45.2881 39.7479 45.3367 39.4565 45.5313 39.2621C45.7258 39.0678 46.0177 39.1164 46.2123 39.3107L48.158 41.5454C48.2552 41.6425 48.3039 41.7883 48.2552 41.934C48.2552 42.0798 48.158 42.1769 48.012 42.2741L46.115 43.44C46.0663 43.4886 45.9691 43.5371 45.9204 43.5371Z" fill="#FF9966"/>
<path d="M58.5188 75.5996V71.6647C58.5188 65.9808 53.3141 61.3658 46.8447 61.3658C46.8447 61.3658 41.9318 75.4539 58.5188 75.5996Z" fill="#F2F0EB"/>
<path d="M58.4215 75.5996V71.6647C58.4215 65.9808 63.6262 61.3658 70.0957 61.3658C70.0957 61.3658 75.0085 75.4539 58.4215 75.5996Z" fill="#F2F0EB"/>
<path d="M127.445 58.0623H74.9111C81.2346 58.0623 86.3421 64.2319 86.3421 71.8589V129.377C86.3421 134.284 89.6497 138.316 93.7357 138.316H143.886V77.9313C143.886 66.9523 136.541 58.0623 127.445 58.0623Z" fill="white"/>
<path d="M154.782 123.888L109.69 123.936H101.859L101.908 129.086C101.956 133.555 98.6972 137.344 94.4653 138.219C94.368 138.219 94.9517 138.267 95.4868 138.267C96.2651 138.267 96.8974 138.267 96.8974 138.267L137.951 138.316C138 138.316 138.049 138.316 138.097 138.316H145.783C150.842 138.267 154.928 134.187 154.879 129.134L154.782 123.888Z" fill="#790013"/>
<path d="M136.152 82.4008H95.7789C95.6329 82.4008 95.5356 82.3037 95.5356 82.1579C95.5356 82.0122 95.6329 81.915 95.7789 81.915H136.152C136.298 81.915 136.395 82.0122 136.395 82.1579C136.395 82.3037 136.298 82.4008 136.152 82.4008Z" fill="#121936"/>
<path d="M125.742 74.3364H104.437C104.048 74.3364 103.708 73.9964 103.708 73.6077C103.708 73.2191 104.048 72.879 104.437 72.879H125.742C126.132 72.879 126.472 73.2191 126.472 73.6077C126.472 73.9964 126.132 74.3364 125.742 74.3364Z" fill="#790013"/>
<path d="M118.835 99.2579H95.7789C95.6329 99.2579 95.5356 99.1607 95.5356 99.015C95.5356 98.8693 95.6329 98.7721 95.7789 98.7721H118.835C118.981 98.7721 119.078 98.8693 119.078 99.015C119.078 99.1607 118.981 99.2579 118.835 99.2579Z" fill="#121936"/>
<path d="M108.961 90.3189H95.7789C95.6329 90.3189 95.5356 90.2218 95.5356 90.076C95.5356 89.9303 95.6329 89.8331 95.7789 89.8331H108.961C109.107 89.8331 109.204 89.9303 109.204 90.076C109.204 90.1732 109.107 90.3189 108.961 90.3189Z" fill="#121936"/>
<path d="M120.732 90.3189H113.922C113.776 90.3189 113.679 90.2218 113.679 90.076C113.679 89.9303 113.776 89.8331 113.922 89.8331H120.732C120.878 89.8331 120.976 89.9303 120.976 90.076C120.976 90.1732 120.83 90.3189 120.732 90.3189Z" fill="#FF9797"/>
<path d="M136.152 90.3189H124.77C124.624 90.3189 124.526 90.2218 124.526 90.076C124.526 89.9303 124.624 89.8331 124.77 89.8331H136.152C136.298 89.8331 136.395 89.9303 136.395 90.076C136.395 90.1732 136.298 90.3189 136.152 90.3189Z" fill="#121936"/>
<path d="M108.961 108.779H95.7789C95.6329 108.779 95.5356 108.682 95.5356 108.536C95.5356 108.391 95.6329 108.293 95.7789 108.293H108.961C109.107 108.293 109.204 108.391 109.204 108.536C109.204 108.682 109.107 108.779 108.961 108.779Z" fill="#121936"/>
<path d="M115.187 108.779H111.928C111.782 108.779 111.685 108.682 111.685 108.536C111.685 108.391 111.782 108.293 111.928 108.293H115.187C115.333 108.293 115.43 108.391 115.43 108.536C115.43 108.682 115.333 108.779 115.187 108.779Z" fill="#121936"/>
<path d="M104.826 114.852H93.9791C93.8331 114.852 93.7358 114.754 93.7358 114.609C93.7358 114.463 93.8331 114.366 93.9791 114.366H104.826C104.972 114.366 105.069 114.463 105.069 114.609C105.069 114.754 104.972 114.852 104.826 114.852Z" fill="#121936"/>
<path d="M130.266 96.5372C127.785 97.946 125.207 99.0633 122.435 99.8406C122.24 99.8892 122.143 100.035 122.143 100.229V104.456C122.143 113.006 129.536 116.552 130.753 116.552C131.969 116.552 139.362 113.006 139.362 104.456V100.278C139.362 100.035 139.216 99.8892 139.022 99.792C136.395 99.0633 133.72 97.8974 131.239 96.5372C130.898 96.3428 130.558 96.3428 130.266 96.5372Z" fill="#FCCE66"/>
<path d="M103.172 47.8122L110.712 49.8039C112.074 50.144 113.144 51.1642 113.582 52.4758L116.257 60.2C116.792 61.7545 115.917 63.4548 114.311 63.892L112.658 64.3778L112.512 58.9855L112.755 66.6611C112.804 67.5355 111.977 68.167 111.15 67.9241C110.42 67.6812 109.836 67.0983 109.642 66.3696L107.55 58.5483L108.766 67.6812C108.864 68.3128 108.134 68.75 107.599 68.3614C105.556 66.904 104.097 64.7665 103.464 62.3375L103.026 58.4997C103.026 58.4997 91.4496 58.5483 91.2551 58.111C91.1091 57.7224 91.0119 57.3338 91.0119 56.8966C90.8173 53.5446 91.9847 47.1806 103.172 47.8122Z" fill="#FFB27D"/>
<path d="M113.193 64.1837C113.29 64.1351 113.387 63.9894 113.339 63.8922L112.949 58.3055C112.949 58.1112 112.755 57.9655 112.609 58.0141C112.414 58.0141 112.268 58.2084 112.317 58.3541L112.706 63.9408C112.706 64.1351 112.901 64.2808 113.047 64.2323C113.095 64.2323 113.144 64.2323 113.193 64.1837Z" fill="#BB432A"/>
<path d="M108.572 58.9369C108.717 58.8883 108.766 58.7426 108.717 58.5968C108.669 58.4025 108.523 58.3054 108.328 58.3539C108.328 58.3539 107.647 58.4997 106.918 58.694C106.723 58.7426 106.626 58.9369 106.675 59.0826C106.723 59.2769 106.918 59.3741 107.064 59.3255C107.793 59.1312 108.474 59.034 108.474 59.034C108.523 58.9369 108.523 58.9369 108.572 58.9369Z" fill="#BB432A"/>
<path d="M113.339 58.257C113.485 58.2084 113.533 58.0626 113.485 57.9169C113.436 57.7226 113.29 57.6254 113.095 57.674C113.095 57.674 112.414 57.8197 111.685 58.0141C111.49 58.0626 111.393 58.257 111.442 58.4027C111.49 58.597 111.685 58.6942 111.831 58.6456C112.56 58.4513 113.241 58.3541 113.241 58.3541C113.29 58.257 113.29 58.257 113.339 58.257Z" fill="#BB432A"/>
<path d="M103.318 60.006C103.464 59.9088 103.513 59.7631 103.464 59.6174C103.318 59.1316 103.318 58.4029 103.318 58.4029C103.318 58.2085 103.172 58.0628 102.978 58.0628C102.783 58.0628 102.637 58.2085 102.637 58.4029C102.637 58.4514 102.637 59.2287 102.783 59.8117C102.832 60.006 103.026 60.1031 103.172 60.0546C103.27 60.0546 103.27 60.0546 103.318 60.006Z" fill="#BB432A"/>
<path d="M79.2404 84.5872L77.1488 85.996C76.6137 86.3846 76.5165 87.1133 76.8569 87.6477L78.3649 89.8338C78.754 90.3682 79.4836 90.5625 80.0187 90.1738L82.1103 88.765C82.6454 88.3764 82.7427 87.6477 82.4022 87.1133L80.8943 84.9272C80.5051 84.3929 79.7755 84.2471 79.2404 84.5872Z" fill="#353148"/>
<path d="M81.611 85.9276L77.6034 88.6811L93.0153 111.055L97.0229 108.301L81.611 85.9276Z" fill="#790013"/>
<path d="M96.9461 108.343L93.0061 111.015C93.0061 111.015 92.9088 111.063 93.0061 111.063L98.3568 114.561L96.9461 108.343C96.9948 108.343 96.9948 108.343 96.9461 108.343Z" fill="#D96448"/>
<path d="M97.8705 112.375L96.4599 113.347C96.4599 113.347 96.4112 113.347 96.4599 113.347L98.3569 114.61L97.8705 112.375Z" fill="#353148"/>
<path d="M65.1827 98.821L72.09 94.4974C74.2789 93.1372 76.8082 92.4085 79.4349 92.4085L87.8014 92.4571C89.0175 92.4571 90.1849 92.7972 91.2064 93.4773L94.9518 95.9062C95.5355 96.2949 95.8274 97.0236 95.7301 97.7037L95.6328 98.1409L95.9247 98.3352C96.7029 98.821 97.1407 99.6955 97.0434 100.618L96.8489 102.222L97.0434 102.902C97.3353 103.825 97.0434 104.796 96.3624 105.428L89.5039 111.646C89.0661 112.035 88.4338 111.986 88.0933 111.5C87.2177 110.383 87.315 108.828 88.3365 107.857L90.4767 105.719L83.7155 108.78C82.5967 109.266 81.3806 109.509 80.1646 109.46L76.2245 109.266L70.7766 114.512L65.1827 98.821Z" fill="#FFB27D"/>
<path d="M95.4869 98.5781C95.4383 98.5781 95.4383 98.5781 95.3896 98.5781L90.8172 96.5864C90.6713 96.5378 90.6227 96.392 90.6713 96.2463C90.72 96.1005 90.8659 96.052 91.0118 96.1006L95.5842 98.0923C95.7301 98.1409 95.7788 98.2866 95.7301 98.4324C95.6815 98.5295 95.5842 98.5781 95.4869 98.5781Z" fill="#BB432A"/>
<path d="M96.6543 102.464C96.6056 102.464 96.6056 102.464 96.557 102.464L90.8658 100.375C90.7199 100.327 90.6713 100.181 90.7199 100.084C90.7685 99.9381 90.9145 99.8896 91.0118 99.9381L96.7029 102.027C96.8488 102.076 96.8975 102.221 96.8488 102.319C96.8488 102.416 96.7515 102.464 96.6543 102.464Z" fill="#BB432A"/>
<path d="M90.4279 106.059C90.3793 106.059 90.282 106.011 90.2334 105.962C90.1361 105.865 90.1361 105.719 90.2334 105.622L91.5467 104.408C91.644 104.311 91.7899 104.311 91.8872 104.408C91.9845 104.505 91.9845 104.651 91.8872 104.748L90.5739 105.962C90.5739 106.011 90.4766 106.059 90.4279 106.059Z" fill="#BB432A"/>
<path d="M73.3059 115.436L70.2901 116.601C69.6578 116.844 68.9768 116.504 68.7336 115.921L62.3128 98.967C62.0696 98.3355 62.4101 97.6553 62.9938 97.4124L66.0096 96.2465C66.642 96.0036 67.323 96.3437 67.5662 96.9266L73.9869 113.881C74.2301 114.512 73.9383 115.193 73.3059 115.436Z" fill="#F2F0EB"/>
<path d="M16.2973 96.4892L38.8673 102.61L62.9938 96.2463C63.6262 96.1006 64.3072 96.4406 64.5504 97.0236L72.0413 116.747C72.4304 117.719 71.8467 118.787 70.8739 119.03C66.3015 120.293 57.4 122.965 48.0606 125.491C43.5856 126.706 39.0132 127.969 34.7813 128.989C32.3006 129.621 29.8198 129.572 27.5336 129.038C21.2101 127.58 16.1513 122.139 15.6163 115.144C15.4217 112.909 15.3244 110.869 15.2758 109.363C15.1785 105.088 15.373 100.327 15.2758 96.052" fill="#FF9797"/>
<path d="M36.1432 102.659C35.9973 102.659 35.9 102.562 35.9 102.416L34.684 88.5221C34.684 88.3764 34.7812 88.2792 34.9272 88.2792C35.0731 88.2792 35.1704 88.3764 35.1704 88.5221L36.3864 102.416C36.3864 102.562 36.2892 102.659 36.1432 102.659Z" fill="#353148"/>
<path d="M31.3763 104.408C31.279 104.408 31.1817 104.359 31.1331 104.213C31.0844 104.068 31.1817 103.971 31.279 103.922L44.4124 100.23C44.5583 100.181 44.6556 100.278 44.7043 100.376C44.7529 100.521 44.6556 100.619 44.5583 100.667L31.4249 104.359C31.3763 104.408 31.3763 104.408 31.3763 104.408Z" fill="#353148"/>
<path d="M31.6681 130.058C30.2089 130.058 28.701 129.766 27.339 129.232C27.193 129.183 27.1444 129.038 27.193 128.892C27.2417 128.746 27.3876 128.697 27.4849 128.746C29.6738 129.621 32.1546 129.766 34.4407 129.183L48.0119 125.637C48.1579 125.588 48.2551 125.686 48.3038 125.831C48.3524 125.977 48.2551 126.074 48.1092 126.123L34.538 129.669C33.6625 129.961 32.6896 130.058 31.6681 130.058Z" fill="#353148"/>
<path d="M66.7392 116.504C67.3302 116.504 67.8093 116.025 67.8093 115.435C67.8093 114.845 67.3302 114.366 66.7392 114.366C66.1482 114.366 65.6691 114.845 65.6691 115.435C65.6691 116.025 66.1482 116.504 66.7392 116.504Z" fill="#F2F0EB"/>
<path d="M70.8738 119.322C70.7765 119.322 70.6792 119.225 70.6306 119.127C70.5819 118.982 70.6792 118.884 70.8251 118.836C71.3116 118.739 71.7493 118.399 71.9439 117.961C72.1871 117.524 72.1871 116.99 71.9925 116.504C71.9439 116.358 71.9926 116.261 72.1385 116.164C72.2844 116.115 72.3817 116.164 72.479 116.31C72.7222 116.893 72.7222 117.573 72.4303 118.156C72.1385 118.739 71.6034 119.176 70.9711 119.322C70.9224 119.322 70.8738 119.322 70.8738 119.322Z" fill="#353148"/>
<path d="M123.164 29.0605C121.316 38.0963 112.463 43.9259 103.416 42.0799C100.74 41.5455 98.3081 40.331 96.3138 38.7279L90.6226 40.8168L92.6169 34.55C90.428 31.0523 89.5525 26.7287 90.428 22.3565C92.2765 13.3207 101.129 7.49114 110.177 9.33717C119.224 11.1832 125.013 20.0247 123.164 29.0605Z" fill="#B59091"/>
<path d="M126.034 40.4283H140.676C143.74 40.4283 146.221 42.9058 146.221 45.9664V47.2294C146.221 50.29 143.74 52.7675 140.676 52.7675H126.034C122.97 52.7675 120.489 50.29 120.489 47.2294V46.0149C120.44 42.9544 122.97 40.4283 126.034 40.4283Z" fill="#FF9797"/>
<path d="M140.189 47.8124C139.362 47.8124 138.681 47.1323 138.681 46.3064C138.681 45.4806 139.362 44.8005 140.189 44.8005C141.016 44.8005 141.697 45.4806 141.697 46.3064C141.697 47.1323 141.016 47.8124 140.189 47.8124ZM140.189 45.2863C139.605 45.2863 139.168 45.7235 139.168 46.3064C139.168 46.8894 139.605 47.3266 140.189 47.3266C140.773 47.3266 141.211 46.8894 141.211 46.3064C141.211 45.7721 140.773 45.2863 140.189 45.2863Z" fill="white"/>
<path d="M133.331 47.8124C132.504 47.8124 131.823 47.1323 131.823 46.3064C131.823 45.4806 132.504 44.8005 133.331 44.8005C134.158 44.8005 134.839 45.4806 134.839 46.3064C134.839 47.1323 134.158 47.8124 133.331 47.8124ZM133.331 45.2863C132.747 45.2863 132.309 45.7235 132.309 46.3064C132.309 46.8894 132.747 47.3266 133.331 47.3266C133.914 47.3266 134.352 46.8894 134.352 46.3064C134.352 45.7721 133.914 45.2863 133.331 45.2863Z" fill="white"/>
<path d="M126.521 47.8124C125.694 47.8124 125.013 47.1323 125.013 46.3064C125.013 45.4806 125.694 44.8005 126.521 44.8005C127.348 44.8005 128.029 45.4806 128.029 46.3064C127.98 47.1323 127.348 47.8124 126.521 47.8124ZM126.521 45.2863C125.937 45.2863 125.499 45.7235 125.499 46.3064C125.499 46.8894 125.937 47.3266 126.521 47.3266C127.104 47.3266 127.542 46.8894 127.542 46.3064C127.493 45.7721 127.056 45.2863 126.521 45.2863Z" fill="white"/>
<path d="M142.135 30.7122C140.724 34.0642 136.833 35.6673 133.428 34.21C132.406 33.7727 131.579 33.1412 130.898 32.3639L128.515 32.704L129.78 30.4207C129.196 28.8662 129.196 27.1173 129.877 25.5142C131.287 22.1622 135.179 20.5591 138.584 22.0165C141.94 23.4738 143.545 27.3602 142.135 30.7122Z" fill="#CC9999"/>
<path d="M139.216 25.9514H132.893C132.747 25.9514 132.649 25.8543 132.649 25.7085C132.649 25.5628 132.747 25.4656 132.893 25.4656H139.216C139.362 25.4656 139.459 25.5628 139.459 25.7085C139.459 25.8543 139.362 25.9514 139.216 25.9514Z" fill="white"/>
<path d="M139.216 28.0888H132.893C132.747 28.0888 132.649 27.9916 132.649 27.8459C132.649 27.7001 132.747 27.603 132.893 27.603H139.216C139.362 27.603 139.459 27.7001 139.459 27.8459C139.459 27.943 139.362 28.0888 139.216 28.0888Z" fill="white"/>
<path d="M139.216 30.3724H132.893C132.747 30.3724 132.649 30.2752 132.649 30.1295C132.649 29.9838 132.747 29.8866 132.893 29.8866H139.216C139.362 29.8866 139.459 29.9838 139.459 30.1295C139.459 30.2752 139.362 30.3724 139.216 30.3724Z" fill="white"/>
</svg>
