<svg width="24" height="24" viewBox="0 0 24 24" fill="none" xmlns="http://www.w3.org/2000/svg">
<path d="M0.500061 12C0.500061 5.65917 5.65958 0.5 12.0001 0.5C18.3405 0.5 23.5001 5.65917 23.5001 12C23.5001 18.3408 18.3405 23.5 12.0001 23.5C5.65958 23.5 0.500061 18.3408 0.500061 12Z" stroke="#7A1A2B"/>
<path d="M10.8117 6.37141H12.9877L12.7637 14.2114H11.0357L10.8117 6.37141ZM11.8997 17.7314C11.505 17.7314 11.1797 17.6141 10.9237 17.3794C10.6677 17.1341 10.5397 16.8247 10.5397 16.4514C10.5397 16.0674 10.6623 15.7581 10.9077 15.5234C11.1637 15.2781 11.4943 15.1554 11.8997 15.1554C12.305 15.1554 12.6303 15.2781 12.8757 15.5234C13.1317 15.7581 13.2597 16.0674 13.2597 16.4514C13.2597 16.8247 13.1317 17.1341 12.8757 17.3794C12.6197 17.6141 12.2943 17.7314 11.8997 17.7314Z" fill="#7A1A2B"/>
</svg>
