<svg width="186" height="104" viewBox="0 0 186 104" fill="none" xmlns="http://www.w3.org/2000/svg">
<path fill-rule="evenodd" clip-rule="evenodd" d="M0 0H186V65.7263L93.1945 85.1228L0 64.8264V0ZM5.07734 5.00802V60.8035L93.2166 79.9989L180.923 61.6683V5.00802H5.07734Z" fill="white"/>
<path fill-rule="evenodd" clip-rule="evenodd" d="M32.229 14.3563C31.8905 16.1449 31.5762 17.8619 31.2619 19.579C29.6178 19.579 28.0221 19.5551 26.4505 19.6028C25.6043 19.6267 24.7581 19.6982 23.9119 19.8413C22.7271 20.0559 21.9534 20.8429 21.9293 21.9638C21.8326 24.4916 21.8084 26.9956 21.9293 29.5235C22.0018 30.859 22.9931 31.7175 24.3954 31.8129C26.0637 31.9321 27.7561 31.9321 29.4486 31.956C30.4157 31.9798 31.3828 31.956 32.4224 31.956C32.1081 33.6968 31.7938 35.4139 31.4553 37.1309C28.1913 37.1309 24.9757 37.3932 21.7842 36.8686C18.0608 36.2486 15.9815 34.1976 15.4496 30.3343C15.0386 27.258 14.9902 24.1339 15.5221 21.0575C16.175 17.2658 18.1817 15.2387 22.0502 14.6902C24.202 14.3802 26.4022 14.4517 28.554 14.3563C29.7387 14.3325 30.9476 14.3563 32.229 14.3563Z" fill="white"/>
<path fill-rule="evenodd" clip-rule="evenodd" d="M67.8911 40.7558C67.867 40.9704 67.8428 41.2089 67.8428 41.4235C67.8428 46.8131 67.8428 52.2027 67.8428 57.5685C67.8428 57.7831 67.867 57.9977 67.867 58.2839H78.2876C77.9491 60.0725 77.6106 61.7657 77.2721 63.4827H61.5324V40.7558H67.8911Z" fill="white"/>
<path d="M102.997 16.8127H96.7112V37.2979H102.997V16.8127Z" fill="white"/>
<path fill-rule="evenodd" clip-rule="evenodd" d="M34.9852 16.8365H52.3207C52.0064 18.3151 51.6921 19.7698 51.402 21.2484H41.0781V24.7301H51.1602C50.8943 25.9702 50.5799 27.1626 50.4107 28.355C50.314 29.0704 49.9755 29.1897 49.2502 29.1658C46.784 29.1181 44.3179 29.142 41.8276 29.142H41.0539V32.8622H52.5142C52.224 34.2931 51.9339 35.6524 51.6438 37.0117C51.6196 37.131 51.4262 37.2263 51.2811 37.274C51.136 37.3217 50.9668 37.274 50.8217 37.274H35.7106H34.9852V16.8365Z" fill="white"/>
<path fill-rule="evenodd" clip-rule="evenodd" d="M65.1351 24.587C66.1747 22.6792 69.5354 16.8127 69.5354 16.8127C69.5354 16.8127 71.2521 16.8365 72.1467 16.8127C73.4764 16.8127 74.782 16.8127 76.2085 16.8127C75.8217 17.4327 75.4832 17.9573 75.1205 18.482C72.8962 21.8684 70.6718 25.2548 68.4716 28.6411C68.3024 28.9273 68.2057 29.2612 68.1815 29.595C68.1573 32.1229 68.1573 34.6746 68.1573 37.2502H61.8953V36.6063C61.8953 34.293 61.8953 31.9798 61.8711 29.6666C61.8711 29.3566 61.7502 28.9989 61.5809 28.7127C59.1632 24.9924 56.697 21.296 54.2551 17.5758C54.11 17.3612 53.9649 17.1465 53.7715 16.8127H55.2705C56.8663 16.8127 60.2753 16.8365 60.3962 16.8365H60.7589C60.7589 16.8365 60.9281 17.1465 61.0249 17.3373C62.2579 19.579 63.5394 21.8207 64.7966 24.0624C64.9175 24.2055 65.0142 24.3485 65.1351 24.587Z" fill="white"/>
<path fill-rule="evenodd" clip-rule="evenodd" d="M94.8253 32.576C94.4627 34.1977 94.1242 35.7239 93.7857 37.2502H78.0943V16.8365H84.3322V32.5522H94.8253V32.576Z" fill="white"/>
<path fill-rule="evenodd" clip-rule="evenodd" d="M106.165 16.8127C107.736 16.8127 111.17 16.8365 111.17 16.8365C111.17 16.8365 111.387 17.1465 111.484 17.2419C114.313 20.7714 117.141 24.277 119.946 27.8065C120.091 27.9734 120.236 28.1403 120.478 28.4504V16.8365H126.426V37.274C125.362 37.274 121.469 37.274 121.469 37.274C121.469 37.274 115.111 29.5712 112.548 26.3756C112.427 26.2325 112.306 26.1133 112.088 25.8748V37.2502H106.141V16.8127H106.165Z" fill="white"/>
<path fill-rule="evenodd" clip-rule="evenodd" d="M145.454 21.4868C143.665 21.4868 141.924 21.4629 140.207 21.4868C139.506 21.5106 138.781 21.5822 138.079 21.7014C136.895 21.9161 136.145 22.6315 136.097 23.6331C136 25.8986 135.976 28.1642 136.097 30.4297C136.169 31.6459 137.161 32.3614 138.587 32.4806C139.772 32.576 140.957 32.576 142.141 32.5999C143.592 32.6237 145.067 32.5999 146.59 32.5999C146.276 34.1738 145.961 35.6762 145.623 37.2979C143.665 37.2979 141.706 37.3694 139.772 37.274C138.104 37.2025 136.411 37.0832 134.791 36.7255C131.938 36.1055 130.27 34.3407 129.786 31.8129C129.182 28.498 129.085 25.1355 129.932 21.8207C130.608 19.1736 132.688 17.7427 135.589 17.1465C137.572 16.7172 139.603 16.7649 141.609 16.7649C143.205 16.7649 144.801 16.7649 146.421 16.7649C146.082 18.3866 145.768 19.9128 145.454 21.4868Z" fill="white"/>
<path fill-rule="evenodd" clip-rule="evenodd" d="M169.656 22.4169C169.22 19.3644 167.117 17.3373 163.732 16.6696C162.547 16.4311 161.314 16.3357 160.081 16.1926H158.195C157.397 16.288 156.6 16.3357 155.802 16.4311C151.837 16.9319 149.201 18.6012 148.597 22.4169C148.113 25.4217 148.089 28.4504 148.548 31.4313C149.153 35.1993 151.208 36.9163 155.439 37.5364C157.905 37.8941 160.347 37.8464 162.813 37.5364C166.658 37.0594 169.148 34.9131 169.631 31.5506C170.091 28.4981 170.091 25.4694 169.656 22.4169ZM163.2 30.7159C162.934 32.3614 162.257 32.9337 160.395 33.0768C159.404 33.1484 158.365 33.1007 157.373 32.9814C155.923 32.8145 155.076 32.0275 154.98 30.7159C154.859 29.4281 154.835 28.1403 154.835 26.8287C154.835 25.5648 154.883 24.277 155.052 23.0131C155.197 21.8445 156.092 21.1291 157.373 21.0337C158.582 20.9383 159.839 20.9622 161.048 21.1053C162.33 21.2483 163.031 21.9638 163.152 23.1085C163.297 24.4201 163.345 25.7317 163.418 26.948C163.369 28.2834 163.394 29.4997 163.2 30.7159Z" fill="white"/>
<path fill-rule="evenodd" clip-rule="evenodd" d="M126.909 43.0213C126.595 44.476 126.281 45.9546 125.942 47.4332H115.642V50.9149H125.725C125.459 52.1789 124.782 55.3506 124.782 55.3506C124.782 55.3506 124.274 55.3506 123.815 55.3506C121.107 55.3506 118.375 55.3268 115.618 55.3268V59.047H127.054C126.764 60.5017 126.087 63.4827 126.087 63.4827C126.087 63.4827 116.489 63.4827 112.016 63.4827H109.501V42.9975H126.909V43.0213Z" fill="white"/>
<path fill-rule="evenodd" clip-rule="evenodd" d="M107.132 43.0213C106.866 44.4999 106.576 46.0023 106.31 47.5286H96.5419V51.5111H105.729C105.415 52.9897 105.125 54.3729 104.835 55.8514H96.5419V63.4827H90.4491V43.0452H107.132V43.0213Z" fill="white"/>
<path fill-rule="evenodd" clip-rule="evenodd" d="M87.161 43.0213C87.161 49.5795 87.161 56.1614 87.161 62.7196C87.161 62.958 87.161 63.1965 87.161 63.4588H80.8264V43.0213H87.161Z" fill="white"/>
<path fill-rule="evenodd" clip-rule="evenodd" d="M132.881 43.0929C133.486 43.0929 133.945 43.1406 134.235 43.2598C134.743 43.4745 135.009 43.8799 135.009 44.4999C135.009 44.9292 134.84 45.263 134.525 45.4777C134.356 45.5731 134.114 45.6684 133.8 45.7161C134.187 45.7877 134.477 45.9308 134.646 46.1931C134.815 46.4554 134.912 46.6939 134.912 46.9562V47.3139C134.912 47.4332 134.912 47.5524 134.936 47.6717C134.936 47.7909 134.961 47.8863 134.985 47.934L135.009 48.0055H134.187C134.187 47.9817 134.187 47.9817 134.163 47.9578C134.163 47.934 134.163 47.934 134.139 47.9101L134.114 47.7432V47.3616C134.114 46.7893 133.969 46.4316 133.655 46.2408C133.462 46.1454 133.147 46.0739 132.688 46.0739H132.011V48.0055H131.14V43.1167H132.881V43.0929ZM134.139 44.5715C134.139 44.2137 134.018 43.9753 133.8 43.856C133.582 43.7368 133.22 43.6652 132.736 43.6652H131.987V45.43H132.785C133.147 45.43 133.437 45.3823 133.607 45.3107C133.969 45.2153 134.139 44.953 134.139 44.5715ZM137.475 45.5492C137.475 46.7893 137.04 47.8386 136.145 48.6971C135.275 49.5795 134.211 50.0087 132.954 50.0087C131.697 50.0087 130.633 49.5795 129.762 48.6971C128.892 47.8386 128.457 46.7654 128.457 45.5492C128.457 44.3091 128.892 43.2837 129.786 42.4013C130.657 41.5428 131.721 41.0897 132.978 41.0897C134.235 41.0897 135.299 41.5189 136.169 42.4013C137.04 43.2598 137.475 44.3091 137.475 45.5492ZM132.978 41.7097C131.914 41.7097 130.995 42.0913 130.246 42.8306C129.496 43.5698 129.11 44.4761 129.11 45.5492C129.11 46.6223 129.472 47.5286 130.246 48.2678C130.995 49.0071 131.914 49.3887 133.002 49.3887C134.066 49.3887 134.985 49.0071 135.758 48.2678C136.508 47.5047 136.895 46.5985 136.895 45.5492C136.895 44.4999 136.508 43.5937 135.758 42.8306C134.961 42.0913 134.042 41.7097 132.978 41.7097Z" fill="white"/>
<path d="M32.4466 101.329L29.3277 91.8615H27.6836L24.5405 101.329H25.7493L26.7648 98.2289H30.1981L31.1894 101.329H32.4466ZM29.8354 97.1557H27.1033L28.0221 94.3894C28.0946 94.127 28.1671 93.8886 28.2397 93.6263C28.288 93.3639 28.3605 93.1254 28.4089 92.8393H28.5298C28.5781 93.1254 28.6265 93.3878 28.699 93.6263C28.7716 93.8886 28.8199 94.127 28.9166 94.3894L29.8354 97.1557ZM43.4717 101.329L41.0781 97.3942C41.4408 97.2749 41.7792 97.108 42.0452 96.8695C42.3112 96.6549 42.5046 96.3687 42.6496 96.011C42.7947 95.6772 42.8672 95.2479 42.8672 94.7471C42.8672 94.2701 42.7947 93.8647 42.6738 93.507C42.5529 93.1731 42.3595 92.887 42.1177 92.6723C41.876 92.4577 41.5858 92.2908 41.2473 92.1715C40.9088 92.0523 40.5462 91.9807 40.1593 91.9331C39.7483 91.8854 39.3373 91.8615 38.9021 91.8615H36.6535V101.329H37.8383V97.6565H38.9504H39.2406C39.3373 97.6565 39.4582 97.6565 39.5549 97.6565C39.6516 97.6565 39.7483 97.6565 39.845 97.6565L42.0935 101.353H43.4717V101.329ZM41.6825 94.7471C41.6825 95.1286 41.6342 95.4387 41.5133 95.6771C41.3924 95.9156 41.2232 96.1064 41.0056 96.2495C40.788 96.3926 40.4978 96.488 40.1593 96.5357C39.8208 96.5834 39.4098 96.6311 38.9263 96.6072H37.7899V92.9108H38.8537C39.3131 92.9108 39.7241 92.9347 40.0626 92.9824C40.4253 93.0301 40.6912 93.1254 40.933 93.2447C41.1748 93.3639 41.344 93.5547 41.4649 93.7932C41.61 94.0555 41.6825 94.3655 41.6825 94.7471ZM50.6041 98.2527V97.7519C50.6041 96.9649 50.5074 96.321 50.2898 95.7725C50.0722 95.2479 49.7337 94.8425 49.2744 94.5563C48.815 94.294 48.2589 94.1509 47.5577 94.1509C46.8808 94.1509 46.3247 94.294 45.8895 94.5563C45.4301 94.8186 45.1158 95.224 44.8982 95.7248C44.6806 96.2495 44.5597 96.8695 44.5597 97.585V98.1335C44.5597 98.7058 44.608 99.1828 44.7048 99.612C44.8015 100.041 44.9949 100.375 45.2367 100.661C45.4784 100.948 45.8169 101.162 46.228 101.281C46.639 101.424 47.1709 101.496 47.7995 101.496C48.1864 101.496 48.549 101.472 48.8633 101.448C49.1777 101.424 49.4678 101.377 49.7096 101.329C49.9513 101.281 50.1689 101.234 50.314 101.21V100.304C50.1448 100.327 49.9513 100.351 49.7579 100.399C49.5403 100.423 49.3469 100.447 49.1293 100.471C48.9117 100.494 48.6941 100.518 48.4765 100.518C48.2589 100.518 48.0413 100.542 47.8479 100.542C47.461 100.542 47.1225 100.494 46.8808 100.423C46.6148 100.351 46.4214 100.256 46.2521 100.137C46.1071 99.9936 45.9862 99.8505 45.9137 99.6836C45.8411 99.4928 45.7928 99.302 45.7686 99.0874C45.7444 98.8727 45.7202 98.6343 45.7202 98.3958V98.2527H50.6041ZM49.3953 97.2988H45.7202V97.1796C45.7202 97.0126 45.7444 96.8218 45.7686 96.6311C45.7928 96.4403 45.8411 96.2733 45.9137 96.0826C45.9862 95.9156 46.0829 95.7487 46.228 95.6056C46.373 95.4625 46.5423 95.3433 46.7599 95.2717C46.9775 95.1763 47.2434 95.1525 47.5819 95.1287C47.9204 95.1287 48.1864 95.1763 48.404 95.2717C48.6216 95.3433 48.7908 95.4864 48.9359 95.6056C49.0568 95.7487 49.1777 95.9156 49.2502 96.0826C49.3227 96.2495 49.3711 96.4403 49.3953 96.6311C49.4194 96.8218 49.4194 96.9888 49.4194 97.1796V97.2988H49.3953ZM53.6989 91.48H52.5384V101.329H53.6989V91.48ZM61.0731 101.329V96.6072C61.0731 96.2972 61.049 96.011 61.0248 95.7487C60.9764 95.4864 60.9039 95.2717 60.8072 95.0571C60.6863 94.8663 60.5412 94.6994 60.3236 94.5802C60.1302 94.4371 59.8643 94.3417 59.5258 94.2701C59.2115 94.1986 58.8004 94.1747 58.3411 94.1747C58.0751 94.1747 57.785 94.1747 57.5432 94.1986C57.3014 94.2224 57.0596 94.2463 56.8662 94.294C56.6728 94.3417 56.4794 94.3655 56.3585 94.3894C56.2134 94.4371 56.1167 94.4609 56.0683 94.4848V95.2956C56.3343 95.2717 56.5761 95.2479 56.8179 95.224C57.0596 95.2002 57.2772 95.1764 57.519 95.1764C57.7608 95.1525 58.0026 95.1525 58.2685 95.1525C58.6312 95.1525 58.8971 95.1763 59.1389 95.2002C59.3565 95.2479 59.5258 95.3194 59.6467 95.4148C59.7675 95.5341 59.8401 95.6771 59.8884 95.8679C59.9368 96.0587 59.961 96.2972 59.961 96.6072V97.108H58.8971C58.4136 97.108 57.9542 97.1319 57.5432 97.1796C57.1322 97.2272 56.7937 97.3465 56.5277 97.4896C56.2376 97.6327 56.02 97.8473 55.8749 98.1573C55.7298 98.4435 55.6573 98.8012 55.6573 99.2781V99.5405C55.6573 99.9936 55.754 100.399 55.8991 100.685C56.0683 100.971 56.3101 101.186 56.6244 101.329C56.9387 101.472 57.3256 101.544 57.7608 101.544C58.0993 101.544 58.4378 101.496 58.7279 101.448C59.018 101.377 59.2598 101.305 59.4774 101.21C59.695 101.114 59.8643 101.019 60.0093 100.924V101.401H61.0731V101.329ZM59.9126 100.041C59.8159 100.113 59.6708 100.184 59.4532 100.28C59.2598 100.375 59.018 100.447 58.7521 100.518C58.4861 100.566 58.2202 100.614 57.93 100.614C57.6882 100.614 57.4948 100.59 57.3256 100.518C57.1563 100.471 57.0113 100.351 56.9146 100.208C56.8179 100.065 56.7695 99.8505 56.7695 99.612V99.2543C56.7695 98.9681 56.8178 98.7535 56.8904 98.5866C56.9629 98.4196 57.0838 98.2765 57.253 98.1812C57.4223 98.0858 57.6399 98.0381 57.9059 97.9904C58.1718 97.9665 58.4861 97.9427 58.873 97.9427H59.9368V100.041H59.9126ZM66.7791 101.305V100.518C66.7066 100.518 66.5857 100.542 66.4648 100.542C66.3439 100.566 66.1747 100.566 66.0296 100.566C65.8845 100.566 65.7395 100.566 65.5944 100.566C65.3768 100.566 65.2317 100.542 65.1108 100.494C65.0141 100.447 64.9416 100.351 64.9174 100.232C64.8932 100.089 64.8691 99.8982 64.8691 99.6359V95.2479H66.7549V94.294H64.8691V92.4815H63.7085V94.294H62.282V95.1525L63.7085 95.2479V99.7313C63.7085 100.161 63.7569 100.518 63.8778 100.781C63.9987 101.043 64.1679 101.234 64.4339 101.353C64.6998 101.472 65.0383 101.52 65.4735 101.52C65.6669 101.52 65.8362 101.496 66.0054 101.472C66.1747 101.448 66.3439 101.424 66.4648 101.401C66.6099 101.353 66.7066 101.329 66.7791 101.305ZM69.5837 94.3178H68.4232V101.305H69.5837V94.3178ZM69.5837 91.48H68.399V93.0301H69.5837V91.48ZM77.5866 98.3242V97.2988C77.5866 96.6072 77.4657 96.0349 77.2481 95.5818C77.0305 95.1048 76.692 94.7471 76.2326 94.5086C75.7733 94.2701 75.2172 94.1509 74.5644 94.1509C73.9116 94.1509 73.3555 94.2701 72.8961 94.5086C72.4609 94.7471 72.0982 95.1048 71.8806 95.5818C71.663 96.0587 71.5421 96.6311 71.5421 97.2988V98.3242C71.5421 98.992 71.663 99.5643 71.8806 100.041C72.0982 100.518 72.4367 100.876 72.8961 101.114C73.3555 101.353 73.9116 101.472 74.5644 101.496C75.2414 101.496 75.7974 101.377 76.2326 101.114C76.692 100.876 77.0305 100.518 77.2481 100.041C77.4657 99.5882 77.5866 99.0158 77.5866 98.3242ZM76.4019 98.3242C76.4019 98.825 76.3294 99.2305 76.2085 99.5643C76.0876 99.8743 75.87 100.113 75.604 100.256C75.3381 100.399 74.9754 100.494 74.5402 100.471C74.105 100.471 73.7665 100.399 73.4764 100.256C73.2104 100.113 72.9928 99.8743 72.8719 99.5643C72.751 99.2543 72.6785 98.825 72.6785 98.3242V97.2988C72.6785 96.798 72.751 96.3926 72.8719 96.0587C73.017 95.7487 73.2104 95.5102 73.4764 95.3671C73.7423 95.224 74.105 95.1525 74.516 95.1525C74.9512 95.1525 75.3139 95.224 75.5798 95.3671C75.8458 95.5102 76.0634 95.7487 76.1843 96.0587C76.3052 96.3926 76.3777 96.798 76.3777 97.2988V98.3242H76.4019ZM85.1784 101.329V96.8695C85.1784 96.4403 85.1543 96.0587 85.1059 95.7248C85.0576 95.391 84.9367 95.1048 84.7916 94.8663C84.6465 94.6278 84.4048 94.4609 84.1146 94.3417C83.8245 94.2224 83.4376 94.1509 82.9783 94.1509C82.7123 94.1509 82.4463 94.1747 82.2046 94.2463C81.9386 94.294 81.6968 94.3894 81.4309 94.5086C81.1649 94.6278 80.899 94.7471 80.633 94.8902V94.3417H79.4967V101.329H80.633V95.7487C81.1166 95.5341 81.5276 95.391 81.8903 95.2956C82.2529 95.1764 82.5914 95.1287 82.8574 95.1287C83.1717 95.1287 83.4376 95.1764 83.6069 95.2956C83.7761 95.4148 83.897 95.6056 83.9695 95.8441C84.0421 96.1064 84.0663 96.4403 84.0663 96.8457V101.305H85.1784V101.329ZM92.0208 99.5643C92.0208 99.302 91.9966 99.0635 91.9241 98.8489C91.8515 98.6581 91.7306 98.4673 91.5856 98.3004C91.4163 98.1335 91.1987 97.9665 90.9328 97.7996C90.6668 97.6565 90.3041 97.4896 89.8931 97.2988L89.3612 97.0842C89.0227 96.9411 88.7809 96.8218 88.5875 96.7026C88.3941 96.5834 88.2732 96.4641 88.2248 96.3449C88.1523 96.2018 88.1281 96.0587 88.1281 95.8918C88.1281 95.6772 88.1765 95.5102 88.2732 95.4148C88.3699 95.2956 88.5392 95.224 88.7568 95.2002C88.9743 95.1525 89.2403 95.1525 89.603 95.1525C89.7722 95.1525 89.9656 95.1525 90.2074 95.1764C90.425 95.2002 90.691 95.2002 90.9328 95.224C91.1987 95.2479 91.4405 95.2717 91.7064 95.2956V94.4371C91.6339 94.4132 91.5372 94.3894 91.3921 94.3655C91.2471 94.3417 91.102 94.3178 90.9086 94.294C90.7152 94.2701 90.4976 94.2463 90.28 94.2224C90.0624 94.1986 89.8206 94.1986 89.5788 94.1986C88.9985 94.1986 88.4908 94.2701 88.1281 94.3894C87.7413 94.5086 87.4753 94.6994 87.2819 94.9617C87.0885 95.224 87.016 95.5579 87.016 95.9395C87.016 96.2733 87.0885 96.5595 87.2094 96.8218C87.3544 97.0842 87.5479 97.2988 87.838 97.5134C88.1281 97.7281 88.4908 97.9188 88.9502 98.1096L89.4579 98.3242C89.7722 98.4435 90.014 98.5627 90.1833 98.6581C90.3767 98.7535 90.5217 98.8489 90.6184 98.9443C90.7152 99.0397 90.7877 99.1351 90.8361 99.2543C90.8844 99.3735 90.8844 99.4928 90.8844 99.6597C90.8844 99.8267 90.8602 99.9459 90.8119 100.065C90.7635 100.184 90.691 100.28 90.5701 100.375C90.4492 100.447 90.3041 100.518 90.1107 100.542C89.9173 100.59 89.6755 100.614 89.3612 100.614C89.1436 100.614 88.926 100.614 88.7084 100.59C88.4908 100.566 88.2732 100.566 88.0556 100.542C87.838 100.518 87.6688 100.494 87.4995 100.471C87.3303 100.447 87.1852 100.447 87.0885 100.423V101.305C87.161 101.329 87.2577 101.353 87.4028 101.377C87.572 101.401 87.7413 101.448 87.9589 101.472C88.1765 101.496 88.4183 101.544 88.66 101.544C88.9018 101.568 89.1436 101.568 89.4096 101.568C89.9415 101.568 90.3525 101.52 90.7152 101.401C91.0536 101.305 91.3196 101.162 91.513 100.971C91.7065 100.781 91.8515 100.59 91.9241 100.351C91.9966 100.041 92.0208 99.8028 92.0208 99.5643ZM99.4434 101.329V96.8695C99.4434 95.9633 99.2499 95.2717 98.8873 94.8186C98.5246 94.3655 97.9443 94.1509 97.1706 94.1509C96.8322 94.1509 96.4937 94.1747 96.2035 94.2463C95.9134 94.3178 95.6474 94.3894 95.4057 94.4609C95.188 94.5563 94.9946 94.6279 94.8496 94.6994V91.4561H93.689V101.305H94.8496V95.6056C94.9946 95.5341 95.188 95.4625 95.4057 95.3671C95.6233 95.2956 95.865 95.224 96.131 95.1764C96.3728 95.1287 96.6629 95.1048 96.9289 95.081C97.1706 95.081 97.3882 95.1048 97.5575 95.1764C97.7267 95.224 97.8718 95.3194 97.9685 95.4625C98.0652 95.6056 98.1378 95.7725 98.2103 96.011C98.2586 96.2495 98.2828 96.5357 98.2828 96.8695V101.305H99.4434V101.329ZM102.804 94.3178H101.644V101.305H102.804V94.3178ZM102.828 91.48H101.668V93.0301H102.828V91.48ZM110.783 98.0858V97.3942C110.783 96.6072 110.686 95.9872 110.493 95.5102C110.299 95.0333 110.009 94.6755 109.622 94.4609C109.235 94.2463 108.776 94.127 108.244 94.1509C108.002 94.1509 107.785 94.1747 107.543 94.2224C107.301 94.2701 107.084 94.3417 106.842 94.4371C106.6 94.5325 106.382 94.6517 106.189 94.7948V94.3178H105.077V104H106.237V101.305C106.382 101.353 106.552 101.377 106.745 101.401C106.938 101.424 107.108 101.448 107.301 101.472C107.495 101.496 107.664 101.496 107.833 101.496C108.268 101.496 108.655 101.448 109.018 101.353C109.38 101.258 109.695 101.067 109.961 100.804C110.227 100.566 110.444 100.208 110.589 99.7551C110.71 99.3258 110.783 98.7535 110.783 98.0858ZM109.646 98.0858C109.646 98.6104 109.598 99.0158 109.526 99.3497C109.429 99.6597 109.308 99.922 109.163 100.089C108.994 100.256 108.8 100.375 108.583 100.447C108.365 100.518 108.099 100.542 107.809 100.542C107.567 100.542 107.325 100.518 107.059 100.494C106.793 100.471 106.527 100.423 106.237 100.351V95.6771C106.503 95.5341 106.745 95.4387 106.963 95.3671C107.18 95.2956 107.374 95.2479 107.543 95.2002C107.712 95.1763 107.906 95.1525 108.075 95.1525C108.341 95.1525 108.583 95.1763 108.776 95.2717C108.969 95.3433 109.139 95.4625 109.284 95.6533C109.405 95.8202 109.526 96.0587 109.574 96.3449C109.646 96.6311 109.671 96.9888 109.671 97.418V98.0858H109.646ZM121.01 92.9108V91.8615H115.328V101.329H116.513V96.9411H120.744V95.8918H116.513V92.9108H121.01ZM128.142 98.3242V97.2988C128.142 96.6072 128.022 96.0349 127.804 95.5818C127.562 95.1048 127.248 94.7471 126.788 94.5086C126.329 94.2701 125.773 94.1509 125.12 94.1509C124.467 94.1509 123.911 94.2701 123.452 94.5086C123.017 94.7471 122.678 95.1048 122.436 95.5818C122.219 96.0587 122.098 96.6311 122.098 97.2988V98.3242C122.098 98.992 122.219 99.5643 122.436 100.041C122.654 100.518 122.993 100.876 123.452 101.114C123.911 101.353 124.467 101.472 125.12 101.496C125.797 101.496 126.353 101.377 126.788 101.114C127.248 100.876 127.562 100.518 127.804 100.041C128.022 99.5882 128.142 99.0158 128.142 98.3242ZM126.982 98.3242C126.982 98.825 126.909 99.2305 126.788 99.5643C126.643 99.8743 126.45 100.113 126.184 100.256C125.918 100.399 125.555 100.494 125.12 100.471C124.685 100.471 124.347 100.399 124.056 100.256C123.79 100.113 123.573 99.8743 123.452 99.5643C123.331 99.2543 123.259 98.825 123.259 98.3242V97.2988C123.259 96.798 123.331 96.3926 123.452 96.0587C123.597 95.7487 123.79 95.5102 124.056 95.3671C124.322 95.224 124.685 95.1525 125.096 95.1525C125.531 95.1525 125.894 95.224 126.16 95.3671C126.426 95.5102 126.643 95.7487 126.764 96.0587C126.885 96.3926 126.958 96.798 126.958 97.2988V98.3242H126.982ZM133.679 95.1525V94.127C133.171 94.127 132.712 94.1747 132.277 94.294C131.866 94.4132 131.479 94.604 131.14 94.8663V94.3178H130.004V101.305H131.14V95.7487C131.286 95.6533 131.455 95.5818 131.624 95.5102C131.817 95.4387 132.011 95.3671 132.253 95.3194C132.47 95.2717 132.712 95.224 132.954 95.2002C133.196 95.1763 133.437 95.1525 133.679 95.1525ZM143.278 101.329V100.304H138.902V91.8615H137.717V101.329H143.278ZM146.01 94.3178H144.849V101.305H146.01V94.3178ZM146.01 91.48H144.849V93.0301H146.01V91.48ZM152.03 95.2717V94.3178H150.023V93.4832C150.023 93.2685 150.023 93.0778 150.048 92.9108C150.048 92.7439 150.096 92.6246 150.144 92.5054C150.193 92.41 150.265 92.3146 150.386 92.2669C150.507 92.2192 150.652 92.1954 150.845 92.1954C150.99 92.1954 151.136 92.1954 151.281 92.1954C151.426 92.1954 151.571 92.2192 151.692 92.2192C151.813 92.2192 151.933 92.2431 152.054 92.2431V91.48C151.885 91.4323 151.692 91.3846 151.45 91.3607C151.208 91.3369 150.966 91.313 150.676 91.313C150.265 91.313 149.927 91.3846 149.685 91.5038C149.443 91.623 149.25 91.79 149.129 92.0046C149.008 92.1954 148.935 92.4339 148.887 92.6962C148.839 92.9585 148.839 93.2208 148.839 93.4832V94.3178H147.485V95.1764L148.839 95.2717V101.329H149.999V95.2717H152.03ZM159.042 98.2527V97.7519C159.042 96.9649 158.945 96.321 158.727 95.7725C158.51 95.2479 158.171 94.8425 157.736 94.5563C157.277 94.294 156.721 94.1509 156.019 94.1509C155.342 94.1509 154.786 94.294 154.351 94.5563C153.892 94.8186 153.577 95.224 153.36 95.7248C153.142 96.2495 153.021 96.8695 153.021 97.585V98.1335C153.021 98.7058 153.07 99.1828 153.166 99.612C153.263 100.041 153.457 100.375 153.698 100.661C153.94 100.948 154.279 101.162 154.714 101.281C155.125 101.424 155.657 101.496 156.285 101.496C156.672 101.496 157.035 101.472 157.349 101.448C157.664 101.424 157.954 101.377 158.195 101.329C158.437 101.281 158.655 101.234 158.8 101.21V100.304C158.631 100.327 158.437 100.351 158.244 100.399C158.05 100.423 157.833 100.447 157.615 100.471C157.398 100.494 157.18 100.518 156.962 100.518C156.745 100.518 156.527 100.542 156.334 100.542C155.947 100.542 155.608 100.494 155.367 100.423C155.101 100.351 154.907 100.256 154.738 100.137C154.593 99.9936 154.472 99.8505 154.4 99.6836C154.327 99.4928 154.279 99.302 154.23 99.0874C154.206 98.8727 154.206 98.6343 154.206 98.3958V98.2527H159.042ZM157.857 97.2988H154.182V97.1796C154.182 97.0126 154.182 96.8218 154.23 96.6311C154.254 96.4403 154.303 96.2733 154.375 96.0826C154.448 95.9156 154.545 95.7487 154.69 95.6056C154.835 95.4625 155.004 95.3433 155.222 95.2717C155.439 95.1763 155.705 95.1525 156.044 95.1287C156.382 95.1287 156.648 95.1763 156.866 95.2717C157.083 95.3433 157.277 95.4864 157.398 95.6056C157.518 95.7487 157.639 95.9156 157.688 96.0826C157.76 96.2495 157.809 96.4403 157.833 96.6311C157.857 96.8218 157.857 96.9888 157.857 97.1796V97.2988Z" fill="white"/>
<path fill-rule="evenodd" clip-rule="evenodd" d="M159.598 92.8631V92.2669H162.717V92.8631H161.508V95.8679H160.783V92.8631H159.598ZM164.385 92.2669L165.304 94.8425L166.247 92.2669H167.286V95.8679H166.609V92.9585L165.594 95.8679H165.014L163.998 92.9585V95.8679H163.321V92.2669H164.385Z" fill="white"/>
</svg>
