<svg width="363" height="56" viewBox="0 0 363 56" fill="none" xmlns="http://www.w3.org/2000/svg">
<path d="M215.475 28.1183L181.397 35.7336L147.308 28.1183H24.8167V31.4528L147.308 31.4641L181.397 39.0682L215.475 31.4641L337.877 31.4528V28.1183H215.475Z" fill="white"/>
<path d="M0 0V28.4788L147.599 28.4787L181.397 36.0153L215.475 28.4111V28.3998L363 28.49L362.978 1.77609e-06L0 0Z" fill="#790013"/>
<path d="M215.475 31.1148L181.397 38.719L147.308 31.1148H0V35.4858H147.308V35.4971L181.397 43.1012L215.475 35.4971V35.4858L362.978 35.4971V31.1261L215.475 31.1148Z" fill="#2E2A25"/>
<path fill-rule="evenodd" clip-rule="evenodd" d="M114.819 5.90297C114.584 7.15343 114.372 8.34755 114.159 9.55295C113.03 9.55295 111.946 9.53041 110.85 9.56421C110.268 9.57547 109.687 9.6318 109.117 9.73319C108.312 9.87964 107.775 10.4316 107.741 11.2202C107.674 12.9776 107.663 14.7575 107.741 16.5149C107.786 17.45 108.479 18.047 109.441 18.1146C110.593 18.2047 111.744 18.1935 112.907 18.216C113.567 18.2273 114.226 18.216 114.953 18.216C114.73 19.4327 114.517 20.6268 114.294 21.8435C112.057 21.8547 109.855 22.0237 107.663 21.6519C105.114 21.2126 103.683 19.7932 103.325 17.0669C103.034 14.9153 103.001 12.7298 103.37 10.5781C103.817 7.91947 105.203 6.50003 107.842 6.11701C109.307 5.91423 110.816 5.94803 112.315 5.8917C113.12 5.88044 113.947 5.90297 114.819 5.90297Z" fill="white"/>
<path fill-rule="evenodd" clip-rule="evenodd" d="M219.69 6.03815C219.679 6.19586 219.657 6.34231 219.657 6.50003C219.657 10.2739 219.657 14.0478 219.657 17.8217C219.657 17.9682 219.668 18.1259 219.679 18.3174H226.835C226.589 19.5678 226.365 20.7507 226.13 21.9561H215.341V6.03815H219.69Z" fill="white"/>
<path d="M163.364 7.61533H159.048V21.9674H163.364V7.61533Z" fill="white"/>
<path fill-rule="evenodd" clip-rule="evenodd" d="M116.708 7.62659H128.593C128.381 8.663 128.168 9.67688 127.956 10.7133H120.878V13.1466H127.799C127.62 14.0253 127.397 14.8477 127.296 15.6926C127.229 16.1995 126.994 16.2784 126.502 16.2671C124.803 16.2333 123.114 16.2558 121.415 16.2558H120.878V18.8581H128.739C128.537 19.8607 128.347 20.8183 128.135 21.7758C128.124 21.8547 127.989 21.9335 127.889 21.9561C127.799 21.9899 127.676 21.9674 127.565 21.9674H117.2H116.708V7.62659Z" fill="white"/>
<path fill-rule="evenodd" clip-rule="evenodd" d="M137.392 13.0678C138.119 11.7272 140.411 7.61533 140.411 7.61533C140.411 7.61533 141.585 7.62659 142.2 7.61533C143.105 7.61533 144.011 7.61533 144.995 7.61533C144.727 8.04341 144.492 8.41516 144.257 8.77566C142.736 11.1526 141.205 13.5184 139.684 15.8954C139.561 16.0869 139.494 16.3347 139.494 16.56C139.483 18.3399 139.483 20.1086 139.483 21.9223H135.178V21.483C135.178 19.8608 135.189 18.2386 135.167 16.6163C135.167 16.391 135.089 16.1432 134.966 15.9517C133.3 13.3494 131.622 10.7471 129.945 8.15606C129.845 7.99835 129.755 7.84063 129.61 7.62659H130.627C131.723 7.62659 134.071 7.63786 134.138 7.63786H134.384C134.384 7.63786 134.507 7.8519 134.574 7.98708C135.424 9.56423 136.296 11.1301 137.157 12.7073C137.235 12.8087 137.302 12.91 137.392 13.0678Z" fill="white"/>
<path fill-rule="evenodd" clip-rule="evenodd" d="M157.751 18.6666C157.505 19.8044 157.271 20.8634 157.047 21.9448H146.291V7.64911H150.573V18.6666H157.751Z" fill="white"/>
<path fill-rule="evenodd" clip-rule="evenodd" d="M165.521 7.62659C166.606 7.62659 168.965 7.64912 168.965 7.64912C168.965 7.64912 169.121 7.86316 169.177 7.94202C171.123 10.4091 173.046 12.8762 174.991 15.3434C175.081 15.4673 175.193 15.5912 175.36 15.794V7.66039H179.43V21.9786H176.031C176.031 21.9786 171.671 16.5713 169.904 14.3407C169.826 14.2393 169.748 14.1492 169.591 13.9802V21.9448H165.521V7.62659Z" fill="white"/>
<path fill-rule="evenodd" clip-rule="evenodd" d="M192.478 10.8935C191.248 10.8935 190.062 10.871 188.877 10.9048C188.397 10.916 187.893 10.9724 187.413 11.0625C186.608 11.2089 186.082 11.7046 186.06 12.4143C185.993 14.0027 185.981 15.6024 186.071 17.1796C186.116 18.0245 186.809 18.5314 187.782 18.6103C188.598 18.6891 189.414 18.6891 190.23 18.7004C191.225 18.7116 192.232 18.7004 193.271 18.7004C193.048 19.8044 192.835 20.8633 192.612 21.9899C191.259 21.9899 189.928 22.0462 188.587 21.9786C187.435 21.9223 186.272 21.8434 185.165 21.5956C183.209 21.1675 182.057 19.9283 181.733 18.1484C181.319 15.8165 181.252 13.4733 181.833 11.1526C182.292 9.29384 183.723 8.29122 185.713 7.87441C187.077 7.58151 188.464 7.60404 189.85 7.60404C190.946 7.60404 192.03 7.60404 193.16 7.60404C192.914 8.7193 192.701 9.80078 192.478 10.8935Z" fill="white"/>
<path fill-rule="evenodd" clip-rule="evenodd" d="M209.069 11.5582C208.767 9.41776 207.336 7.99833 205.011 7.53645C204.194 7.37873 203.345 7.31114 202.517 7.19849H201.22C200.672 7.25481 200.125 7.29988 199.577 7.37873C196.86 7.71669 195.06 8.89956 194.635 11.5694C194.299 13.6761 194.288 15.7939 194.612 17.878C195.026 20.5141 196.446 21.7195 199.342 22.1476C201.03 22.3954 202.707 22.3616 204.407 22.1476C207.034 21.8209 208.756 20.3113 209.081 17.9456C209.371 15.8165 209.371 13.6761 209.069 11.5582ZM204.653 17.3598C204.474 18.5089 203.993 18.9144 202.719 19.0046C202.036 19.0609 201.332 19.0271 200.65 18.9482C199.644 18.8356 199.085 18.2836 199.006 17.3598C198.928 16.4586 198.895 15.5461 198.906 14.6336C198.917 13.7436 198.951 12.8424 199.062 11.9637C199.163 11.1414 199.778 10.6457 200.661 10.5781C201.5 10.5105 202.35 10.533 203.188 10.6232C204.06 10.7245 204.541 11.2202 204.642 12.0313C204.753 12.9438 204.765 13.8676 204.821 14.7125C204.765 15.6588 204.776 16.5149 204.653 17.3598Z" fill="white"/>
<path fill-rule="evenodd" clip-rule="evenodd" d="M260.163 7.62659C259.951 8.65173 259.727 9.67688 259.504 10.7246H252.426V13.1579H259.347C259.157 14.0478 258.699 16.2784 258.699 16.2784C258.699 16.2784 258.352 16.2784 258.039 16.2784C256.172 16.2784 254.316 16.2671 252.415 16.2671V18.8694H260.275C260.063 19.8833 259.616 21.9786 259.616 21.9786C259.616 21.9786 253.041 21.9786 249.955 21.9786H248.222V7.62659H260.163Z" fill="white"/>
<path fill-rule="evenodd" clip-rule="evenodd" d="M246.602 7.62659C246.411 8.67426 246.221 9.71068 246.031 10.7809H239.323V13.5634H245.618C245.405 14.5998 245.215 15.5799 245.003 16.5938H239.312V21.9336H235.13V7.62659H246.602Z" fill="white"/>
<path fill-rule="evenodd" clip-rule="evenodd" d="M232.905 7.62659C232.905 12.2341 232.905 16.8304 232.894 21.4266V21.9448H228.556V7.62659H232.905Z" fill="white"/>
<path fill-rule="evenodd" clip-rule="evenodd" d="M264.232 7.68291C264.657 7.68291 264.959 7.72797 265.16 7.80683C265.507 7.95328 265.686 8.24618 265.686 8.67426C265.686 8.97843 265.574 9.20373 265.351 9.35018C265.239 9.42904 265.071 9.48537 264.859 9.51916C265.127 9.56423 265.317 9.67688 265.44 9.85713C265.563 10.0374 265.63 10.2176 265.63 10.3866V10.6344C265.63 10.7133 265.63 10.7922 265.641 10.8935C265.641 10.9837 265.652 11.04 265.675 11.0738L265.697 11.1188H265.138C265.138 11.1076 265.138 11.0963 265.127 11.085C265.127 11.0738 265.116 11.0625 265.116 11.0513L265.105 10.9386V10.6682C265.105 10.2739 264.993 10.0148 264.78 9.87966C264.657 9.8008 264.434 9.767 264.121 9.767H263.651V11.1188H263.047V7.69418H264.232V7.68291ZM265.105 8.71932C265.105 8.47148 265.026 8.30251 264.881 8.22365C264.736 8.14479 264.49 8.09973 264.154 8.09973H263.651V9.33891H264.188C264.434 9.33891 264.635 9.31639 264.758 9.26006C264.982 9.16994 265.105 8.98969 265.105 8.71932ZM267.386 9.40651C267.386 10.2627 267.084 11.0062 266.48 11.6145C265.876 12.2228 265.149 12.527 264.288 12.527C263.427 12.527 262.701 12.2228 262.097 11.6145C261.504 11.0062 261.202 10.2627 261.202 9.40651C261.202 8.55034 261.504 7.8181 262.108 7.20977C262.712 6.60144 263.427 6.29727 264.288 6.29727C265.149 6.29727 265.876 6.60144 266.48 7.20977C267.084 7.80683 267.386 8.53908 267.386 9.40651ZM264.288 6.71409C263.55 6.71409 262.924 6.98446 262.41 7.50266C261.896 8.02087 261.627 8.65173 261.627 9.39524C261.627 10.1388 261.884 10.7809 262.399 11.2991C262.913 11.8286 263.539 12.0877 264.277 12.0877C265.015 12.0877 265.641 11.8173 266.156 11.2991C266.67 10.7696 266.927 10.1388 266.927 9.39524C266.927 8.65173 266.67 8.02087 266.156 7.50266C265.652 6.98446 265.026 6.71409 264.288 6.71409Z" fill="white"/>
<path d="M138.431 53.9948L136.139 46.9314H134.943L132.651 53.9948H133.523L134.272 51.6854H136.776L137.503 53.9948H138.431ZM136.519 50.8855H134.529L135.2 48.824C135.256 48.6324 135.312 48.4409 135.357 48.2607C135.401 48.0692 135.446 47.8777 135.48 47.6636H135.58C135.614 47.8777 135.658 48.0692 135.703 48.2607C135.748 48.4522 135.804 48.6324 135.86 48.824L136.519 50.8855ZM146.481 53.9948L144.726 51.0545C144.994 50.9644 145.229 50.8292 145.43 50.6715C145.62 50.5138 145.777 50.2997 145.877 50.0406C145.978 49.7815 146.034 49.4661 146.034 49.0943C146.034 48.7338 145.989 48.4297 145.888 48.1706C145.788 47.9227 145.654 47.7087 145.475 47.551C145.296 47.3933 145.083 47.2581 144.849 47.168C144.603 47.0778 144.334 47.0215 144.044 46.9877C143.753 46.9539 143.44 46.9314 143.116 46.9314H141.461V53.9948H142.333V51.246H143.149H143.373C143.451 51.246 143.529 51.246 143.608 51.246C143.686 51.246 143.753 51.246 143.82 51.2347L145.475 53.9835H146.481V53.9948ZM145.162 49.0831C145.162 49.3647 145.117 49.59 145.039 49.7702C144.96 49.9505 144.826 50.0969 144.659 50.1983C144.491 50.2997 144.278 50.3673 144.033 50.4124C143.775 50.4574 143.485 50.48 143.138 50.4687H142.322V47.7087H143.105C143.44 47.7087 143.742 47.72 143.999 47.7537C144.256 47.7875 144.469 47.8551 144.636 47.9565C144.804 48.0579 144.938 48.1931 145.016 48.3733C145.117 48.5536 145.162 48.7902 145.162 49.0831ZM151.691 51.6966V51.3136C151.691 50.7278 151.613 50.2321 151.456 49.8378C151.3 49.4435 151.054 49.1394 150.718 48.9366C150.394 48.7338 149.969 48.6324 149.466 48.6324C148.974 48.6324 148.572 48.7338 148.248 48.9366C147.923 49.1394 147.677 49.4323 147.51 49.804C147.353 50.1871 147.264 50.6489 147.264 51.2009V51.6065C147.264 52.0346 147.297 52.3951 147.375 52.7105C147.454 53.0259 147.577 53.285 147.756 53.4991C147.934 53.7131 148.18 53.8596 148.482 53.9722C148.795 54.0736 149.175 54.1299 149.634 54.1299C149.925 54.1299 150.182 54.1187 150.416 54.0961C150.651 54.0736 150.853 54.0511 151.031 54.0173C151.21 53.9835 151.356 53.9497 151.479 53.9159V53.2287C151.356 53.2512 151.221 53.2738 151.065 53.285C150.92 53.2963 150.763 53.3188 150.595 53.3301C150.439 53.3414 150.271 53.3639 150.115 53.3639C149.958 53.3752 149.802 53.3752 149.656 53.3752C149.377 53.3752 149.131 53.3414 148.941 53.2963C148.751 53.24 148.594 53.1724 148.482 53.071C148.37 52.9809 148.281 52.8682 148.225 52.733C148.169 52.5979 148.136 52.4514 148.113 52.2937C148.091 52.136 148.091 51.9557 148.091 51.7755V51.6741H151.691V51.6966ZM150.819 50.9869H148.136V50.8968C148.136 50.7729 148.147 50.6377 148.158 50.4912C148.18 50.356 148.214 50.2209 148.27 50.0857C148.326 49.9505 148.393 49.8378 148.493 49.7252C148.594 49.6238 148.728 49.5337 148.885 49.4661C149.052 49.4098 149.243 49.376 149.477 49.3647C149.723 49.3647 149.925 49.3985 150.081 49.4661C150.249 49.5337 150.372 49.6125 150.472 49.7252C150.573 49.8266 150.64 49.9505 150.696 50.0857C150.752 50.2209 150.785 50.356 150.797 50.4912C150.808 50.6264 150.819 50.7616 150.819 50.8968V50.9869ZM153.961 46.6385H153.122V53.9948H153.961V46.6385ZM159.35 53.9948V50.4574C159.35 50.2209 159.338 50.0068 159.305 49.8153C159.271 49.6238 159.227 49.4548 159.137 49.3084C159.059 49.1619 158.947 49.038 158.791 48.9366C158.645 48.8352 158.455 48.7564 158.209 48.7113C157.974 48.655 157.684 48.6324 157.337 48.6324C157.136 48.6324 156.946 48.6437 156.756 48.655C156.577 48.6775 156.409 48.6888 156.253 48.7226C156.107 48.7564 155.973 48.7789 155.872 48.8014C155.772 48.824 155.705 48.8465 155.66 48.8578V49.4661C155.85 49.4436 156.029 49.421 156.197 49.4098C156.376 49.3872 156.543 49.376 156.722 49.3647C156.89 49.3534 157.08 49.3534 157.27 49.3534C157.527 49.3534 157.74 49.3647 157.896 49.3985C158.053 49.4323 158.187 49.4886 158.265 49.5675C158.355 49.6463 158.41 49.759 158.444 49.9054C158.477 50.0519 158.489 50.2321 158.489 50.4574V50.8405H157.717C157.348 50.8405 157.024 50.8517 156.733 50.8968C156.443 50.9418 156.186 51.0207 155.984 51.1334C155.772 51.246 155.615 51.4037 155.504 51.629C155.392 51.8431 155.336 52.1247 155.336 52.4627V52.6542C155.336 53.0034 155.403 53.285 155.526 53.4991C155.649 53.7131 155.828 53.8708 156.051 53.9835C156.286 54.0849 156.554 54.1412 156.89 54.1299C157.147 54.1299 157.382 54.1074 157.594 54.0511C157.807 54.006 157.986 53.9384 158.142 53.8708C158.299 53.792 158.433 53.7244 158.533 53.6455V53.9948H159.35ZM158.5 53.0372C158.422 53.0935 158.31 53.1499 158.164 53.2062C158.019 53.2738 157.851 53.3301 157.65 53.3752C157.46 53.4202 157.259 53.4428 157.046 53.454C156.879 53.454 156.722 53.4315 156.599 53.3864C156.465 53.3414 156.364 53.2625 156.297 53.1499C156.23 53.0372 156.186 52.8908 156.186 52.6992V52.4401C156.186 52.2374 156.208 52.0684 156.275 51.9332C156.331 51.8093 156.42 51.7079 156.543 51.6403C156.666 51.5727 156.823 51.5276 157.024 51.5051C157.214 51.4826 157.449 51.4713 157.728 51.4713H158.5V53.0372ZM163.509 53.9835V53.3977C163.453 53.3977 163.374 53.409 163.274 53.4202C163.173 53.4315 163.073 53.4315 162.961 53.4428C162.849 53.4428 162.737 53.454 162.648 53.454C162.491 53.454 162.368 53.4428 162.301 53.409C162.223 53.3752 162.178 53.3076 162.156 53.2062C162.133 53.1048 162.122 52.9583 162.122 52.7668V49.4886H163.509V48.7789H162.122V47.4045H161.273V48.7676H160.233V49.4098L161.273 49.4886V52.8006C161.273 53.1273 161.317 53.3864 161.396 53.5892C161.474 53.7807 161.619 53.9272 161.809 54.006C161.999 54.0961 162.245 54.1299 162.558 54.1299C162.692 54.1299 162.827 54.1187 162.95 54.1074C163.073 54.0961 163.196 54.0736 163.296 54.0511C163.386 54.0173 163.464 53.9948 163.509 53.9835ZM165.555 48.7676H164.705V53.9948H165.555V48.7676ZM165.555 46.6385H164.694V47.7988H165.555V46.6385ZM171.402 51.7529V50.9869C171.402 50.48 171.324 50.0519 171.156 49.7027C170.988 49.3534 170.742 49.0831 170.418 48.9028C170.094 48.7226 169.68 48.6324 169.199 48.6324C168.719 48.6324 168.305 48.7226 167.981 48.9028C167.657 49.0831 167.411 49.3534 167.243 49.7027C167.075 50.0519 166.997 50.48 166.997 50.9869V51.7529C166.997 52.2599 167.075 52.688 167.243 53.0372C167.411 53.3864 167.657 53.6568 167.981 53.837C168.305 54.0173 168.719 54.1074 169.199 54.1074C169.68 54.1074 170.094 54.0173 170.418 53.837C170.742 53.6568 170.999 53.3864 171.156 53.0372C171.313 52.6992 171.402 52.2599 171.402 51.7529ZM170.552 51.7529C170.552 52.1247 170.508 52.4401 170.407 52.6767C170.306 52.9133 170.161 53.0935 169.96 53.2062C169.758 53.3188 169.501 53.3752 169.177 53.3752C168.864 53.3752 168.607 53.3188 168.406 53.2062C168.204 53.0935 168.059 52.9133 167.958 52.6767C167.858 52.4401 167.813 52.1247 167.813 51.7529V50.9869C167.813 50.6151 167.858 50.311 167.958 50.0631C168.059 49.8266 168.204 49.6463 168.406 49.5337C168.607 49.421 168.864 49.3647 169.177 49.3647C169.49 49.3647 169.747 49.421 169.96 49.5337C170.161 49.6463 170.306 49.8266 170.407 50.0631C170.508 50.2997 170.552 50.6151 170.552 50.9869V51.7529ZM176.959 53.9948V50.6602C176.959 50.3448 176.947 50.0519 176.903 49.804C176.858 49.5562 176.78 49.3422 176.668 49.1619C176.556 48.9929 176.388 48.8578 176.176 48.7676C175.964 48.6775 175.684 48.6324 175.337 48.6324C175.147 48.6324 174.957 48.655 174.767 48.7C174.577 48.7451 174.387 48.8127 174.197 48.8916C174.007 48.9704 173.806 49.0718 173.604 49.1732V48.7676H172.766V53.9948H173.604V49.8378C173.951 49.6801 174.253 49.5675 174.532 49.4886C174.801 49.4098 175.036 49.3647 175.237 49.3647C175.472 49.3647 175.65 49.3985 175.785 49.4886C175.908 49.5787 175.997 49.7139 176.042 49.9054C176.087 50.0969 176.109 50.3448 176.109 50.6602V53.9948H176.959ZM181.956 52.6654C181.956 52.4627 181.934 52.2937 181.878 52.136C181.822 51.9895 181.744 51.8543 181.621 51.7304C181.498 51.6065 181.341 51.4826 181.14 51.3699C180.939 51.2573 180.682 51.1334 180.391 50.9982L180.011 50.8405C179.765 50.7278 179.586 50.6377 179.452 50.5588C179.318 50.4687 179.228 50.3786 179.183 50.2885C179.139 50.1871 179.105 50.0744 179.116 49.9392C179.116 49.7815 179.15 49.6576 179.228 49.5787C179.306 49.4999 179.418 49.4436 179.575 49.4098C179.731 49.376 179.933 49.3647 180.19 49.3647C180.313 49.3647 180.458 49.3647 180.626 49.376C180.793 49.3872 180.972 49.3985 181.162 49.4098C181.352 49.421 181.543 49.4436 181.721 49.4661V48.8352C181.677 48.8127 181.598 48.8014 181.498 48.7789C181.397 48.7564 181.274 48.7338 181.129 48.7226C180.984 48.7 180.838 48.6888 180.67 48.6775C180.503 48.6662 180.335 48.655 180.156 48.655C179.72 48.655 179.374 48.7 179.094 48.8014C178.815 48.8916 178.613 49.038 178.479 49.2295C178.345 49.421 178.278 49.6689 178.278 49.9618C178.278 50.2096 178.323 50.4236 178.423 50.6151C178.524 50.8067 178.68 50.9756 178.882 51.1221C179.094 51.2798 179.362 51.4263 179.698 51.5614L180.078 51.7192C180.302 51.8093 180.48 51.8994 180.615 51.967C180.749 52.0346 180.861 52.1134 180.939 52.181C181.017 52.2486 181.062 52.3275 181.084 52.4063C181.106 52.4965 181.129 52.5866 181.118 52.7105C181.118 52.8232 181.106 52.9245 181.073 53.0147C181.039 53.1048 180.984 53.1724 180.894 53.24C180.805 53.2963 180.693 53.3414 180.547 53.3752C180.402 53.409 180.223 53.4202 180 53.4202C179.843 53.4202 179.687 53.409 179.519 53.3977C179.351 53.3864 179.195 53.3752 179.049 53.3639C178.893 53.3526 178.759 53.3301 178.636 53.3188C178.513 53.3076 178.412 53.2963 178.334 53.285V53.9384C178.378 53.9497 178.457 53.9722 178.569 53.9948C178.68 54.0173 178.815 54.0398 178.971 54.0623C179.128 54.0849 179.295 54.1074 179.485 54.1187C179.664 54.1299 179.843 54.1412 180.033 54.1412C180.413 54.1412 180.726 54.0961 180.984 54.0173C181.241 53.9384 181.431 53.837 181.576 53.6906C181.721 53.5554 181.822 53.3977 181.878 53.2287C181.934 53.0372 181.956 52.857 181.956 52.6654ZM187.367 53.9948V50.6602C187.367 49.973 187.233 49.4661 186.965 49.1394C186.697 48.8014 186.272 48.6437 185.713 48.6437C185.456 48.6437 185.232 48.6662 185.008 48.7113C184.796 48.7564 184.606 48.8127 184.438 48.8803C184.271 48.9479 184.136 49.0042 184.025 49.0718V46.6497H183.186V54.006H184.025V49.759C184.136 49.7027 184.271 49.6463 184.438 49.59C184.595 49.5337 184.774 49.4886 184.964 49.4548C185.154 49.421 185.344 49.3985 185.545 49.3872C185.724 49.3872 185.88 49.4098 186.003 49.4548C186.126 49.4999 186.227 49.5675 186.305 49.6576C186.384 49.759 186.44 49.8942 186.473 50.0631C186.507 50.2321 186.529 50.4462 186.529 50.7053V54.006H187.367V53.9948ZM189.838 48.7676H188.989V53.9948H189.838V48.7676ZM189.838 46.6385H188.977V47.7988H189.838V46.6385ZM195.663 51.5727V51.0658C195.663 50.48 195.585 50.0181 195.44 49.6576C195.294 49.2971 195.082 49.038 194.802 48.8803C194.523 48.7226 194.187 48.6437 193.785 48.6437C193.617 48.6437 193.45 48.6662 193.271 48.7C193.103 48.7338 192.924 48.7902 192.756 48.8578C192.589 48.9253 192.421 49.0155 192.276 49.1281V48.7789H191.471V56H192.309V53.9835C192.421 54.0173 192.544 54.0398 192.678 54.0623C192.812 54.0849 192.946 54.1074 193.092 54.1187C193.226 54.1299 193.36 54.1412 193.472 54.1412C193.785 54.1412 194.076 54.1074 194.344 54.0286C194.612 53.9497 194.836 53.8145 195.037 53.623C195.238 53.4315 195.395 53.1724 195.496 52.8457C195.607 52.4965 195.663 52.0796 195.663 51.5727ZM194.825 51.5727C194.825 51.9557 194.791 52.2599 194.724 52.5077C194.657 52.7443 194.568 52.9358 194.456 53.0597C194.333 53.1949 194.199 53.285 194.031 53.3301C193.863 53.3752 193.673 53.3977 193.472 53.3977C193.293 53.3977 193.114 53.3864 192.924 53.3639C192.734 53.3414 192.522 53.2963 192.32 53.2625V49.7702C192.522 49.6689 192.7 49.59 192.846 49.5337C193.002 49.4774 193.137 49.4436 193.271 49.4098C193.394 49.3872 193.528 49.376 193.662 49.376C193.852 49.376 194.02 49.3985 194.165 49.4548C194.31 49.5111 194.433 49.6013 194.534 49.7365C194.635 49.8604 194.702 50.0406 194.758 50.2547C194.802 50.4687 194.825 50.7391 194.825 51.0545V51.5727ZM203.132 47.7087V46.9314H198.984V53.9948H199.845V50.7278H202.93V49.9392H199.845V47.72H203.132V47.7087ZM208.342 51.7529V50.9869C208.342 50.48 208.252 50.0519 208.096 49.7027C207.928 49.3534 207.682 49.0831 207.358 48.9028C207.034 48.7226 206.62 48.6324 206.128 48.6324C205.647 48.6324 205.245 48.7226 204.909 48.9028C204.585 49.0831 204.339 49.3534 204.172 49.7027C204.004 50.0519 203.926 50.48 203.926 50.9869V51.7529C203.926 52.2599 204.004 52.688 204.172 53.0372C204.339 53.3864 204.585 53.6568 204.909 53.837C205.234 54.0173 205.636 54.1074 206.128 54.1074C206.62 54.1074 207.022 54.0173 207.358 53.837C207.682 53.6568 207.928 53.3864 208.096 53.0372C208.252 52.6992 208.342 52.2599 208.342 51.7529ZM207.492 51.7529C207.492 52.1247 207.447 52.4401 207.347 52.6767C207.246 52.9133 207.101 53.0935 206.9 53.2062C206.698 53.3188 206.441 53.3752 206.117 53.3752C205.804 53.3752 205.547 53.3188 205.345 53.2062C205.144 53.0935 204.999 52.9133 204.898 52.6767C204.798 52.4401 204.753 52.1247 204.753 51.7529V50.9869C204.753 50.6151 204.798 50.311 204.898 50.0631C204.999 49.8266 205.144 49.6463 205.345 49.5337C205.547 49.421 205.804 49.3647 206.106 49.3647C206.43 49.3647 206.687 49.421 206.888 49.5337C207.09 49.6463 207.235 49.8266 207.336 50.0631C207.436 50.2997 207.481 50.6151 207.481 50.9869V51.7529H207.492ZM212.389 49.3872V48.6324C212.02 48.6324 211.685 48.6775 211.372 48.7564C211.059 48.8465 210.779 48.9817 210.533 49.1732V48.7564H209.706V53.9835H210.544V49.8378C210.645 49.7702 210.768 49.7139 210.902 49.6576C211.047 49.6013 211.193 49.5562 211.36 49.5111C211.528 49.4661 211.696 49.4436 211.864 49.421C212.042 49.3985 212.221 49.3872 212.389 49.3872ZM219.399 53.9948V53.2287H216.19V46.9426H215.329V54.006H219.399V53.9948ZM221.4 48.7676H220.551V53.9948H221.4V48.7676ZM221.4 46.6385H220.551V47.7988H221.4V46.6385ZM225.794 49.4774V48.7676H224.318V48.1368C224.318 47.9678 224.318 47.8326 224.33 47.7087C224.341 47.5848 224.363 47.4946 224.408 47.4158C224.441 47.3369 224.509 47.2806 224.587 47.2468C224.665 47.213 224.777 47.1905 224.922 47.1905C225.023 47.1905 225.135 47.1905 225.246 47.2017C225.347 47.213 225.459 47.213 225.548 47.213C225.649 47.213 225.727 47.2243 225.805 47.2243V46.6497C225.682 46.6159 225.537 46.5822 225.369 46.5596C225.202 46.5371 225.012 46.5146 224.81 46.5146C224.509 46.5146 224.263 46.5596 224.084 46.6497C223.905 46.7399 223.771 46.8638 223.681 47.0215C223.592 47.1792 223.536 47.3482 223.513 47.5397C223.48 47.7312 223.469 47.934 223.48 48.1368V48.7676H222.496V49.4098L223.48 49.4886V54.006H224.33V49.4886H225.794V49.4774ZM230.926 51.6966V51.3136C230.926 50.7278 230.848 50.2321 230.691 49.8378C230.535 49.4435 230.289 49.1394 229.965 48.9366C229.629 48.7338 229.215 48.6324 228.712 48.6324C228.22 48.6324 227.818 48.7338 227.494 48.9366C227.169 49.1394 226.923 49.4323 226.756 49.804C226.588 50.1871 226.51 50.6489 226.51 51.2009V51.6065C226.51 52.0346 226.543 52.3951 226.622 52.7105C226.7 53.0259 226.823 53.285 227.002 53.4991C227.181 53.7131 227.427 53.8596 227.74 53.9722C228.042 54.0736 228.433 54.1299 228.88 54.1299C229.171 54.1299 229.428 54.1187 229.663 54.0961C229.897 54.0736 230.099 54.0511 230.278 54.0173C230.456 53.9835 230.613 53.9497 230.725 53.9159V53.2287C230.602 53.2512 230.468 53.2738 230.322 53.285C230.177 53.2963 230.02 53.3188 229.853 53.3301C229.696 53.3414 229.528 53.3639 229.372 53.3639C229.215 53.3752 229.059 53.3752 228.914 53.3752C228.634 53.3752 228.388 53.3414 228.198 53.2963C228.008 53.24 227.863 53.1724 227.74 53.071C227.628 52.9809 227.538 52.8682 227.482 52.733C227.427 52.5979 227.393 52.4514 227.371 52.2937C227.348 52.136 227.348 51.9557 227.348 51.7755V51.6741H230.926V51.6966ZM230.043 50.9869H227.36V50.8968C227.36 50.7729 227.371 50.6377 227.393 50.4912C227.415 50.356 227.449 50.2209 227.505 50.0857C227.561 49.9505 227.639 49.8378 227.728 49.7252C227.829 49.6238 227.952 49.5337 228.12 49.4661C228.276 49.4098 228.478 49.376 228.712 49.3647C228.958 49.3647 229.16 49.3985 229.316 49.4661C229.473 49.5337 229.607 49.6125 229.707 49.7252C229.808 49.8266 229.886 49.9505 229.931 50.0857C229.976 50.2209 230.009 50.356 230.032 50.4912C230.054 50.6264 230.054 50.7616 230.054 50.8968V50.9869H230.043Z" fill="black"/>
<path fill-rule="evenodd" clip-rule="evenodd" d="M231.329 47.6862V47.2356H233.609V47.6862H232.737V49.928H232.212V47.6862H231.329ZM234.828 47.2356L235.51 49.1619L236.203 47.2356H236.964V49.928H236.472V47.7538L235.734 49.928H235.309L234.56 47.7538V49.928H234.068V47.2356H234.828Z" fill="black"/>
</svg>
