<svg width="14" height="14" viewBox="0 0 14 14" fill="none" xmlns="http://www.w3.org/2000/svg">
<path d="M7 1C3.68629 1 1 3.68629 1 7C1 10.3137 3.68629 13 7 13C10.3137 13 13 10.3137 13 7C12.9958 3.68806 10.3119 1.00425 7 1ZM7.2574 12.4723V11.417C7.2574 11.2748 7.14215 11.1596 7 11.1596C6.85785 11.1596 6.7426 11.2748 6.7426 11.417V12.4723C3.92017 12.3376 1.66242 10.0798 1.52767 7.2574H2.58301C2.72516 7.2574 2.84041 7.14215 2.84041 7C2.84041 6.85785 2.72516 6.7426 2.58301 6.7426H1.52767C1.66242 3.92017 3.92017 1.66242 6.7426 1.52767V2.58301C6.7426 2.72516 6.85785 2.84041 7 2.84041C7.14215 2.84041 7.2574 2.72516 7.2574 2.58301V1.52767C10.0798 1.66242 12.3376 3.92017 12.4723 6.7426H11.417C11.2748 6.7426 11.1596 6.85785 11.1596 7C11.1596 7.14215 11.2748 7.2574 11.417 7.2574H11.4196H12.4749C12.3401 10.0808 10.0808 12.3389 7.2574 12.4723Z" fill="#86504E" stroke="#86504E" stroke-width="0.25"/>
<path d="M9.71553 9.39385L7.25735 6.89449V4.29732C7.25735 4.15517 7.1421 4.03992 6.99995 4.03992C6.8578 4.03992 6.74255 4.15517 6.74255 4.29732V7.00002C6.74284 7.06756 6.76965 7.13226 6.8172 7.1802L9.34744 9.75421C9.44696 9.85585 9.61003 9.85758 9.71167 9.75807C9.81331 9.65855 9.81504 9.49549 9.71553 9.39385Z" fill="#86504E" stroke="#86504E" stroke-width="0.25"/>
</svg>
