<svg width="12" height="12" viewBox="0 0 12 12" fill="none" xmlns="http://www.w3.org/2000/svg">
<path d="M7.06127 6.00088L11.7801 1.28203C12.0733 0.989104 12.0733 0.513817 11.7801 0.22089C11.4869 -0.0722872 11.0122 -0.0722872 10.719 0.22089L6.00012 4.93974L1.28102 0.22089C0.987847 -0.0722872 0.51306 -0.0722872 0.219883 0.22089C-0.0732943 0.513817 -0.0732943 0.989104 0.219883 1.28203L4.93898 6.00088L0.219883 10.7197C-0.0732943 11.0127 -0.0732943 11.4879 0.219883 11.7809C0.366471 11.9272 0.558587 12.0005 0.750453 12.0005C0.942319 12.0005 1.13444 11.9272 1.28102 11.7806L6.00012 7.06177L10.719 11.7806C10.8656 11.9272 11.0577 12.0005 11.2495 12.0005C11.4414 12.0005 11.6335 11.9272 11.7801 11.7806C12.0733 11.4877 12.0733 11.0124 11.7801 10.7195L7.06127 6.00088Z" fill="#7A1A2B"/>
</svg>
