<svg width="24" height="24" viewBox="0 0 24 24" fill="none" xmlns="http://www.w3.org/2000/svg">
<g clip-path="url(#clip0)">
<path d="M13.3256 12.0008L23.7252 1.60123C24.0913 1.23509 24.0913 0.641461 23.7252 0.275368C23.359 -0.0907252 22.7654 -0.0907721 22.3993 0.275368L11.9997 10.6749L1.60021 0.275368C1.23407 -0.0907721 0.640448 -0.0907721 0.274355 0.275368C-0.091738 0.641508 -0.0917848 1.23513 0.274355 1.60123L10.6739 12.0008L0.274355 22.4003C-0.0917848 22.7665 -0.0917848 23.3601 0.274355 23.7262C0.457402 23.9092 0.697354 24.0007 0.937307 24.0007C1.17726 24.0007 1.41717 23.9092 1.60026 23.7262L11.9997 13.3267L22.3993 23.7262C22.5823 23.9092 22.8223 24.0007 23.0622 24.0007C23.3022 24.0007 23.5421 23.9092 23.7252 23.7262C24.0913 23.3601 24.0913 22.7664 23.7252 22.4003L13.3256 12.0008Z" fill="white"/>
</g>
<defs>
<clipPath id="clip0">
<rect width="24" height="24" fill="white"/>
</clipPath>
</defs>
</svg>
