<svg width="70" height="81" viewBox="0 0 70 81" fill="none" xmlns="http://www.w3.org/2000/svg">
<g clip-path="url(#clip0)">
<path d="M37.7857 72.3993H3.05091V3.27637H38.6298L53.9015 18.3506V32.4324C53.9015 32.5398 53.9479 32.6568 54.001 32.76C54.0568 32.8682 54.1315 32.9829 54.2103 33.0916C54.3675 33.3088 54.5505 33.5156 54.6565 33.6203C54.6877 33.6511 54.7291 33.6757 54.7797 33.6829C54.829 33.69 54.8725 33.6785 54.9057 33.6632C54.9664 33.6352 55.0142 33.5843 55.0471 33.5448C55.0829 33.5017 55.1174 33.4516 55.1477 33.4062C55.151 33.4012 55.1543 33.3963 55.1576 33.3914C55.1588 33.4272 55.1595 33.4677 55.1595 33.5135V33.6635H55.3095C55.3889 33.6635 55.4344 33.6809 55.4928 33.7031C55.5152 33.7117 55.5395 33.721 55.5684 33.7303C55.6185 33.7464 55.6849 33.761 55.7619 33.7426C55.837 33.7246 55.9018 33.6802 55.9625 33.6203C56.0182 33.5653 56.0546 33.5506 56.1019 33.5314C56.1192 33.5245 56.1379 33.5169 56.1596 33.5065C56.205 33.4848 56.2592 33.4492 56.2944 33.3782C56.3249 33.3166 56.3328 33.2443 56.3328 33.1676V17.8524C56.3327 17.5331 56.2041 17.2272 55.9759 17.002L39.9914 1.2241C39.9914 1.2241 39.9914 1.22409 39.9914 1.22409C39.7633 0.998907 39.4544 0.872712 39.1326 0.872644H1.83528C1.51349 0.872644 1.2045 0.998801 0.976382 1.22397C0.748195 1.44921 0.619638 1.75512 0.619638 2.07451V73.6012C0.619638 73.9206 0.748194 74.2265 0.976384 74.4517C1.2045 74.6769 1.51349 74.803 1.83528 74.803H41.0714C41.0858 74.803 41.1039 74.8022 41.123 74.7983C41.1397 74.7949 41.1724 74.7863 41.2029 74.7603C41.2408 74.728 41.2622 74.6797 41.2589 74.6282C41.2562 74.5868 41.2385 74.5568 41.229 74.5427C41.2096 74.5137 41.183 74.4911 41.1653 74.477C41.1445 74.4604 41.1198 74.4431 41.0935 74.4258C41.0076 74.3691 40.8757 74.2934 40.7268 74.208C40.6972 74.191 40.6669 74.1737 40.6362 74.156C40.2562 73.9373 39.7965 73.6639 39.5383 73.4111C39.4287 73.2842 39.2614 73.1791 39.0896 73.0902C38.915 72.9998 38.7183 72.9174 38.5389 72.8423L38.5306 72.8388C38.3449 72.761 38.1821 72.6924 38.0651 72.6271C38.0065 72.5943 37.968 72.567 37.9459 72.5457C37.9412 72.5411 37.9379 72.5375 37.9357 72.5348V72.3993H37.7857Z" fill="#790013" stroke="#790013" stroke-width="0.3"/>
<path d="M39.1326 19.0543H55.1171C55.4389 19.0543 55.7479 18.9282 55.976 18.703C56.2042 18.4777 56.3328 18.1718 56.3328 17.8524C56.3328 17.5331 56.2042 17.2272 55.976 17.0019C55.7479 16.7767 55.4389 16.6506 55.1171 16.6506H40.3482V2.07451C40.3482 1.75512 40.2196 1.44921 39.9915 1.22397C39.7633 0.998801 39.4543 0.872644 39.1326 0.872644C38.8108 0.872644 38.5018 0.998801 38.2737 1.22397C38.0455 1.44921 37.9169 1.75512 37.9169 2.07451V17.8524C37.9169 18.1718 38.0455 18.4777 38.2737 18.703C38.5018 18.9282 38.8108 19.0543 39.1326 19.0543Z" fill="#790013" stroke="#790013" stroke-width="0.3"/>
<path d="M19.3703 22.6494L19.2656 22.7555L19.3703 22.6494C19.1422 22.4242 18.8332 22.298 18.5114 22.298H9.60162C9.27983 22.298 8.97084 22.4242 8.74272 22.6494C8.51454 22.8746 8.38598 23.1805 8.38598 23.4999V32.2945C8.38598 32.6139 8.51454 32.9198 8.74272 33.1451L8.8481 33.0383L8.74272 33.1451C8.97085 33.3702 9.27984 33.4964 9.60162 33.4964H18.5114C18.8332 33.4964 19.1422 33.3702 19.3703 33.1451C19.5985 32.9198 19.727 32.6139 19.727 32.2945V23.4999C19.727 23.1805 19.5985 22.8746 19.3703 22.6494ZM17.2958 24.7018V31.0927H10.8173V24.7018H17.2958Z" fill="#790013" stroke="#790013" stroke-width="0.3"/>
<path d="M8.74272 49.2659L8.8481 49.1591L8.74272 49.2659C8.97085 49.4911 9.27984 49.6172 9.60162 49.6172H18.5114C18.8332 49.6172 19.1422 49.4911 19.3703 49.2659C19.5985 49.0407 19.727 48.7348 19.727 48.4154V39.6197C19.727 39.3003 19.5985 38.9944 19.3703 38.7692L19.2649 38.8759L19.3703 38.7692C19.1422 38.544 18.8332 38.4178 18.5114 38.4178H9.60162C9.27984 38.4178 8.97085 38.544 8.74272 38.7692C8.51454 38.9944 8.38598 39.3003 8.38598 39.6197V48.4154C8.38598 48.7348 8.51454 49.0407 8.74272 49.2659ZM17.2958 40.8216V47.2135H10.8173V40.8216H17.2958Z" fill="#790013" stroke="#790013" stroke-width="0.3"/>
<path d="M19.3703 54.89L19.2656 54.9961L19.3703 54.89C19.1422 54.6648 18.8332 54.5387 18.5114 54.5387H9.60162C9.27984 54.5387 8.97085 54.6648 8.74272 54.89C8.51454 55.1152 8.38598 55.4212 8.38598 55.7405V64.5352C8.38598 64.8546 8.51454 65.1605 8.74272 65.3857C8.97085 65.6109 9.27984 65.737 9.60162 65.737H18.5114C18.8332 65.737 19.1422 65.6109 19.3703 65.3857C19.5985 65.1605 19.727 64.8546 19.727 64.5352V55.7405C19.727 55.4212 19.5985 55.1152 19.3703 54.89ZM17.2958 56.9424V63.3333H10.8173V56.9424H17.2958Z" fill="#790013" stroke="#790013" stroke-width="0.3"/>
<path d="M25.3624 29.0996H47.3507C47.6725 29.0996 47.9815 28.9734 48.2096 28.7483C48.4378 28.523 48.5664 28.2171 48.5664 27.8977C48.5664 27.5783 48.4378 27.2724 48.2096 27.0472C47.9815 26.822 47.6725 26.6959 47.3507 26.6959H25.3624C25.0406 26.6959 24.7316 26.822 24.5035 27.0472C24.2753 27.2724 24.1468 27.5783 24.1468 27.8977C24.1468 28.2171 24.2753 28.523 24.5035 28.7483C24.7316 28.9734 25.0406 29.0996 25.3624 29.0996Z" fill="#790013" stroke="#790013" stroke-width="0.3"/>
<path d="M25.3624 45.2194H28.3782C28.7 45.2194 29.009 45.0932 29.2371 44.8681C29.4653 44.6428 29.5938 44.3369 29.5938 44.0175C29.5938 43.6981 29.4653 43.3922 29.2371 43.167C29.009 42.9418 28.7 42.8157 28.3782 42.8157H25.3624C25.0406 42.8157 24.7316 42.9418 24.5035 43.167C24.2753 43.3922 24.1468 43.6981 24.1468 44.0175C24.1468 44.3369 24.2753 44.6428 24.5035 44.8681C24.7316 45.0932 25.0406 45.2194 25.3624 45.2194Z" fill="#790013" stroke="#790013" stroke-width="0.3"/>
<path d="M28.8151 61.4051L28.8151 61.4051H28.8179C29.1397 61.4051 29.4487 61.279 29.6768 61.0538C29.905 60.8285 30.0336 60.5226 30.0336 60.2032C30.0336 59.8839 29.905 59.5779 29.6768 59.3527C29.449 59.1279 29.1406 59.0018 28.8194 59.0014L25.3653 58.9355L25.3653 58.9355H25.3624C25.0406 58.9355 24.7316 59.0616 24.5035 59.2868C24.2753 59.512 24.1468 59.8179 24.1468 60.1373C24.1468 60.4567 24.2753 60.7626 24.5035 60.9879C24.7313 61.2127 25.0397 61.3388 25.3609 61.3392L28.8151 61.4051Z" fill="#790013" stroke="#790013" stroke-width="0.3"/>
<path d="M58.3731 50.9375H53.2381V45.625C53.2381 44.8041 52.9028 44.0602 52.3811 43.4609L52.3763 43.4553L52.3712 43.4501C51.834 42.9015 51.0351 42.5625 50.2343 42.5625H48.2149C47.4064 42.5625 46.6756 42.907 46.0887 43.4399L46.0832 43.4448L46.0781 43.4501C45.5412 43.9985 45.2112 44.8119 45.2112 45.625V50.875H40.0149C39.2064 50.875 38.4756 51.2195 37.8887 51.7524L37.8832 51.7573L37.8781 51.7626C37.3412 52.311 37.0112 53.1244 37.0112 53.9375V56C37.0112 56.8209 37.3465 57.5648 37.8681 58.1641L37.873 58.1697L37.8781 58.1749C38.4152 58.7235 39.2142 59.0625 40.0149 59.0625H45.15V64.375C45.15 65.1959 45.4853 65.9398 46.0069 66.5391L46.0118 66.5447L46.0169 66.5499C46.554 67.0985 47.353 67.4375 48.1537 67.4375H50.1731C50.9817 67.4375 51.7124 67.093 52.2994 66.5601L52.3048 66.5552L52.31 66.5499C52.8469 66.0015 53.1769 65.1881 53.1769 64.375V59.125H58.3731C59.1817 59.125 59.9124 58.7805 60.4994 58.2476L60.5048 58.2427L60.51 58.2374C61.0469 57.689 61.3769 56.8756 61.3769 56.0625V54C61.3769 53.1216 61.0449 52.3714 60.51 51.8251C59.9728 51.2765 59.1739 50.9375 58.3731 50.9375ZM59.4702 56.0422L59.4694 56.0523V56.0625C59.4694 56.3773 59.3691 56.6254 59.1736 56.8251C58.9825 57.0203 58.6831 57.125 58.4343 57.125H52.2537C52.019 57.125 51.7651 57.2042 51.5856 57.3876C51.4066 57.5703 51.3306 57.8268 51.3306 58.0625V64.3125C51.3306 64.6273 51.2303 64.8754 51.0348 65.0751C50.8436 65.2703 50.5443 65.375 50.2955 65.375H48.2761C47.9725 65.375 47.7321 65.2745 47.5368 65.0751C47.3452 64.8794 47.241 64.571 47.241 64.3125V58.125C47.241 57.8893 47.165 57.6328 46.9861 57.4501C46.8065 57.2667 46.5526 57.1875 46.3179 57.1875H40.0149C39.7113 57.1875 39.4709 57.087 39.2757 56.8876C39.084 56.6919 38.9799 56.3835 38.9799 56.125V54.0625C38.9799 53.7477 39.0801 53.4996 39.2757 53.2999C39.4668 53.1047 39.7661 53 40.0149 53H46.1343C46.369 53 46.6229 52.9208 46.8025 52.7374C46.9814 52.5547 47.0575 52.2982 47.0575 52.0625V45.625C47.0575 45.3102 47.1577 45.0621 47.3533 44.8624L47.1746 44.6875L47.3533 44.8624C47.5444 44.6672 47.8437 44.5625 48.0925 44.5625H50.1119C50.4156 44.5625 50.656 44.663 50.8512 44.8624L51.0299 44.6875L50.8512 44.8624C51.0429 45.0581 51.147 45.3665 51.147 45.625V51.875C51.147 52.1107 51.223 52.3672 51.402 52.5499C51.5816 52.7333 51.8354 52.8125 52.0702 52.8125H58.1896C58.3766 52.8125 58.5711 52.813 58.7474 52.8407C58.9277 52.869 59.0464 52.92 59.1124 52.9874L59.1486 53.0244L59.1822 53.0381C59.183 53.0387 59.1839 53.0394 59.1848 53.0401C59.1958 53.0489 59.2212 53.0718 59.2537 53.1187C59.3187 53.2128 59.4152 53.4087 59.4722 53.7872C59.5297 54.1689 59.5307 54.727 59.5154 55.2029C59.5079 55.4381 59.4966 55.6484 59.4871 55.7999C59.4824 55.8756 59.4781 55.9365 59.4751 55.9783L59.4715 56.0261L59.4705 56.0383L59.4703 56.0413L59.4702 56.042L59.4702 56.0422Z" fill="#790013" stroke="#790013" stroke-width="0.5"/>
<path d="M69.1346 37.3399L69.122 37.3334L69.1087 37.3284L49.7714 30.0784L49.7289 30.0625H49.6974C49.6967 30.0623 49.696 30.0621 49.6952 30.0619C49.6823 30.0583 49.6664 30.053 49.6418 30.0446L49.6392 30.0437C49.618 30.0365 49.5893 30.0267 49.5614 30.0189C49.5357 30.0118 49.4895 30 49.4388 30C49.4353 30 49.4317 30 49.4279 30C49.3767 29.9999 49.3073 29.9998 49.2434 30.0129C49.1776 30.0263 49.1179 30.0525 49.0639 30.0943L29.6464 37.391L29.6332 37.3959L29.6206 37.4024C29.4611 37.4838 29.314 37.6343 29.2033 37.7476C29.1983 37.7526 29.1934 37.7577 29.1885 37.7626C28.9929 37.9624 28.9942 38.2432 28.9947 38.3593C28.9948 38.3649 28.9948 38.3702 28.9948 38.375V55.4375C28.9948 65.2316 34.4432 71.3593 38.9446 74.8231L38.9463 74.8244C42.0283 77.1538 45.4201 78.9176 49.1208 80.0515L49.1566 80.0625H49.194H49.1944H49.1948H49.1951H49.1955H49.1958H49.1962H49.1965H49.1969H49.1973H49.1976H49.198H49.1983H49.1987H49.1991H49.1994H49.1998H49.2001H49.2005H49.2008H49.2012H49.2016H49.2019H49.2023H49.2026H49.203H49.2034H49.2037H49.2041H49.2044H49.2048H49.2052H49.2055H49.2059H49.2062H49.2066H49.2069H49.2073H49.2077H49.208H49.2084H49.2087H49.2091H49.2095H49.2098H49.2102H49.2105H49.2109H49.2112H49.2116H49.212H49.2123H49.2127H49.213H49.2134H49.2138H49.2141H49.2145H49.2148H49.2152H49.2155H49.2159H49.2163H49.2166H49.217H49.2173H49.2177H49.2181H49.2184H49.2188H49.2191H49.2195H49.2199H49.2202H49.2206H49.2209H49.2213H49.2216H49.222H49.2224H49.2227H49.2231H49.2234H49.2238H49.2242H49.2245H49.2249H49.2252H49.2256H49.2259H49.2263H49.2267H49.227H49.2274H49.2277H49.2281H49.2285H49.2288H49.2292H49.2295H49.2299H49.2302H49.2306H49.231H49.2313H49.2317H49.232H49.2324H49.2328H49.2331H49.2335H49.2338H49.2342H49.2346H49.2349H49.2353H49.2356H49.236H49.2363H49.2367H49.2371H49.2374H49.2378H49.2381H49.2385H49.2389H49.2392H49.2396H49.2399H49.2403H49.2406H49.241H49.2414H49.2417H49.2421H49.2424H49.2428H49.2432H49.2435H49.2439H49.2442H49.2446H49.2449H49.2453H49.2457H49.246H49.2464H49.2467H49.2471H49.2475H49.2478H49.2482H49.2485H49.2489H49.2493H49.2496H49.25H49.2503H49.2507H49.251H49.2514H49.2518H49.2521H49.2525H49.2528H49.2532H49.2536H49.2539H49.2543H49.2546H49.255H49.2553H49.2557H49.2561H49.2564H49.2568H49.2571H49.2575H49.2579H49.2582H49.2586H49.2589H49.2593H49.2597H49.26H49.2604H49.2607H49.2611H49.2614H49.2618H49.2622H49.2625H49.2629H49.2632H49.2636H49.264H49.2643H49.2647H49.265H49.2654H49.2657H49.2661H49.2665H49.2668H49.2672H49.2675H49.2679H49.2683H49.2686H49.269H49.2693H49.2697H49.27H49.2704H49.2708H49.2711H49.2715H49.2718H49.2722H49.2726H49.2729H49.2733H49.2736H49.274H49.2744H49.2747H49.2751H49.2754H49.2758H49.2761H49.2765H49.2769H49.2772H49.2776H49.2779H49.2783H49.2787H49.279H49.2794H49.2797H49.2801H49.2804H49.2808H49.2812H49.2815H49.2819H49.2822H49.2826H49.283H49.2833H49.2837H49.284H49.2844H49.2847H49.2851H49.2855H49.2858H49.2862H49.2865H49.2869H49.2873H49.2876H49.288H49.2883H49.2887H49.2891H49.2894H49.2898H49.2901H49.2905H49.2908H49.2912H49.2916H49.2919H49.2923H49.2926H49.293H49.2934H49.2937H49.2941H49.2944H49.2948H49.2951H49.2955H49.2959H49.2962H49.2966H49.2969H49.2973H49.2977H49.298H49.2984H49.2987H49.2991H49.2995H49.2998H49.3002H49.3005H49.3009H49.3012H49.3016H49.302H49.3023H49.3027H49.303H49.3034H49.3038H49.3041H49.3045H49.3048H49.3052H49.3055H49.3059H49.3063H49.3066H49.307H49.3073H49.3077H49.3081H49.3084H49.3088H49.3091H49.3095H49.3098H49.3102H49.3106H49.3109H49.3113H49.3116H49.312H49.3124H49.3127H49.3131H49.3134H49.3138H49.3142H49.3145H49.3149H49.3152H49.3156H49.3159H49.3163H49.3167H49.317H49.3174H49.3177H49.3181H49.3185H49.3188H49.3192H49.3195H49.3199H49.3202H49.3206H49.321H49.3213H49.3217H49.322H49.3224H49.3228H49.3231H49.3235H49.3238H49.3242H49.3246H49.3249H49.3253H49.3256H49.326H49.3263H49.3267H49.3271H49.3274H49.3278H49.3281H49.3285H49.3289H49.3292H49.3296H49.3299H49.3303H49.3306H49.331H49.3314H49.3317H49.3321H49.3324H49.3328H49.3332H49.3335H49.3339H49.3342H49.3346H49.3349H49.3353H49.3357H49.336H49.3364H49.3367H49.3371H49.3375H49.3378H49.3382H49.3385H49.3389H49.3393H49.3396H49.34H49.3403H49.3407H49.341H49.3414H49.3418H49.3421H49.3425H49.3428H49.3432H49.3436H49.3439H49.3443H49.3446H49.345H49.3453H49.3457H49.3461H49.3464H49.3468H49.3471H49.3475H49.3479H49.3482H49.3486H49.3489H49.3493H49.3496H49.35H49.3504H49.3507H49.3511H49.3514H49.3518H49.3522H49.3525H49.3529H49.3532H49.3536H49.354H49.3543H49.3547H49.355H49.3554H49.3557H49.3561H49.3565H49.3568H49.3572H49.3575H49.3579H49.3583H49.3586H49.359H49.3593H49.3597H49.36H49.3604H49.3608H49.3611H49.3615H49.3618H49.3622H49.3626H49.3629H49.3633H49.3636H49.364H49.3643H49.3647H49.3651H49.3654H49.3658H49.3661H49.3665H49.3669H49.3672H49.3676H49.3679H49.3683H49.3687H49.369H49.3694H49.3697H49.3701H49.3704H49.3708H49.3712H49.3715H49.3719H49.3722H49.3726H49.373H49.3733H49.3737H49.374H49.3744H49.3747H49.3751H49.3755H49.3758H49.3762H49.3765H49.3769H49.3773H49.3776H49.378H49.3783H49.3787H49.3791H49.3794H49.3798H49.3801H49.3805H49.3808H49.3812H49.3816H49.3819H49.3823H49.3826H49.383H49.3834H49.3837H49.3841H49.3844H49.3848H49.3851H49.3855H49.3859H49.3862H49.3866H49.3869H49.3873H49.3877H49.388H49.3884H49.3887H49.3891H49.3895H49.3898H49.3902H49.3905H49.3909H49.3912H49.3916H49.392H49.3923H49.3927H49.393H49.3934H49.3938H49.3941H49.3945H49.3948H49.3952H49.3955H49.3959H49.3963H49.3966H49.397H49.3973H49.3977H49.3981H49.3984H49.3988H49.3991H49.3995H49.3998H49.4002H49.4006H49.4009H49.4013H49.4016H49.402H49.4024H49.4027H49.4031H49.4034H49.4038H49.4042H49.4045H49.4049H49.4052H49.4056H49.4059H49.4063H49.4067H49.407H49.4074H49.4077H49.4081H49.4085H49.4088H49.4092H49.4095H49.4099H49.4102H49.4106H49.411H49.4113H49.4117H49.412H49.4124H49.4128H49.4131H49.4135H49.4138H49.4142H49.4145H49.4149H49.4153H49.4156H49.416H49.4163H49.4167H49.4171H49.4174H49.4178H49.4181H49.4185H49.4189H49.4192H49.4196H49.4199H49.4203H49.4206H49.421H49.4214H49.4217H49.4221H49.4224H49.4228H49.4232H49.4235H49.4239H49.4242H49.4246H49.4249H49.4253H49.4257H49.426H49.4264H49.4267H49.4271H49.4275H49.4278H49.4282H49.4285H49.4289H49.4292H49.4296H49.43H49.4303H49.4307H49.431H49.4314H49.4318H49.4321H49.4325H49.4328H49.4332H49.4336H49.4339H49.4343H49.4346H49.435H49.4353H49.4357H49.4361H49.4364H49.4368H49.4371H49.4375H49.4379H49.4382H49.4386H49.4389H49.4393H49.4396H49.44H49.4404H49.4407H49.4411H49.4414H49.4418H49.4422H49.4425H49.4429H49.4432H49.4436H49.444H49.4443H49.4447H49.445H49.4454H49.4457H49.4461H49.4465H49.4468H49.4472H49.4475H49.4479H49.4483H49.4486H49.449H49.4493H49.4497H49.45H49.4504H49.4508H49.4511H49.4515H49.4518H49.4522H49.4526H49.4529H49.4533H49.4536H49.454H49.4543H49.4547H49.4551H49.4554H49.4558H49.4561H49.4565H49.4569H49.4572H49.4576H49.4579H49.4583H49.4587H49.459H49.4594H49.4597H49.4601H49.4604H49.4608H49.4612H49.4615H49.4619H49.4622H49.4626H49.463H49.4633H49.4637H49.464H49.4644H49.4647H49.4651H49.4655H49.4658H49.4662H49.4665H49.4669H49.4673H49.4676H49.468H49.4683H49.4687H49.469H49.4694H49.4698H49.4701H49.4705H49.4708H49.4712H49.4716H49.4719H49.4723H49.4726H49.473H49.4734H49.4737H49.4741H49.4744H49.4748H49.4751H49.4755H49.4759H49.4762H49.4766H49.4769H49.4773H49.4777H49.478H49.4784H49.4787H49.4791H49.4794H49.4798H49.4802H49.4805H49.4809H49.4812H49.4816H49.482H49.4823H49.4827H49.483H49.4834H49.4838H49.4841H49.4845H49.4848H49.4852H49.4855H49.4859H49.4863H49.4866H49.487H49.4873H49.4877H49.4881H49.4884H49.4888H49.4891H49.4895H49.4898H49.4902H49.4906H49.4909H49.4913H49.4916H49.492H49.4924H49.4927H49.4931H49.4934H49.4938H49.4941H49.4945H49.4949H49.4952H49.4956H49.4959H49.4963H49.4967H49.497H49.4974H49.4977H49.4981H49.4985H49.4988H49.4992H49.4995H49.4999H49.5002H49.5006H49.501H49.5013H49.5017H49.502H49.5024H49.5028H49.5031H49.5035H49.5038H49.5042H49.5045H49.5049H49.5053H49.5056H49.506H49.5063H49.5067H49.5071H49.5074H49.5078H49.5081H49.5085H49.5089H49.5092H49.5096H49.5099H49.5103H49.5106H49.511H49.5114H49.5117H49.5121H49.5124H49.5128H49.5132H49.5135H49.5139H49.5142H49.5146H49.5149H49.5153H49.5157H49.516H49.5164H49.5167H49.5171H49.5175H49.5178H49.5182H49.5185H49.5189H49.5192H49.5196H49.52H49.5203H49.5207H49.521H49.5214H49.5218H49.5221H49.5225H49.5228H49.5232H49.5236H49.5239H49.5243H49.5246H49.525H49.5253H49.5257H49.5261H49.5264H49.5268H49.5271H49.5275H49.5279H49.5282H49.5286H49.5289H49.5293H49.5296H49.53H49.5304H49.5307H49.5311H49.5314H49.5318H49.5322H49.5325H49.5329H49.5332H49.5336H49.5339H49.5343H49.5347H49.535H49.5354H49.5357H49.5361H49.5365H49.5368H49.5372H49.5375H49.5379H49.5383H49.5386H49.539H49.5393H49.5397H49.54H49.5404H49.5408H49.5411H49.5415H49.5418H49.5422H49.5426H49.5429H49.5433H49.5436H49.544H49.5443H49.5447H49.5451H49.5454H49.5458H49.5461H49.5465H49.5469H49.5472H49.5476H49.5479H49.5483H49.5486H49.549H49.5494H49.5497H49.5501H49.5504H49.5508H49.5512H49.5515H49.5519H49.5522H49.5526H49.553H49.5533H49.5537H49.554H49.5544H49.5547H49.5551H49.5555H49.5558H49.5562H49.5565H49.5569H49.5573H49.5576H49.558H49.5583H49.5587H49.559H49.5594H49.5598H49.5601H49.5605H49.5608H49.5612H49.6026L49.6418 80.0492C49.6417 80.0492 49.6568 80.0448 49.7063 80.03C49.7498 80.0169 49.8114 79.9983 49.8899 79.9738C50.047 79.9248 50.2712 79.8525 50.5529 79.7551C51.1162 79.5601 51.9094 79.2643 52.8556 78.8522C54.7471 78.0283 57.2532 76.7379 59.755 74.856C64.7606 71.0906 69.7605 64.9458 69.7605 55.4375V38.3592C69.7981 38.242 69.7869 38.1217 69.758 38.0233C69.7265 37.9161 69.6684 37.8132 69.5923 37.7276C69.5358 37.6321 69.4524 37.5547 69.3829 37.4996C69.2995 37.4333 69.2087 37.3777 69.1346 37.3399ZM31.0388 39.0492L31.0388 39.0493L31.0459 39.0466L49.3617 32.1875H49.4547L67.7705 39.0466L67.7705 39.0467L67.7776 39.0492L67.7918 39.054V55.3662C67.7918 62.287 64.9527 68.0388 59.4386 72.5566C56.4759 74.9649 53.0901 76.7588 49.4605 77.9375H49.4388H49.4151C45.79 76.8214 42.4033 74.9667 39.3759 72.555C33.8031 68.0384 31.0246 62.2966 31.0246 55.375V39.054L31.0388 39.0492Z" fill="#790013" stroke="#790013" stroke-width="0.5"/>
</g>
<defs>
<clipPath id="clip0">
<rect width="70" height="81" fill="white"/>
</clipPath>
</defs>
</svg>
