<svg width="28" height="28" viewBox="0 0 28 28" fill="none" xmlns="http://www.w3.org/2000/svg">
<path d="M14 28C6.28009 28 0 21.7199 0 14C0 6.28009 6.28009 0 14 0C21.7199 0 28 6.28009 28 14C28 21.7199 21.7199 28 14 28Z" fill="#A0424A"/>
<g clip-path="url(#clip0)">
<path d="M21.4677 9.66544C21.1483 9.33084 20.7072 9.13312 20.2053 9.13312H17.6806V9.1027C17.6806 8.72247 17.5285 8.35745 17.27 8.11411C17.0114 7.85555 16.6616 7.70346 16.2814 7.70346H11.7186C11.3232 7.70346 10.9734 7.85555 10.7148 8.11411C10.4563 8.37266 10.3042 8.72247 10.3042 9.1027V9.13312H7.79468C7.29278 9.13312 6.85171 9.33084 6.53232 9.66544C6.21293 9.98483 6 10.4411 6 10.9278V18.5019C6 19.0038 6.19772 19.4449 6.53232 19.7643C6.85171 20.0837 7.30798 20.2966 7.79468 20.2966H20.2053C20.7072 20.2966 21.1483 20.0989 21.4677 19.7643C21.7871 19.4449 22 18.9886 22 18.5019V10.9278C22 10.4259 21.8023 9.98483 21.4677 9.66544ZM21.2091 18.5019H21.1939C21.1939 18.7757 21.0875 19.0191 20.9049 19.2016C20.7224 19.3841 20.4791 19.4905 20.2053 19.4905H7.79468C7.52091 19.4905 7.27757 19.3841 7.09506 19.2016C6.91255 19.0191 6.80608 18.7757 6.80608 18.5019V10.9278C6.80608 10.654 6.91255 10.4107 7.09506 10.2282C7.27757 10.0457 7.52091 9.9392 7.79468 9.9392H10.73C10.9582 9.9392 11.1407 9.75669 11.1407 9.52856V9.08749C11.1407 8.92019 11.2015 8.7681 11.308 8.66164C11.4144 8.55517 11.5665 8.49434 11.7338 8.49434H16.2814C16.4487 8.49434 16.6008 8.55517 16.7072 8.66164C16.8137 8.7681 16.8745 8.92019 16.8745 9.08749V9.52856C16.8745 9.75669 17.057 9.9392 17.2852 9.9392H20.2205C20.4943 9.9392 20.7376 10.0457 20.9202 10.2282C21.1027 10.4107 21.2091 10.654 21.2091 10.9278V18.5019Z" fill="white"/>
<path d="M14 10.9734C12.9658 10.9734 12.0228 11.3993 11.3536 12.0685C10.6692 12.7529 10.2585 13.6806 10.2585 14.7149C10.2585 15.7491 10.6844 16.692 11.3536 17.3612C12.038 18.0457 12.9658 18.4563 14 18.4563C15.0342 18.4563 15.9772 18.0304 16.6464 17.3612C17.3308 16.6768 17.7414 15.7491 17.7414 14.7149C17.7414 13.6806 17.3156 12.7377 16.6464 12.0685C15.9772 11.3993 15.0342 10.9734 14 10.9734ZM16.0684 16.7985C15.5361 17.3156 14.8061 17.6502 14 17.6502C13.1939 17.6502 12.4639 17.3156 11.9315 16.7985C11.3992 16.2662 11.0798 15.5361 11.0798 14.7301C11.0798 13.924 11.4144 13.1939 11.9315 12.6616C12.4639 12.1293 13.1939 11.8099 14 11.8099C14.8061 11.8099 15.5361 12.1445 16.0684 12.6616C16.6008 13.1939 16.9201 13.924 16.9201 14.7301C16.9354 15.5361 16.6008 16.2662 16.0684 16.7985Z" fill="white"/>
<path d="M19.4145 12.4487C19.8261 12.4487 20.1597 12.1151 20.1597 11.7035C20.1597 11.2919 19.8261 10.9582 19.4145 10.9582C19.0029 10.9582 18.6692 11.2919 18.6692 11.7035C18.6692 12.1151 19.0029 12.4487 19.4145 12.4487Z" fill="white"/>
</g>
<defs>
<clipPath id="clip0">
<rect width="16" height="16" fill="white" transform="translate(6 6)"/>
</clipPath>
</defs>
</svg>
