<svg width="96" height="96" viewBox="0 0 96 96" fill="none" xmlns="http://www.w3.org/2000/svg">
<g clip-path="url(#clip0)">
<path d="M49.6338 0H31.7118C23.6034 0.00892816 17.0331 6.58004 17.0234 14.6884V31.587H11.225C8.24298 31.5902 5.82589 34.0073 5.82264 36.9893V80.204C5.82589 83.186 8.24298 85.6031 11.225 85.6063H59.4377C62.1219 92.9875 69.8236 97.2738 77.5116 95.6651C85.1995 94.0572 90.5369 87.0429 90.0369 79.204C89.5378 71.3659 83.353 65.0854 75.523 64.4661V36.9893C75.5198 34.0073 73.1027 31.5902 70.1207 31.587H64.3223V14.6884C64.3125 6.58004 57.7422 0.00892816 49.6338 0ZM61.8289 14.6884V31.587H59.8411V14.6884C59.8346 9.05314 55.2683 4.4868 49.6338 4.48031H45.2793V2.49339H49.6338C56.3657 2.50069 61.8207 7.9566 61.8289 14.6884ZM38.5589 4.48031V2.49339H42.786V4.48031H38.5589ZM49.6338 6.97369C53.8926 6.97856 57.3429 10.4297 57.3478 14.6884V31.587H23.9979V14.6884C24.0028 10.4297 27.4531 6.97856 31.7118 6.97369H49.6338ZM19.5168 14.6884C19.5249 7.9566 24.98 2.50069 31.7118 2.49339H36.0655V4.48031H31.7118C26.0773 4.4868 21.511 9.05314 21.5045 14.6884V31.587H19.5168V14.6884ZM87.5744 80.204C87.5744 87.5486 81.6209 93.502 74.2763 93.502C66.9317 93.502 60.9783 87.5486 60.9783 80.204C60.9783 72.8594 66.9317 66.9059 74.2763 66.9059C81.6169 66.914 87.5663 72.8634 87.5744 80.204ZM73.0296 36.9893V64.4661C68.5631 64.8143 64.4554 67.0463 61.7323 70.6038C59.0092 74.1621 57.9273 78.7105 58.7584 83.1129H11.225C9.61872 83.1113 8.31765 81.8102 8.31603 80.204V36.9893C8.31765 35.3839 9.61872 34.0828 11.225 34.0804H70.1207C71.7269 34.0828 73.028 35.3839 73.0296 36.9893Z" fill="#D4A5A6"/>
<path d="M34.6995 61.231C36.0395 61.231 37.1255 60.145 37.1255 58.8049C37.1255 57.4649 36.0395 56.3789 34.7003 56.3789C33.3603 56.3789 32.2743 57.4649 32.2743 58.8049C32.2759 60.1442 33.3603 61.2293 34.6995 61.231ZM34.6995 58.7376C34.7368 58.7376 34.7669 58.7676 34.7669 58.8049C34.7669 58.8423 34.7368 58.8723 34.6995 58.8723C34.6622 58.8723 34.6321 58.8423 34.6321 58.8049C34.6321 58.7676 34.6622 58.7376 34.6995 58.7376Z" fill="#D4A5A6"/>
<path d="M46.6462 61.231C47.9854 61.231 49.0714 60.1442 49.0714 58.8049C49.0714 57.4649 47.9854 56.3789 46.6462 56.3789C45.3062 56.3789 44.2202 57.4649 44.2202 58.8049C44.2218 60.1442 45.307 61.2293 46.6462 61.231ZM46.6462 58.7376C46.6835 58.7376 46.7136 58.7676 46.7136 58.8049C46.7136 58.8423 46.6827 58.8723 46.6454 58.8723C46.608 58.8723 46.578 58.8423 46.578 58.8049C46.578 58.7676 46.6089 58.7376 46.6462 58.7376Z" fill="#D4A5A6"/>
<path d="M58.592 61.231C59.9321 61.231 61.0181 60.1442 61.0181 58.8049C61.0181 57.4649 59.9321 56.3789 58.592 56.3789C57.252 56.3789 56.166 57.4649 56.166 58.8049C56.1676 60.1442 57.2528 61.2293 58.592 61.231ZM58.592 58.7376C58.6294 58.7376 58.6594 58.7676 58.6594 58.8049C58.6594 58.8423 58.6294 58.8723 58.592 58.8723C58.5547 58.8723 58.5247 58.8423 58.5247 58.8049C58.5247 58.7676 58.5547 58.7376 58.592 58.7376Z" fill="#D4A5A6"/>
<path d="M22.7537 61.231C24.0929 61.231 25.1797 60.1442 25.1797 58.8049C25.1797 57.4649 24.0929 56.3789 22.7537 56.3789C21.4137 56.3789 20.3277 57.4649 20.3277 58.8049C20.3293 60.1442 21.4145 61.2293 22.7537 61.231ZM22.7537 58.7376C22.791 58.7376 22.8211 58.7676 22.8211 58.8049C22.8211 58.8423 22.791 58.8723 22.7537 58.8723C22.7164 58.8723 22.6863 58.8423 22.6863 58.8049C22.6863 58.7676 22.7164 58.7376 22.7537 58.7376Z" fill="#D4A5A6"/>
<path d="M68.874 75.6504C68.874 76.3395 69.4324 76.8971 70.1207 76.8971C70.809 76.8971 71.3674 76.3395 71.3674 75.6504C71.3674 74.8428 71.7034 74.0709 72.2943 73.5206C72.886 72.9703 73.6798 72.6911 74.4857 72.7487C75.76 72.8404 76.8257 73.7527 77.113 74.9978C77.3995 76.2429 76.8395 77.5294 75.7332 78.1689C74.0474 79.1681 73.0183 80.987 73.0296 82.9463V84.7506C73.0296 85.4389 73.5881 85.9973 74.2763 85.9973C74.9646 85.9973 75.523 85.4389 75.523 84.7506V82.9463C75.5108 81.8749 76.0668 80.8782 76.9848 80.3255C79.2525 79.0122 80.25 76.2599 79.3507 73.799C78.4522 71.3373 75.9167 69.8755 73.3356 70.3316C70.7554 70.7878 68.874 73.0304 68.874 75.6504Z" fill="#D4A5A6"/>
<path d="M74.2764 86.2807C73.2058 86.2807 72.3373 87.1492 72.3373 88.2206C72.3373 89.2913 73.2058 90.1598 74.2764 90.1598C75.3478 90.1598 76.2164 89.2913 76.2164 88.2198C76.2147 87.1492 75.347 86.2823 74.2764 86.2807ZM74.2764 88.7742C73.9704 88.7742 73.722 88.5266 73.722 88.2198C73.722 87.9138 73.9704 87.6663 74.2764 87.6663C74.5824 87.6663 74.8308 87.9138 74.8308 88.2198C74.83 88.5258 74.5824 88.7742 74.2764 88.7742Z" fill="#D4A5A6"/>
</g>
<defs>
<clipPath id="clip0">
<rect width="96" height="96" fill="white"/>
</clipPath>
</defs>
</svg>
