<svg width="32" height="36" viewBox="0 0 32 36" fill="none" xmlns="http://www.w3.org/2000/svg">
<path d="M9.35155 29.7179C8.27628 27.7648 7.70761 25.3709 7.70761 22.7789C7.70761 18.4228 11.4309 14.8769 15.9985 14.8769C20.575 14.8769 24.2895 18.4229 24.2895 22.7789C24.2895 23.2739 24.6893 23.6789 25.1781 23.6789C25.6669 23.6789 26.0668 23.2739 26.0668 22.7789C26.0668 17.4238 21.5525 13.0768 15.9986 13.0768C10.4447 13.0768 5.9303 17.4329 5.9303 22.7789C5.9303 25.6769 6.57903 28.3858 7.80534 30.5998C9.00499 32.7689 9.84033 33.7679 11.3776 35.3428C11.5553 35.5228 11.7775 35.6128 12.0085 35.6128C12.2307 35.6128 12.4617 35.5318 12.6217 35.3428C12.9772 35.0008 12.9772 34.4248 12.6306 34.0738C11.2621 32.6789 10.4979 31.7879 9.35155 29.7179Z" fill="#7A1A2B"/>
<path d="M6.11692 4.33797C9.16495 2.65494 12.4884 1.79997 16.0163 1.79997C19.553 1.79997 22.5121 2.565 25.9157 4.347C26.0489 4.41003 26.1822 4.44597 26.3245 4.44597C26.6444 4.44597 26.9554 4.266 27.1153 3.95997C27.3375 3.51894 27.1686 2.97 26.7332 2.74497C23.1076 0.846028 19.8019 0 16.0163 0C12.1951 0 8.57845 0.927028 5.26383 2.754C4.82838 2.997 4.67734 3.537 4.90835 3.97803C5.14828 4.41897 5.68146 4.57203 6.11692 4.33797Z" fill="#7A1A2B"/>
<path d="M15.9363 8.69397C10.2046 8.69397 4.96174 11.943 2.5891 16.965C1.78042 18.666 1.3717 20.628 1.3717 22.788C1.3717 25.218 1.79825 27.54 2.66908 29.9069C2.84677 30.375 3.35329 30.6089 3.81541 30.4379C4.27752 30.2579 4.50854 29.7449 4.33967 29.2769C3.28215 26.406 3.15777 24.192 3.15777 22.788C3.15777 20.898 3.50433 19.197 4.19747 17.739C6.27686 13.3289 10.8889 10.485 15.9451 10.485C23.0453 10.485 28.8214 16.002 28.8214 22.788C28.8214 24.7229 27.1596 26.2889 25.1247 26.2889C23.0898 26.2889 21.428 24.7139 21.428 22.788C21.428 19.8629 18.9754 17.4869 15.954 17.4869C12.9327 17.4869 10.4801 19.8629 10.4801 22.788C10.4801 26.3429 11.8486 29.682 14.3278 32.184C16.2473 34.1189 18.0957 35.181 20.9303 35.964C21.0014 35.991 21.0814 36 21.1614 36C21.5523 36 21.9078 35.739 22.0144 35.343C22.1477 34.866 21.8634 34.371 21.3924 34.236C18.8864 33.543 17.2513 32.6069 15.5718 30.915C13.4302 28.755 12.2484 25.866 12.2484 22.797C12.2484 20.862 13.9101 19.296 15.945 19.296C17.98 19.296 19.6417 20.8711 19.6417 22.797C19.6417 25.722 22.1033 28.098 25.1157 28.098C28.1282 28.098 30.5897 25.722 30.5897 22.797C30.5898 15.021 24.0139 8.69397 15.9363 8.69397Z" fill="#7A1A2B"/>
<path d="M31.8339 12.4202C30.0655 9.91823 27.8261 7.95618 25.1691 6.57023C19.5708 3.65423 12.4262 3.66326 6.83672 6.58821C4.17083 7.98318 1.92257 9.96321 0.163083 12.4832C-0.121251 12.8882 -0.0235295 13.4462 0.376354 13.7343C0.536308 13.8423 0.714006 13.8963 0.891787 13.8963C1.16729 13.8963 1.44271 13.7703 1.62049 13.5273C3.21111 11.2413 5.2461 9.45029 7.65432 8.19032C12.7462 5.52635 19.2599 5.51732 24.3605 8.17235C26.7598 9.41435 28.7859 11.1963 30.3855 13.4643C30.6698 13.8693 31.2296 13.9594 31.6295 13.6713C32.0294 13.3832 32.1183 12.8252 31.8339 12.4202Z" fill="#7A1A2B"/>
<path d="M26.6 30.312C25.8891 30.438 25.1693 30.483 24.7428 30.483C22.9656 30.483 21.4904 30.0601 20.2374 29.1961C18.0781 27.7111 16.7895 25.3171 16.7895 22.788C16.7895 22.293 16.3896 21.888 15.9009 21.888C15.4121 21.888 15.0122 22.293 15.0122 22.788C15.0122 25.92 16.594 28.8721 19.2332 30.69C20.7705 31.743 22.6278 32.283 24.7427 32.283C24.9915 32.283 25.8713 32.274 26.911 32.085C27.3909 31.9949 27.7197 31.527 27.6308 31.041C27.5419 30.555 27.0799 30.2221 26.6 30.312Z" fill="#7A1A2B"/>
</svg>
