<svg width="36" height="36" viewBox="0 0 36 36" fill="none" xmlns="http://www.w3.org/2000/svg">
<path fill-rule="evenodd" clip-rule="evenodd" d="M36 30.1641V26.1211C36 25.6163 35.5907 25.207 35.0859 25.207C34.5811 25.207 34.1719 25.6163 34.1719 26.1211V30.1641C34.1719 32.374 32.374 34.1719 30.1641 34.1719H26.1211C25.6163 34.1719 25.207 34.5811 25.207 35.0859C25.207 35.5907 25.6163 36 26.1211 36H30.1641C33.382 36 36 33.382 36 30.1641ZM10.793 35.0859C10.793 34.5811 10.3837 34.1719 9.87891 34.1719H5.83594C3.62605 34.1719 1.82812 32.374 1.82812 30.1641V26.1211C1.82812 25.6163 1.41887 25.207 0.914062 25.207C0.409254 25.207 0 25.6163 0 26.1211V30.1641C0 33.382 2.61802 36 5.83594 36H9.87891C10.3837 36 10.793 35.5907 10.793 35.0859ZM1.82812 9.87891V5.83594C1.82812 3.62602 3.62605 1.82812 5.83594 1.82812H9.87891C10.3837 1.82812 10.793 1.41887 10.793 0.914062C10.793 0.409254 10.3837 0 9.87891 0H5.83594C2.61802 0 0 2.61798 0 5.83594V9.87891C0 10.3837 0.409254 10.793 0.914062 10.793C1.41887 10.793 1.82812 10.3837 1.82812 9.87891ZM36 9.87891V5.83594C36 2.61798 33.382 0 30.1641 0H26.1211C25.6163 0 25.207 0.409254 25.207 0.914062C25.207 1.41887 25.6163 1.82812 26.1211 1.82812H30.1641C32.374 1.82812 34.1719 3.62602 34.1719 5.83594V9.87891C34.1719 10.3837 34.5811 10.793 35.0859 10.793C35.5907 10.793 36 10.3837 36 9.87891ZM24.3081 26.6074C24.6932 26.2517 24.717 25.6512 24.3613 25.2661C24.0055 24.881 23.405 24.8572 23.0199 25.2129C21.6496 26.4786 19.8669 27.1757 18 27.1757C16.1332 27.1757 14.3504 26.4786 12.9801 25.2129C12.595 24.8572 11.9945 24.881 11.6388 25.2661C11.2831 25.6512 11.3069 26.2517 11.692 26.6074C13.4141 28.1981 15.6543 29.0741 18 29.0741C20.3458 29.0741 22.586 28.1981 24.3081 26.6074ZM19.8984 20.3203V13.5703C19.8984 13.0461 19.4735 12.6211 18.9492 12.6211C18.425 12.6211 18 13.0461 18 13.5703V20.3203C18 20.6111 17.7634 20.8477 17.4727 20.8477H16.6992C16.175 20.8477 15.75 21.2726 15.75 21.7969C15.75 22.3211 16.175 22.7461 16.6992 22.7461H17.4727C18.8102 22.7461 19.8984 21.6579 19.8984 20.3203ZM26.4375 16.2246V13.5176C26.4375 13.0225 26.0361 12.6211 25.541 12.6211C25.0459 12.6211 24.6445 13.0225 24.6445 13.5176V16.2246C24.6445 16.7197 25.0459 17.1211 25.541 17.1211C26.0361 17.1211 26.4375 16.7197 26.4375 16.2246ZM10.6699 17.1211C10.1748 17.1211 9.77344 16.7197 9.77344 16.2246V13.5176C9.77344 13.0225 10.1748 12.6211 10.6699 12.6211C11.165 12.6211 11.5664 13.0225 11.5664 13.5176V16.2246C11.5664 16.7197 11.165 17.1211 10.6699 17.1211Z" fill="#7A1A2B"/>
</svg>
