<svg width="80" height="80" viewBox="0 0 80 80" fill="none" xmlns="http://www.w3.org/2000/svg">
<g clip-path="url(#clip0)">
<path d="M38.33 59.75C37.0702 59.75 35.862 59.2496 34.9712 58.3588C34.0804 57.468 33.58 56.2598 33.58 55V46.42H25C23.7402 46.42 22.532 45.9196 21.6412 45.0288C20.7504 44.138 20.25 42.9298 20.25 41.67V38.33C20.25 37.0702 20.7504 35.862 21.6412 34.9712C22.532 34.0804 23.7402 33.58 25 33.58H33.58V25C33.58 23.7402 34.0804 22.532 34.9712 21.6412C35.862 20.7504 37.0702 20.25 38.33 20.25H41.67C42.9298 20.25 44.138 20.7504 45.0288 21.6412C45.9196 22.532 46.42 23.7402 46.42 25V33.58H55C56.2598 33.58 57.468 34.0804 58.3588 34.9712C59.2496 35.862 59.75 37.0702 59.75 38.33V41.67C59.75 42.9298 59.2496 44.138 58.3588 45.0288C57.468 45.9196 56.2598 46.42 55 46.42H46.42V55C46.42 56.2598 45.9196 57.468 45.0288 58.3588C44.138 59.2496 42.9298 59.75 41.67 59.75H38.33ZM25 36.42C24.4925 36.42 24.0057 36.6209 23.6459 36.9788C23.2861 37.3367 23.0826 37.8225 23.08 38.33V41.67C23.0826 42.1775 23.2861 42.6633 23.6459 43.0212C24.0057 43.3791 24.4925 43.58 25 43.58H35C35.3758 43.5826 35.7355 43.7331 36.0012 43.9988C36.2669 44.2645 36.4174 44.6242 36.42 45V55C36.42 55.5075 36.6209 55.9943 36.9788 56.3541C37.3367 56.7139 37.8225 56.9174 38.33 56.92H41.67C42.1775 56.9174 42.6633 56.7139 43.0212 56.3541C43.3791 55.9943 43.58 55.5075 43.58 55V45C43.5826 44.6242 43.7331 44.2645 43.9988 43.9988C44.2645 43.7331 44.6242 43.5826 45 43.58H55C55.5075 43.58 55.9943 43.3791 56.3541 43.0212C56.7139 42.6633 56.9174 42.1775 56.92 41.67V38.33C56.9174 37.8225 56.7139 37.3367 56.3541 36.9788C55.9943 36.6209 55.5075 36.42 55 36.42H45C44.6242 36.4174 44.2645 36.2669 43.9988 36.0012C43.7331 35.7355 43.5826 35.3758 43.58 35V25C43.58 24.4925 43.3791 24.0057 43.0212 23.6459C42.6633 23.2861 42.1775 23.0826 41.67 23.08H38.33C37.8225 23.0826 37.3367 23.2861 36.9788 23.6459C36.6209 24.0057 36.42 24.4925 36.42 25V35C36.4174 35.3758 36.2669 35.7355 36.0012 36.0012C35.7355 36.2669 35.3758 36.4174 35 36.42H25Z" fill="#790013"/>
<path d="M41.67 20.5C42.8627 20.5026 44.0057 20.9776 44.8491 21.8209C45.6924 22.6643 46.1674 23.8073 46.17 25V33.83H55C56.1927 33.8326 57.3357 34.3076 58.1791 35.1509C59.0224 35.9943 59.4974 37.1373 59.5 38.33V41.67C59.4974 42.8627 59.0224 44.0057 58.1791 44.8491C57.3357 45.6924 56.1927 46.1674 55 46.17H46.17V55C46.1674 56.1927 45.6924 57.3357 44.8491 58.1791C44.0057 59.0224 42.8627 59.4974 41.67 59.5H38.33C37.1373 59.4974 35.9943 59.0224 35.1509 58.1791C34.3076 57.3357 33.8326 56.1927 33.83 55V46.17H25C23.8073 46.1674 22.6643 45.6924 21.8209 44.8491C20.9776 44.0057 20.5026 42.8627 20.5 41.67V38.33C20.5026 37.1373 20.9776 35.9943 21.8209 35.1509C22.6643 34.3076 23.8073 33.8326 25 33.83H33.83V25C33.8326 23.8073 34.3076 22.6643 35.1509 21.8209C35.9943 20.9776 37.1373 20.5026 38.33 20.5H41.67ZM25 43.83H35C35.3095 43.8326 35.6056 43.9567 35.8244 44.1756C36.0433 44.3944 36.1674 44.6905 36.17 45V55C36.17 55.5738 36.3972 56.1242 36.802 56.5309C37.2068 56.9376 37.7562 57.1674 38.33 57.17H41.67C42.2438 57.1674 42.7932 56.9376 43.198 56.5309C43.6028 56.1242 43.83 55.5738 43.83 55V45C43.8326 44.6905 43.9567 44.3944 44.1756 44.1756C44.3944 43.9567 44.6905 43.8326 45 43.83H55C55.5738 43.83 56.1242 43.6028 56.5309 43.198C56.9376 42.7932 57.1674 42.2438 57.17 41.67V38.33C57.1674 37.7562 56.9376 37.2068 56.5309 36.802C56.1242 36.3972 55.5738 36.17 55 36.17H45C44.6905 36.1674 44.3944 36.0433 44.1756 35.8244C43.9567 35.6056 43.8326 35.3095 43.83 35V25C43.83 24.4262 43.6028 23.8758 43.198 23.4691C42.7932 23.0624 42.2438 22.8326 41.67 22.83H38.33C37.7562 22.8326 37.2068 23.0624 36.802 23.4691C36.3972 23.8758 36.17 24.4262 36.17 25V35C36.1674 35.3095 36.0433 35.6056 35.8244 35.8244C35.6056 36.0433 35.3095 36.1674 35 36.17H25C24.4262 36.17 23.8758 36.3972 23.4691 36.802C23.0624 37.2068 22.8326 37.7562 22.83 38.33V41.67C22.8326 42.2438 23.0624 42.7932 23.4691 43.198C23.8758 43.6028 24.4262 43.83 25 43.83ZM41.67 20H38.33C37.0039 20 35.7322 20.5268 34.7945 21.4645C33.8568 22.4021 33.33 23.6739 33.33 25V33.33H25C23.6739 33.33 22.4021 33.8568 21.4645 34.7945C20.5268 35.7322 20 37.0039 20 38.33V41.67C20 42.9961 20.5268 44.2679 21.4645 45.2055C22.4021 46.1432 23.6739 46.67 25 46.67H33.33V55C33.33 56.3261 33.8568 57.5979 34.7945 58.5355C35.7322 59.4732 37.0039 60 38.33 60H41.67C42.9961 60 44.2679 59.4732 45.2055 58.5355C46.1432 57.5979 46.67 56.3261 46.67 55V46.67H55C56.3261 46.67 57.5979 46.1432 58.5355 45.2055C59.4732 44.2679 60 42.9961 60 41.67V38.33C60 37.0039 59.4732 35.7322 58.5355 34.7945C57.5979 33.8568 56.3261 33.33 55 33.33H46.67V25C46.67 23.6739 46.1432 22.4021 45.2055 21.4645C44.2679 20.5268 42.9961 20 41.67 20ZM25 43.33C24.7812 43.3313 24.5642 43.2894 24.3617 43.2065C24.1591 43.1237 23.9749 43.0016 23.8197 42.8473C23.6645 42.6931 23.5414 42.5096 23.4573 42.3076C23.3733 42.1055 23.33 41.8888 23.33 41.67V38.33C23.33 38.1112 23.3733 37.8945 23.4573 37.6924C23.5414 37.4904 23.6645 37.3069 23.8197 37.1527C23.9749 36.9984 24.1591 36.8763 24.3617 36.7935C24.5642 36.7106 24.7812 36.6687 25 36.67H35C35.2193 36.67 35.4365 36.6268 35.6391 36.5429C35.8417 36.459 36.0258 36.3359 36.1809 36.1809C36.3359 36.0258 36.459 35.8417 36.5429 35.6391C36.6268 35.4365 36.67 35.2193 36.67 35V25C36.6687 24.7812 36.7106 24.5642 36.7935 24.3617C36.8763 24.1591 36.9984 23.9749 37.1527 23.8197C37.3069 23.6645 37.4904 23.5414 37.6924 23.4573C37.8945 23.3733 38.1112 23.33 38.33 23.33H41.67C41.8888 23.33 42.1055 23.3733 42.3076 23.4573C42.5096 23.5414 42.6931 23.6645 42.8473 23.8197C43.0016 23.9749 43.1237 24.1591 43.2065 24.3617C43.2894 24.5642 43.3313 24.7812 43.33 25V35C43.33 35.2193 43.3732 35.4365 43.4571 35.6391C43.541 35.8417 43.6641 36.0258 43.8191 36.1809C43.9742 36.3359 44.1583 36.459 44.3609 36.5429C44.5635 36.6268 44.7807 36.67 45 36.67H55C55.2188 36.6687 55.4358 36.7106 55.6383 36.7935C55.8409 36.8763 56.0251 36.9984 56.1803 37.1527C56.3355 37.3069 56.4586 37.4904 56.5427 37.6924C56.6267 37.8945 56.67 38.1112 56.67 38.33V41.67C56.67 41.8888 56.6267 42.1055 56.5427 42.3076C56.4586 42.5096 56.3355 42.6931 56.1803 42.8473C56.0251 43.0016 55.8409 43.1237 55.6383 43.2065C55.4358 43.2894 55.2188 43.3313 55 43.33H45C44.5571 43.33 44.1323 43.5059 43.8191 43.8191C43.5059 44.1323 43.33 44.5571 43.33 45V55C43.3313 55.2188 43.2894 55.4358 43.2065 55.6383C43.1237 55.8409 43.0016 56.0251 42.8473 56.1803C42.6931 56.3355 42.5096 56.4586 42.3076 56.5427C42.1055 56.6267 41.8888 56.67 41.67 56.67H38.33C38.1112 56.67 37.8945 56.6267 37.6924 56.5427C37.4904 56.4586 37.3069 56.3355 37.1527 56.1803C36.9984 56.0251 36.8763 55.8409 36.7935 55.6383C36.7106 55.4358 36.6687 55.2188 36.67 55V45C36.67 44.7807 36.6268 44.5635 36.5429 44.3609C36.459 44.1583 36.3359 43.9742 36.1809 43.8191C36.0258 43.6641 35.8417 43.541 35.6391 43.4571C35.4365 43.3732 35.2193 43.33 35 43.33H25Z" fill="white"/>
<path d="M40.33 79.8C40.2071 79.8153 40.0828 79.8153 39.9599 79.8C39.6299 79.67 7.19995 70.66 7.19995 40.6V13.33C7.20321 13.026 7.30133 12.7305 7.4806 12.4849C7.65988 12.2393 7.91136 12.0558 8.19995 11.96L39.83 0.290009C39.9899 0.230406 40.1592 0.199925 40.33 0.200009C40.504 0.198942 40.6768 0.229435 40.84 0.290009L72.51 12C72.7978 12.0971 73.0484 12.2809 73.2275 12.5262C73.4065 12.7716 73.5052 13.0663 73.51 13.37V40.6C73.51 70.87 41.07 79.67 40.75 79.75C40.6128 79.7854 40.4716 79.8022 40.33 79.8ZM10.13 14.36V40.6C10.13 67.22 37.1899 75.89 40.2799 76.8H40.3899C43.4699 75.89 70.5299 67.22 70.5299 40.6V14.36L40.33 3.23001L10.13 14.36Z" fill="#790013"/>
<path d="M40.33 0.4C40.4802 0.401447 40.629 0.428501 40.77 0.48L72.44 12.15C72.6817 12.2393 72.8906 12.3999 73.0388 12.6107C73.1871 12.8215 73.2677 13.0723 73.27 13.33V40.6C73.27 70.65 40.98 79.47 40.66 79.6C40.5505 79.6153 40.4395 79.6153 40.33 79.6C40.2238 79.6147 40.1162 79.6147 40.01 79.6C34.0958 77.7877 28.5306 74.9882 23.55 71.32C16.18 65.84 7.4 56.11 7.4 40.6V13.33C7.39945 13.0717 7.47896 12.8195 7.62759 12.6082C7.77622 12.3969 7.98667 12.2368 8.23 12.15L39.9 0.48C40.0373 0.427648 40.183 0.400546 40.33 0.4ZM40.33 77.02H40.45C46.4492 75.1634 52.0582 72.2251 57 68.35C66.1 61.12 70.71 51.78 70.71 40.6V14.22L70.45 14.12L40.45 3.12H40.31H40.18L10.18 14.12L9.91 14.22V40.6C9.91 51.78 14.53 61.12 23.63 68.35C28.5854 72.2223 34.2082 75.154 40.22 77H40.33V77.02ZM40.33 0C40.1359 0.00322563 39.9436 0.0369717 39.76 0.1L8.09 11.77C7.77028 11.8869 7.49423 12.0992 7.29926 12.3783C7.10428 12.6573 6.99981 12.9896 7 13.33V40.6C7 70.93 39.58 79.86 39.91 79.94C40.0465 79.9795 40.1879 79.9997 40.33 80C40.4729 80.0154 40.6171 80.0154 40.76 80C41.09 79.91 73.67 71 73.67 40.65V13.33C73.6674 12.9903 73.5618 12.6593 73.3672 12.3808C73.1726 12.1023 72.8981 11.8893 72.58 11.77L40.91 0.1C40.723 0.0369006 40.5273 0.00316684 40.33 0V0ZM40.33 76.6C36.5 75.48 10.33 66.87 10.33 40.6V14.5L40.33 3.44L70.33 14.5V40.6C70.33 66.87 44.17 75.48 40.33 76.6Z" fill="white"/>
<path d="M40.5 72.9C40.3939 72.9159 40.2861 72.9159 40.18 72.9C39.9 72.83 13.1 65.41 13.1 40.53V18C13.1024 17.7399 13.1828 17.4865 13.3307 17.2726C13.4787 17.0587 13.6875 16.894 13.93 16.8L40.06 7.18001C40.3436 7.07334 40.6563 7.07334 40.94 7.18001L67.07 16.8C67.3133 16.8929 67.5228 17.0572 67.6709 17.2714C67.8191 17.4856 67.8989 17.7396 67.9 18V40.49C67.9 65.49 41.09 72.79 40.82 72.86C40.7158 72.8887 40.608 72.9022 40.5 72.9ZM15.65 18.9V40.5C15.65 62.41 37.93 69.56 40.47 70.3C43.07 69.56 65.35 62.41 65.35 40.5V18.89L40.5 9.73001L15.65 18.9Z" fill="#790013"/>
<path d="M40.5 7.2C40.6398 7.19799 40.7788 7.22172 40.91 7.27L67 16.9C67.2306 16.9784 67.4312 17.1262 67.5744 17.3231C67.7177 17.5201 67.7965 17.7565 67.8 18V40.49C67.8 65.38 41.07 72.69 40.8 72.76C40.7006 72.7751 40.5994 72.7751 40.5 72.76C40.4006 72.7751 40.2994 72.7751 40.2 72.76C39.93 72.69 13.2 65.25 13.2 40.49V18C13.2035 17.7565 13.2823 17.5201 13.4256 17.3231C13.5688 17.1262 13.7695 16.9784 14 16.9L40.09 7.27C40.2212 7.22172 40.3602 7.19799 40.5 7.2ZM40.5 70.41H40.56C43.1 69.67 65.45 62.5 65.45 40.51V18.82L65.32 18.77L40.57 9.65H40.5H40.43L15.68 18.77L15.55 18.82V40.49C15.55 62.49 37.9 69.65 40.44 70.39H40.5V70.41ZM40.5 7C40.3369 7.00219 40.175 7.02917 40.02 7.08L13.9 16.71C13.6357 16.8065 13.4075 16.9822 13.2464 17.213C13.0854 17.4438 12.9994 17.7186 13 18V40.49C13 65.49 39.88 72.88 40.15 72.95C40.2659 72.9694 40.3841 72.9694 40.5 72.95C40.6162 72.9647 40.7338 72.9647 40.85 72.95C41.12 72.88 68 65.52 68 40.49V18C68.0006 17.7186 67.9146 17.4438 67.7536 17.213C67.5926 16.9822 67.3643 16.8065 67.1 16.71L41 7.08C40.8386 7.02713 40.6698 7.00013 40.5 7ZM40.5 70.2C37.34 69.27 15.75 62.2 15.75 40.49V19L40.5 9.84L65.25 19V40.49C65.25 62.17 43.66 69.27 40.5 70.2Z" fill="white"/>
</g>
<defs>
<clipPath id="clip0">
<rect width="80" height="80" fill="white"/>
</clipPath>
</defs>
</svg>
