<svg width="80" height="80" viewBox="0 0 80 80" fill="none" xmlns="http://www.w3.org/2000/svg">
<path d="M59.225 8.46623C55.79 11.1825 51.6763 12.9312 47.3313 13.5237L46.25 13.6712V26.5612C46.25 33.7662 50.8075 40.2362 57.5938 42.6599L60 43.5187L62.405 42.6587C69.1912 40.2349 73.75 33.7662 73.75 26.5612V13.6712L72.6687 13.5237C68.3237 12.9312 64.21 11.1812 60.775 8.46623L60 7.85248L59.225 8.46623ZM71.25 15.8312V26.5599C71.25 32.7112 67.3575 38.2349 61.5637 40.3037L60 40.8637L58.4338 40.3049C52.6413 38.2349 48.75 32.7124 48.75 26.5612V15.8325C52.8188 15.1087 56.6712 13.4612 60 11.0187C63.3288 13.46 67.1812 15.1075 71.25 15.8312Z" fill="#790013"/>
<path d="M77.5 8.75C71.385 8.75 65.6362 6.36875 61.3137 2.04625L60 0.731253L58.6875 2.045C54.3638 6.36875 48.615 8.75 42.5 8.75H41.25V16.25H7.5C4.05375 16.25 1.25 19.0538 1.25 22.5V33.75H11.25V61.25H1.25V72.5C1.25 75.9463 4.05375 78.75 7.5 78.75H47.5C50.9463 78.75 53.75 75.9463 53.75 72.5V46.4463C54.4512 46.785 55.1675 47.1025 55.9125 47.3688L60 48.8275L64.0875 47.3688C72.8575 44.235 78.75 35.8738 78.75 26.5613V8.75H77.5ZM46.25 40.5375V51.25H18.75V33.75H42.4713C43.3275 36.225 44.6063 38.5238 46.25 40.5375ZM3.75 31.25V22.5C3.75 20.4325 5.4325 18.75 7.5 18.75C9.5675 18.75 11.25 20.4325 11.25 22.5V31.25H3.75ZM3.75 72.5V63.75H11.25V72.5C11.25 74.5675 9.5675 76.25 7.5 76.25C5.4325 76.25 3.75 74.5675 3.75 72.5ZM51.25 72.5C51.25 74.5675 49.5675 76.25 47.5 76.25H12.4675C13.2612 75.2025 13.75 73.9125 13.75 72.5V22.5C13.75 21.0875 13.2612 19.7975 12.4675 18.75H41.25V26.5613C41.25 28.1613 41.4363 29.7288 41.7688 31.25H16.25V53.75H48.75V43.1325C49.5337 43.825 50.3675 44.4663 51.25 45.045V72.5ZM76.25 26.5613C76.25 34.82 71.0238 42.2363 63.2475 45.0138L60 46.1725L56.7525 45.0138C48.9762 42.2363 43.75 34.82 43.75 26.5613V11.22C49.8525 10.9263 55.56 8.485 60 4.2575C64.4388 8.485 70.1475 10.9263 76.25 11.22V26.5613Z" fill="#790013"/>
<path d="M54.6338 27.8663L52.8663 29.6338L57.5 34.2675L69.6338 22.1338L67.8663 20.3663L57.5 30.7325L54.6338 27.8663Z" fill="#790013"/>
<path d="M16.25 21.25H18.75V23.75H16.25V21.25Z" fill="#790013"/>
<path d="M21.25 21.25H38.75V23.75H21.25V21.25Z" fill="#790013"/>
<path d="M33.3334 70.8333H48.3334V63.3333H33.3334V70.8333ZM35.8334 65.8333H45.8334V68.3333H35.8334V65.8333Z" fill="#790013"/>
<path d="M25 61.25C25.69 61.25 26.25 61.8113 26.25 62.5H28.75C28.75 60.4325 27.0675 58.75 25 58.75V56.25H22.5V58.75H18.75V62.5C18.75 64.5675 20.4325 66.25 22.5 66.25H25C25.69 66.25 26.25 66.8112 26.25 67.5V68.75H22.5C21.81 68.75 21.25 68.1888 21.25 67.5H18.75C18.75 69.5675 20.4325 71.25 22.5 71.25V73.75H25V71.25H28.75V67.5C28.75 65.4325 27.0675 63.75 25 63.75H22.5C21.81 63.75 21.25 63.1887 21.25 62.5V61.25H25Z" fill="#790013"/>
</svg>
