<svg width="96" height="96" viewBox="0 0 96 96" fill="none" xmlns="http://www.w3.org/2000/svg">
<path d="M86.3287 85.0405H9.67136C7.79579 85.0385 5.99758 84.2927 4.67099 82.9669C3.3444 81.641 2.59769 79.8432 2.5946 77.9677V27.2732C2.59494 25.3951 3.34018 23.5938 4.66685 22.2645C5.99352 20.9351 7.79328 20.1863 9.67136 20.1821H36.3658C36.7099 20.1821 37.0399 20.3188 37.2832 20.5621C37.5265 20.8054 37.6631 21.1354 37.6631 21.4794C37.6631 21.8235 37.5265 22.1535 37.2832 22.3968C37.0399 22.64 36.7099 22.7767 36.3658 22.7767H9.67136C8.4812 22.7802 7.34098 23.2554 6.50075 24.0984C5.66051 24.9413 5.18885 26.083 5.1892 27.2732V77.9677C5.19057 79.156 5.66324 80.2952 6.50351 81.1355C7.34378 81.9758 8.48304 82.4484 9.67136 82.4498H86.3287C87.517 82.4484 88.6562 81.9758 89.4965 81.1355C90.3368 80.2952 90.8094 79.156 90.8108 77.9677V27.2732C90.8112 26.083 90.3395 24.9413 89.4993 24.0984C88.659 23.2554 87.5188 22.7802 86.3287 22.7767H59.6342C59.2901 22.7767 58.9601 22.64 58.7169 22.3968C58.4736 22.1535 58.3369 21.8235 58.3369 21.4794C58.3369 21.1354 58.4736 20.8054 58.7169 20.5621C58.9601 20.3188 59.2901 20.1821 59.6342 20.1821H86.3287C88.2067 20.1863 90.0065 20.9351 91.3332 22.2645C92.6598 23.5938 93.4051 25.3951 93.4054 27.2732V77.9677C93.4023 79.8432 92.6556 81.641 91.329 82.9669C90.0024 84.2927 88.2042 85.0385 86.3287 85.0405Z" fill="#D4A5A6"/>
<path d="M57.8452 27.7739H38.1548C37.338 27.7728 36.5549 27.4479 35.9773 26.8703C35.3997 26.2927 35.0748 25.5096 35.0737 24.6928V14.0407C35.0748 13.2238 35.3997 12.4408 35.9773 11.8632C36.5549 11.2856 37.338 10.9606 38.1548 10.9596H57.8452C58.662 10.9606 59.4451 11.2856 60.0227 11.8632C60.6003 12.4408 60.9252 13.2238 60.9263 14.0407V24.6928C60.9252 25.5096 60.6003 26.2927 60.0227 26.8703C59.4451 27.4479 58.662 27.7728 57.8452 27.7739ZM38.1548 13.5542C38.0259 13.5545 37.9024 13.6059 37.8112 13.6971C37.72 13.7882 37.6687 13.9118 37.6683 14.0407V24.6928C37.6687 24.8217 37.72 24.9452 37.8112 25.0364C37.9024 25.1276 38.0259 25.1789 38.1548 25.1793H57.8452C57.9741 25.1789 58.0976 25.1276 58.1888 25.0364C58.28 24.9452 58.3313 24.8217 58.3317 24.6928V14.0407C58.3313 13.9118 58.28 13.7882 58.1888 13.6971C58.0976 13.6059 57.9741 13.5545 57.8452 13.5542H38.1548Z" fill="#D4A5A6"/>
<path d="M27.3198 48.3426C25.7483 48.3426 24.212 47.8766 22.9053 47.0034C21.5986 46.1303 20.5802 44.8894 19.9788 43.4374C19.3773 41.9855 19.22 40.3878 19.5266 38.8465C19.8332 37.3051 20.59 35.8893 21.7012 34.778C22.8125 33.6667 24.2283 32.91 25.7697 32.6034C27.311 32.2968 28.9087 32.4541 30.3606 33.0555C31.8126 33.6569 33.0535 34.6754 33.9267 35.9821C34.7998 37.2888 35.2658 38.8251 35.2658 40.3966C35.2634 42.5033 34.4255 44.523 32.9358 46.0126C31.4462 47.5022 29.4265 48.3402 27.3198 48.3426ZM27.3198 35.0453C26.2615 35.0453 25.2268 35.3591 24.3468 35.9471C23.4668 36.5352 22.7809 37.3709 22.3758 38.3488C21.9708 39.3266 21.8648 40.4026 22.0713 41.4406C22.2778 42.4787 22.7875 43.4322 23.5359 44.1806C24.2843 44.929 25.2378 45.4387 26.2759 45.6452C27.3139 45.8516 28.3899 45.7457 29.3677 45.3406C30.3456 44.9356 31.1813 44.2497 31.7693 43.3697C32.3573 42.4897 32.6712 41.455 32.6712 40.3966C32.6698 38.9778 32.1056 37.6175 31.1023 36.6142C30.099 35.6109 28.7387 35.0467 27.3198 35.0453Z" fill="#D4A5A6"/>
<path d="M41.315 61.968H13.3245C13.1511 61.9681 12.9794 61.9334 12.8195 61.8659C12.6597 61.7985 12.5151 61.6997 12.3941 61.5753C12.2732 61.451 12.1784 61.3036 12.1154 61.142C12.0524 60.9804 12.0224 60.8078 12.0272 60.6344C12.1373 56.6519 13.7967 52.8694 16.6525 50.0915C19.5082 47.3135 23.3351 45.7593 27.3191 45.7593C31.3032 45.7593 35.13 47.3135 37.9858 50.0915C40.8416 52.8694 42.501 56.6519 42.611 60.6344C42.6159 60.8078 42.5859 60.9804 42.5229 61.142C42.4599 61.3036 42.3651 61.451 42.2441 61.5753C42.1232 61.6997 41.9785 61.7985 41.8187 61.8659C41.6589 61.9334 41.4872 61.9681 41.3137 61.968H41.315ZM14.7204 59.3734H39.9139C39.509 56.3201 38.0086 53.5178 35.6919 51.488C33.3751 49.4582 30.3999 48.3392 27.3198 48.3392C24.2397 48.3392 21.2644 49.4582 18.9477 51.488C16.631 53.5178 15.1306 56.3201 14.7256 59.3734H14.7204Z" fill="#D4A5A6"/>
<path d="M82.6754 36.8096H54.0467C53.7026 36.8096 53.3726 36.6729 53.1294 36.4296C52.8861 36.1863 52.7494 35.8563 52.7494 35.5123C52.7494 35.1682 52.8861 34.8382 53.1294 34.5949C53.3726 34.3516 53.7026 34.215 54.0467 34.215H82.6754C83.0195 34.215 83.3495 34.3516 83.5928 34.5949C83.836 34.8382 83.9727 35.1682 83.9727 35.5123C83.9727 35.8563 83.836 36.1863 83.5928 36.4296C83.3495 36.6729 83.0195 36.8096 82.6754 36.8096Z" fill="#D4A5A6"/>
<path d="M82.6754 48.7978H54.0467C53.7026 48.7978 53.3726 48.6612 53.1294 48.4179C52.8861 48.1746 52.7494 47.8446 52.7494 47.5005C52.7494 47.1565 52.8861 46.8265 53.1294 46.5832C53.3726 46.3399 53.7026 46.2032 54.0467 46.2032H82.6754C83.0195 46.2032 83.3495 46.3399 83.5928 46.5832C83.836 46.8265 83.9727 47.1565 83.9727 47.5005C83.9727 47.8446 83.836 48.1746 83.5928 48.4179C83.3495 48.6612 83.0195 48.7978 82.6754 48.7978Z" fill="#D4A5A6"/>
<path d="M82.6754 60.7862H54.0467C53.7026 60.7862 53.3726 60.6496 53.1294 60.4063C52.8861 60.163 52.7494 59.833 52.7494 59.4889C52.7494 59.1449 52.8861 58.8149 53.1294 58.5716C53.3726 58.3283 53.7026 58.1917 54.0467 58.1917H82.6754C83.0195 58.1917 83.3495 58.3283 83.5928 58.5716C83.836 58.8149 83.9727 59.1449 83.9727 59.4889C83.9727 59.833 83.836 60.163 83.5928 60.4063C83.3495 60.6496 83.0195 60.7862 82.6754 60.7862Z" fill="#D4A5A6"/>
<path d="M82.6754 72.7784H13.3245C12.9805 72.7784 12.6505 72.6418 12.4072 72.3985C12.1639 72.1552 12.0272 71.8252 12.0272 71.4811C12.0272 71.1371 12.1639 70.8071 12.4072 70.5638C12.6505 70.3205 12.9805 70.1838 13.3245 70.1838H82.6754C83.0195 70.1838 83.3495 70.3205 83.5927 70.5638C83.836 70.8071 83.9727 71.1371 83.9727 71.4811C83.9727 71.8252 83.836 72.1552 83.5927 72.3985C83.3495 72.6418 83.0195 72.7784 82.6754 72.7784Z" fill="#D4A5A6"/>
</svg>
