<svg width="80" height="82" viewBox="0 0 80 82" fill="none" xmlns="http://www.w3.org/2000/svg">
<path d="M33.1096 1C30.986 1.02659 28.9568 1.88874 27.4551 3.40244C25.9533 4.91614 25.098 6.96151 25.0716 9.10204C25.0332 10.1896 25.2126 11.2738 25.599 12.2899C25.9853 13.3061 26.5709 14.2334 27.3206 15.0164C28.0703 15.7995 28.9688 16.4223 29.9626 16.8477C30.9563 17.2731 32.0249 17.4923 33.1045 17.4923C34.1841 17.4923 35.2527 17.2731 36.2465 16.8477C37.2402 16.4223 38.1387 15.7995 38.8884 15.0164C39.6382 14.2334 40.2237 13.3061 40.6101 12.2899C40.9965 11.2738 41.1758 10.1896 41.1374 9.10204C41.1111 6.96326 40.2572 4.9194 38.7576 3.40598C37.2581 1.89256 35.2314 1.02925 33.1096 1ZM33.1096 14.4966C31.6131 14.4553 30.189 13.8383 29.1295 12.7723C28.07 11.7062 27.4554 10.2719 27.4118 8.7636C27.4629 7.25967 28.0805 5.83187 29.139 4.77067C30.1975 3.70948 31.6173 3.0946 33.1096 3.05115C34.6052 3.09757 36.0268 3.71786 37.0839 4.7853C38.141 5.85274 38.7539 7.28676 38.7972 8.79437C38.8276 9.55401 38.7011 10.3117 38.4256 11.0195C38.1501 11.7272 37.7317 12.3695 37.1969 12.9057C36.6622 13.4418 36.0227 13.8601 35.3191 14.1339C34.6155 14.4078 33.8631 14.5313 33.1096 14.4966Z" fill="#790013" stroke="#790013" stroke-width="0.05" stroke-miterlimit="10"/>
<path d="M62.9112 49.6019C62.662 49.4365 62.3702 49.3483 62.0718 49.3483C61.7734 49.3483 61.4816 49.4365 61.2324 49.6019L51.5257 59.7346L48.1783 56.022C47.9291 55.8566 47.6372 55.7684 47.3389 55.7684C47.0405 55.7684 46.7486 55.8566 46.4995 56.022C46.335 56.2711 46.2472 56.5637 46.2472 56.863C46.2472 57.1622 46.335 57.4548 46.4995 57.7039L50.8542 62.0934C51.1014 62.2592 51.3916 62.3477 51.6885 62.3477C51.9854 62.3477 52.2757 62.2592 52.5229 62.0934L63.2469 51.2531C63.2469 50.9556 63.247 49.9403 62.9112 49.6019Z" fill="#790013" stroke="#790013" stroke-width="0.05" stroke-miterlimit="10"/>
<path d="M69.2703 57.4066C68.5987 57.4066 67.9272 57.7451 67.9272 58.4322C67.2357 61.7783 65.7472 64.9047 63.59 67.5419C61.4328 70.179 58.6717 72.2477 55.5446 73.5697C55.2343 73.7057 54.9903 73.9604 54.8663 74.2777C54.7422 74.5951 54.7484 74.9491 54.8833 75.2619C55.0182 75.5747 55.2709 75.8207 55.5857 75.9457C55.9006 76.0707 56.2518 76.0645 56.5621 75.9285C60.073 74.5086 63.1711 72.2176 65.5689 69.2683C67.9666 66.3189 69.5863 62.8068 70.2775 59.0578C70.3192 58.7084 70.2424 58.355 70.0595 58.0552C69.8766 57.7554 69.5984 57.5268 69.2703 57.4066Z" fill="#790013" stroke="#790013" stroke-width="0.05" stroke-miterlimit="10"/>
<path d="M67.2659 39.4796C65.9606 40.2727 64.4773 40.7197 62.9544 40.7789C61.4314 40.8381 59.9184 40.5075 58.5564 39.8181C57.2574 38.898 56.128 37.7561 55.2191 36.4439C55.0637 36.1308 54.8236 35.8684 54.5266 35.6869C54.2295 35.5054 53.8876 35.4123 53.5403 35.4184C51.8961 30.4841 49.011 26.0636 45.1665 22.5884C44.3122 21.7936 43.3108 21.1761 42.2197 20.7714C41.1286 20.3667 39.9691 20.1826 38.8074 20.2296H27.7475C25.2602 20.2555 22.8723 21.2175 21.0526 22.9269C17.3693 26.6394 11 34.4133 11 46.2279C11.0088 47.4219 11.4606 48.5692 12.2665 49.4443C13.0725 50.3193 14.1742 50.8585 15.3548 50.9558C15.9749 50.9713 16.5917 50.8596 17.1677 50.6275C17.7438 50.3953 18.267 50.0477 18.7056 49.6055C19.1443 49.1634 19.4892 48.636 19.7195 48.0554C19.9498 47.4747 20.0606 46.853 20.0453 46.2279C20.0816 41.7976 21.3584 37.4676 23.7285 33.7364V76.9439C23.7085 77.4813 23.7988 78.017 23.9937 78.5177C24.1886 79.0183 24.4839 79.4729 24.8612 79.8532C25.2385 80.2334 25.6895 80.5311 26.1862 80.7276C26.6828 80.924 27.2144 81.015 27.7475 80.9949H30.4234C30.9982 80.9993 31.5674 80.881 32.0935 80.6476C32.6196 80.4143 33.0907 80.0713 33.4758 79.6411C33.8679 80.0624 34.3404 80.3995 34.8649 80.6322C35.3894 80.8648 35.9552 80.9882 36.5282 80.9949H39.2042C39.746 81.0229 40.2875 80.9359 40.7939 80.7397C41.3002 80.5434 41.7601 80.2422 42.1437 79.8556C42.5273 79.4689 42.8261 79.0054 43.0208 78.495C43.2155 77.9846 43.3018 77.4387 43.274 76.8926V70.8725C45.3634 73.0446 47.8698 74.7649 50.6405 75.9286C50.9508 76.0646 51.302 76.0707 51.6169 75.9457C51.9317 75.8207 52.1844 75.5747 52.3193 75.2619C52.4542 74.9491 52.4604 74.5951 52.3363 74.2778C52.2123 73.9604 51.9683 73.7057 51.658 73.5697C47.86 72.0143 44.608 69.3533 42.3173 65.9264C40.0266 62.4994 38.8011 58.4622 38.7972 54.33V41.5C40.8055 42.7954 43.1896 43.3677 45.5617 43.1238C47.9337 42.8798 50.154 41.834 51.8615 40.1565C52.7241 39.549 53.4233 38.7349 53.8964 37.7874C54.8474 39.493 56.2354 40.9098 57.9154 41.8897C60.2556 43.2435 63.9388 44.5973 68.9651 41.8897V53.3044C68.9651 53.5764 69.0723 53.8372 69.2631 54.0296C69.4539 54.2219 69.7127 54.33 69.9825 54.33C70.2524 54.33 70.5112 54.2219 70.702 54.0296C70.8928 53.8372 71 53.5764 71 53.3044V41.5C70.6134 39.4796 68.9345 38.4643 67.2659 39.4796ZM35.114 22.2602L33.7709 23.9524C33.5859 24.1141 33.3493 24.2031 33.1045 24.2031C32.8596 24.2031 32.623 24.1141 32.438 23.9524L31.095 22.2602H35.114ZM42.8162 40.495V33.7364C44.1707 35.8186 45.2001 38.098 45.8686 40.495C44.8808 40.8452 43.804 40.8452 42.8162 40.495ZM47.8425 39.8181C46.8622 36.0749 45.0259 32.6152 42.4804 29.7162C42.3285 29.5458 42.1306 29.4238 41.911 29.3649C41.6913 29.306 41.4594 29.3129 41.2436 29.3847C41.0278 29.4565 40.8374 29.5901 40.6957 29.7691C40.5539 29.9482 40.467 30.165 40.4455 30.393V40.1873C40.136 39.9193 39.7942 39.6918 39.428 39.5104C39.076 39.3546 38.692 39.2866 38.3084 39.3123C37.9248 39.3379 37.5531 39.4564 37.2246 39.6577C36.8961 39.8589 36.6206 40.1371 36.4214 40.4685C36.2223 40.7999 36.1054 41.1749 36.0805 41.5616V54.33C35.9776 59.1955 37.5126 63.9528 40.4353 67.8265V76.6054C40.4486 76.8312 40.4144 77.0572 40.3347 77.2686C40.2551 77.48 40.1319 77.672 39.9732 77.8319C39.8146 77.9918 39.6241 78.116 39.4144 78.1962C39.2047 78.2765 38.9804 78.3111 38.7565 78.2976H36.1212C35.8973 78.3111 35.6731 78.2765 35.4633 78.1962C35.2536 78.116 35.0631 77.9918 34.9045 77.8319C34.7459 77.672 34.6227 77.48 34.543 77.2686C34.4634 77.0572 34.4291 76.8312 34.4424 76.6054V52.6378C34.4424 52.3658 34.3352 52.1049 34.1444 51.9126C33.9536 51.7202 33.6948 51.6122 33.425 51.6122C33.1551 51.6122 32.8963 51.7202 32.7055 51.9126C32.5147 52.1049 32.4075 52.3658 32.4075 52.6378V76.6054C32.4201 76.8249 32.3877 77.0447 32.3123 77.2509C32.2369 77.4572 32.1202 77.6456 31.9693 77.8044C31.8185 77.9632 31.6368 78.089 31.4356 78.1738C31.2344 78.2587 31.018 78.3008 30.7999 78.2976H27.7475C27.5236 78.3111 27.2993 78.2765 27.0896 78.1962C26.8799 78.116 26.6894 77.9918 26.5308 77.8319C26.3721 77.672 26.2489 77.48 26.1693 77.2686C26.0896 77.0572 26.0553 76.8312 26.0687 76.6054V30.0238C26.0895 29.7749 26.0261 29.5262 25.889 29.3181C25.7519 29.1101 25.549 28.9548 25.3133 28.8776C25.0776 28.8004 24.823 28.8057 24.5907 28.8928C24.3584 28.9799 24.1621 29.1435 24.0337 29.3572C19.961 34.0192 17.7114 40.0162 17.7051 46.2279C17.7263 46.5515 17.6813 46.8759 17.573 47.1812C17.4647 47.4865 17.2954 47.7662 17.0756 48.0029C16.8557 48.2396 16.59 48.4282 16.2949 48.5572C15.9998 48.6862 15.6815 48.7528 15.3598 48.7528C15.0382 48.7528 14.7199 48.6862 14.4248 48.5572C14.1297 48.4282 13.864 48.2396 13.6441 48.0029C13.4243 47.7662 13.255 47.4865 13.1467 47.1812C13.0384 46.8759 12.9934 46.5515 13.0146 46.2279C13.0489 42.1705 13.8968 38.162 15.5071 34.4433C17.1175 30.7246 19.4571 27.3724 22.3855 24.5883C23.7429 23.2879 25.5391 22.5549 27.4117 22.5371H27.7475L30.7999 25.2447C32.143 26.5882 34.4831 26.5882 35.4904 25.2447L38.1664 22.1679H38.5021C39.38 22.1784 40.2469 22.3652 41.0523 22.7174C41.8577 23.0695 42.5853 23.5801 43.1926 24.2191C46.8288 27.5494 49.5665 31.7558 51.1492 36.4439C50.306 37.7996 49.177 38.9516 47.8425 39.8181Z" fill="#790013" stroke="#790013" stroke-width="0.05" stroke-miterlimit="10"/>
</svg>
