<svg width="40" height="40" viewBox="0 0 40 40" fill="none" xmlns="http://www.w3.org/2000/svg">
<path d="M40 0H0V40H40V0Z" fill="#0084B1"/>
<path d="M9.41389 6.07507C11.2459 6.07657 12.7569 7.58974 12.753 9.43091C12.7486 11.3588 11.1487 12.8119 9.39133 12.77C7.60888 12.8061 6.04243 11.3173 6.04278 9.41819C6.04278 7.57631 7.55964 6.07367 9.41389 6.07507Z" fill="white"/>
<path d="M11.3603 33.921H7.43512C6.92569 33.921 6.51273 33.508 6.51273 32.9986V16.2534C6.51273 15.744 6.92569 15.3311 7.43512 15.3311H11.3603C11.8697 15.3311 12.2827 15.744 12.2827 16.2534V32.9987C12.2826 33.508 11.8697 33.921 11.3603 33.921Z" fill="white"/>
<path d="M33.9572 21.2127C33.9572 17.7022 31.1114 14.8563 27.6008 14.8563H26.5941C24.6735 14.8563 22.9767 15.8146 21.9561 17.2793C21.8448 17.439 21.7417 17.6048 21.6471 17.7759C21.6144 17.771 21.595 17.7685 21.5945 17.7693V15.7139C21.5945 15.5025 21.4231 15.331 21.2116 15.331H16.3144C16.103 15.331 15.9315 15.5024 15.9315 15.7139V33.5382C15.9315 33.7496 16.1028 33.921 16.3142 33.9211L21.3182 33.9224C21.5297 33.9225 21.7012 33.7509 21.7012 33.5394V23.2419C21.7012 21.4619 23.1209 19.9839 24.9008 19.9638C25.8094 19.9535 26.6331 20.3176 27.2268 20.9116C27.8127 21.4971 28.1749 22.3067 28.1749 23.2006V33.5407C28.1749 33.7522 28.3463 33.9236 28.5577 33.9237L33.574 33.9249C33.7855 33.925 33.957 33.7535 33.957 33.542V21.2127H33.9572Z" fill="white"/>
</svg>
