<svg width="26" height="26" viewBox="0 0 26 26" fill="none" xmlns="http://www.w3.org/2000/svg">
<path d="M13 0C5.82038 0 0 5.82038 0 13C0 20.1796 5.82038 26 13 26C20.1796 26 26 20.1796 26 13C25.992 5.82376 20.1762 0.00804039 13 0ZM24.2432 17.5542L20.5461 18.1922C20.9693 16.6402 21.1978 15.0416 21.2264 13.4333H25.1225C25.0737 14.848 24.776 16.243 24.2432 17.5542ZM0.877458 13.4333H4.77365C4.80221 15.0416 5.03073 16.6402 5.45391 18.1922L1.75682 17.5542C1.22404 16.243 0.926335 14.848 0.877458 13.4333ZM1.75682 8.44577L5.45391 7.80783C5.03073 9.35983 4.80221 10.9584 4.77365 12.5667H0.877458C0.926335 11.152 1.22404 9.75698 1.75682 8.44577ZM13.4333 6.95767C14.9904 6.97756 16.5437 7.11932 18.0788 7.3819L19.6083 7.64575C20.0783 9.24494 20.3311 10.9 20.3601 12.5667H13.4333V6.95767ZM18.2264 6.52772C16.6427 6.2571 15.0399 6.11089 13.4333 6.091V0.890999C15.9176 1.12967 18.0756 3.40425 19.2986 6.71455L18.2264 6.52772ZM12.5667 6.091C10.9601 6.11089 9.35771 6.2571 7.77397 6.52772L6.70143 6.71328C7.92441 3.40213 10.0824 1.12671 12.5667 0.889095V6.091ZM7.92166 7.3819C9.45653 7.11932 11.0096 6.97756 12.5667 6.95767V12.5667H5.63989C5.66888 10.9 5.92173 9.24494 6.39167 7.64575L7.92166 7.3819ZM5.63989 13.4333H12.5667V19.0423C11.0096 19.0224 9.45632 18.8807 7.92124 18.6181L6.39167 18.3542C5.92173 16.7551 5.66888 15.1 5.63989 13.4333ZM7.77355 19.4723C9.35729 19.7433 10.9599 19.8902 12.5667 19.9113V25.1113C10.0824 24.8724 7.92441 22.5979 6.70143 19.2876L7.77355 19.4723ZM13.4333 19.9113C15.0399 19.8902 16.6423 19.7433 18.226 19.4723L19.2986 19.2867C18.0756 22.5979 15.9176 24.8733 13.4333 25.1109V19.9113ZM18.0783 18.6181C16.5435 18.8807 14.9904 19.0224 13.4333 19.0423V13.4333H20.3601C20.3311 15.1 20.0783 16.7551 19.6083 18.3542L18.0783 18.6181ZM21.2264 12.5667C21.1978 10.9584 20.9693 9.35983 20.5461 7.80783L24.2432 8.44577C24.776 9.75698 25.0737 11.152 25.1225 12.5667H21.2264ZM23.8048 7.49066L20.2609 6.87917C19.6238 4.80073 18.4319 2.93537 16.8132 1.48408C19.84 2.49421 22.3501 4.6505 23.8048 7.49066ZM9.18675 1.48408C7.5681 2.93537 6.37622 4.80073 5.73913 6.87917L2.19523 7.49066C3.6499 4.6505 6.15998 2.49421 9.18675 1.48408ZM2.19523 18.5093L5.73913 19.1208C6.37622 21.1993 7.5681 23.0646 9.18675 24.5159C6.15998 23.5058 3.6499 21.3495 2.19523 18.5093ZM16.8132 24.5159C18.4319 23.0646 19.6238 21.1993 20.2609 19.1208L23.8048 18.5093C22.3501 21.3495 19.84 23.5058 16.8132 24.5159Z" fill="white"/>
</svg>
