<svg width="122" height="56" viewBox="0 0 122 56" fill="none" xmlns="http://www.w3.org/2000/svg">
<path fill-rule="evenodd" clip-rule="evenodd" d="M122 56L-7.62939e-06 56L-3.84927e-06 12.7604L60.8724 6.10015e-06L122 13.3525L122 56Z" fill="white"/>
<rect x="51" y="27" width="5" height="5" fill="#790013"/>
<rect x="59" y="27" width="5" height="5" fill="#790013"/>
<rect x="67" y="27" width="5" height="5" fill="#790013"/>
<rect x="67" y="19" width="5" height="5" fill="#790013"/>
<rect x="59" y="19" width="5" height="5" fill="#790013"/>
<rect x="51" y="19" width="5" height="5" fill="#790013"/>
<rect x="59" y="11" width="5" height="5" fill="#790013"/>
<path d="M53.9175 49V40.084H52.0935L50.2815 43.552C50.0895 43.912 49.8975 44.32 49.7295 44.704H49.7055C49.5375 44.332 49.3455 43.924 49.1655 43.576L47.3775 40.084H45.5535V49H47.1855V44.056C47.1855 43.48 47.1615 43.084 47.1375 42.52H47.1615C47.3775 42.94 47.5575 43.372 47.7615 43.756L49.0575 46.264H50.3895L51.7095 43.756C51.9135 43.36 52.1295 42.964 52.3215 42.52H52.3455C52.3095 43.084 52.2855 43.492 52.2855 44.056V49H53.9175ZM61.5791 46.12V45.592C61.5791 43.54 60.7871 42.076 58.5311 42.076C56.5151 42.076 55.4831 43.18 55.4831 45.448V45.868C55.4831 48.244 56.3471 49.18 58.7831 49.18C59.9111 49.18 60.7871 49.012 61.2911 48.892V47.704C60.4031 47.788 59.5631 47.86 58.8551 47.86C57.1991 47.86 57.0551 47.224 57.0551 46.24V46.12H61.5791ZM59.9951 45.088H57.0671V44.98C57.0671 44.212 57.2591 43.348 58.5311 43.348C59.8391 43.348 59.9951 44.2 59.9951 44.98V45.088ZM68.9399 49V44.716C68.9399 43.18 68.6879 42.076 66.7799 42.076C66.0239 42.076 65.2919 42.364 64.5599 42.784V42.244H63.0479V49H64.6199V43.864C65.3399 43.576 65.9399 43.408 66.3959 43.408C67.1759 43.408 67.3439 43.744 67.3439 44.716V49H68.9399ZM76.5213 49V42.244H74.9373V47.392C74.2173 47.668 73.6293 47.848 73.1733 47.848C72.3813 47.848 72.2013 47.5 72.2013 46.54V42.244H70.6293V46.54C70.6293 47.932 70.8933 49.18 72.6573 49.18C73.4373 49.18 74.1933 48.892 74.9973 48.46V49H76.5213Z" fill="#7A1A2B"/>
</svg>
