<svg width="96" height="96" viewBox="0 0 96 96" fill="none" xmlns="http://www.w3.org/2000/svg">
<path d="M73.946 45.4963C73.6019 45.4963 73.2719 45.3596 73.0287 45.1163C72.7854 44.873 72.6487 44.543 72.6487 44.199V40.346C72.6487 40.0019 72.7854 39.672 73.0287 39.4287C73.2719 39.1854 73.6019 39.0487 73.946 39.0487C74.29 39.0487 74.62 39.1854 74.8633 39.4287C75.1066 39.672 75.2433 40.0019 75.2433 40.346V44.199C75.2433 44.543 75.1066 44.873 74.8633 45.1163C74.62 45.3596 74.29 45.4963 73.946 45.4963Z" fill="#D4A5A6"/>
<path d="M70.0541 93.4054H25.946C24.5698 93.4054 23.2499 92.8587 22.2767 91.8855C21.3036 90.9124 20.7568 89.5925 20.7568 88.2162V7.78379C20.7568 6.40754 21.3036 5.08764 22.2767 4.11448C23.2499 3.14132 24.5698 2.5946 25.946 2.5946H70.0541C71.4304 2.5946 72.7503 3.14132 73.7234 4.11448C74.6966 5.08764 75.2433 6.40754 75.2433 7.78379V67C75.2433 67.3441 75.1066 67.674 74.8634 67.9173C74.6201 68.1606 74.2901 68.2973 73.946 68.2973C73.602 68.2973 73.272 68.1606 73.0287 67.9173C72.7854 67.674 72.6487 67.3441 72.6487 67V7.78379C72.6487 7.09566 72.3754 6.43572 71.8888 5.94914C71.4022 5.46256 70.7423 5.1892 70.0541 5.1892H25.946C25.2579 5.1892 24.598 5.46256 24.1114 5.94914C23.6248 6.43572 23.3514 7.09566 23.3514 7.78379V88.2162C23.3514 88.9044 23.6248 89.5643 24.1114 90.0509C24.598 90.5375 25.2579 90.8108 25.946 90.8108H70.0541C70.7423 90.8108 71.4022 90.5375 71.8888 90.0509C72.3754 89.5643 72.6487 88.9044 72.6487 88.2162V66.1233C72.6487 65.7792 72.7854 65.4492 73.0287 65.2059C73.272 64.9626 73.602 64.826 73.946 64.826C74.2901 64.826 74.6201 64.9626 74.8634 65.2059C75.1066 65.4492 75.2433 65.7792 75.2433 66.1233V88.2162C75.2433 89.5925 74.6966 90.9124 73.7234 91.8855C72.7503 92.8587 71.4304 93.4054 70.0541 93.4054Z" fill="#D4A5A6"/>
<path d="M73.946 58.3394C73.6019 58.3394 73.2719 58.2028 73.0287 57.9595C72.7854 57.7162 72.6487 57.3862 72.6487 57.0421V53.28C72.6487 52.9359 72.7854 52.6059 73.0287 52.3626C73.2719 52.1193 73.6019 51.9827 73.946 51.9827C74.29 51.9827 74.62 52.1193 74.8633 52.3626C75.1066 52.6059 75.2433 52.9359 75.2433 53.28V57.0421C75.2433 57.3862 75.1066 57.7162 74.8633 57.9595C74.62 58.2028 74.29 58.3394 73.946 58.3394Z" fill="#D4A5A6"/>
<path d="M73.946 17.734H22.0541C21.7101 17.734 21.3801 17.5973 21.1368 17.354C20.8935 17.1107 20.7568 16.7808 20.7568 16.4367C20.7568 16.0926 20.8935 15.7627 21.1368 15.5194C21.3801 15.2761 21.7101 15.1394 22.0541 15.1394H73.946C74.2901 15.1394 74.6201 15.2761 74.8634 15.5194C75.1066 15.7627 75.2433 16.0926 75.2433 16.4367C75.2433 16.7808 75.1066 17.1107 74.8634 17.354C74.6201 17.5973 74.2901 17.734 73.946 17.734Z" fill="#D4A5A6"/>
<path d="M73.946 78.0403H22.0541C21.7101 78.0403 21.3801 77.9036 21.1368 77.6603C20.8935 77.417 20.7568 77.087 20.7568 76.743C20.7568 76.3989 20.8935 76.0689 21.1368 75.8257C21.3801 75.5824 21.7101 75.4457 22.0541 75.4457H73.946C74.2901 75.4457 74.6201 75.5824 74.8634 75.8257C75.1066 76.0689 75.2433 76.3989 75.2433 76.743C75.2433 77.087 75.1066 77.417 74.8634 77.6603C74.6201 77.9036 74.2901 78.0403 73.946 78.0403Z" fill="#D4A5A6"/>
<path d="M48 88.5003C47.1728 88.5003 46.3643 88.255 45.6765 87.7953C44.9888 87.3356 44.4529 86.6823 44.1366 85.918C43.8203 85.1537 43.7378 84.3127 43.8996 83.5015C44.0613 82.6903 44.4601 81.9453 45.0453 81.3607C45.6306 80.7762 46.3761 80.3784 47.1875 80.2177C47.9989 80.0569 48.8398 80.1404 49.6037 80.4577C50.3676 80.775 51.0203 81.3117 51.4791 82C51.9379 82.6882 52.1822 83.4971 52.1812 84.3243C52.1785 85.4319 51.7369 86.4933 50.9532 87.276C50.1695 88.0587 49.1076 88.499 48 88.5003ZM48 82.7325C47.6865 82.7325 47.3799 82.8255 47.1191 82.9996C46.8583 83.1737 46.6549 83.4212 46.5347 83.7108C46.4145 84.0004 46.3828 84.3191 46.4436 84.6268C46.5044 84.9344 46.6549 85.2171 46.8763 85.4392C47.0977 85.6613 47.3799 85.8128 47.6873 85.8746C47.9948 85.9364 48.3136 85.9057 48.6036 85.7865C48.8936 85.6672 49.1418 85.4646 49.3167 85.2044C49.4917 84.9441 49.5856 84.6379 49.5866 84.3243C49.587 84.1156 49.5462 83.9089 49.4666 83.716C49.3871 83.523 49.2703 83.3477 49.123 83.1998C48.9757 83.052 48.8007 82.9347 48.608 82.8545C48.4153 82.7743 48.2087 82.7329 48 82.7325Z" fill="#D4A5A6"/>
<path d="M50.2743 11.6757H39.9725C39.6284 11.6757 39.2984 11.539 39.0551 11.2957C38.8118 11.0524 38.6752 10.7224 38.6752 10.3784C38.6752 10.0343 38.8118 9.70432 39.0551 9.46102C39.2984 9.21773 39.6284 9.08105 39.9725 9.08105H50.2743C50.6184 9.08105 50.9484 9.21773 51.1916 9.46102C51.4349 9.70432 51.5716 10.0343 51.5716 10.3784C51.5716 10.7224 51.4349 11.0524 51.1916 11.2957C50.9484 11.539 50.6184 11.6757 50.2743 11.6757Z" fill="#D4A5A6"/>
<path d="M56.0277 11.6757H55.0054C54.6614 11.6757 54.3314 11.539 54.0881 11.2957C53.8448 11.0524 53.7081 10.7224 53.7081 10.3784C53.7081 10.0343 53.8448 9.70432 54.0881 9.46102C54.3314 9.21773 54.6614 9.08105 55.0054 9.08105H56.0303C56.3743 9.08105 56.7043 9.21773 56.9476 9.46102C57.1909 9.70432 57.3276 10.0343 57.3276 10.3784C57.3276 10.7224 57.1909 11.0524 56.9476 11.2957C56.7043 11.539 56.3743 11.6757 56.0303 11.6757H56.0277Z" fill="#D4A5A6"/>
<path d="M61.8488 52.093C61.5047 52.093 61.1748 51.9564 60.9315 51.7131C60.6882 51.4698 60.5515 51.1398 60.5515 50.7957V42.6098C60.5515 42.2657 60.6882 41.9358 60.9315 41.6925C61.1748 41.4492 61.5047 41.3125 61.8488 41.3125C62.1929 41.3125 62.5229 41.4492 62.7661 41.6925C63.0094 41.9358 63.1461 42.2657 63.1461 42.6098V50.7957C63.1461 51.1398 63.0094 51.4698 62.7661 51.7131C62.5229 51.9564 62.1929 52.093 61.8488 52.093Z" fill="#D4A5A6"/>
<path d="M65.3501 50.1158C65.1141 50.1161 64.8825 50.0514 64.6807 49.929L57.6753 45.6972C57.5295 45.6092 57.4024 45.4932 57.3014 45.356C57.2004 45.2189 57.1274 45.0631 57.0865 44.8977C57.0457 44.7323 57.0378 44.5605 57.0634 44.3921C57.089 44.2236 57.1475 44.0619 57.2355 43.916C57.3236 43.7702 57.4396 43.6432 57.5767 43.5421C57.7139 43.4411 57.8696 43.3681 58.035 43.3273C58.2004 43.2864 58.3723 43.2786 58.5407 43.3041C58.7091 43.3297 58.8709 43.3882 59.0167 43.4763L66.0221 47.708C66.2648 47.8546 66.4528 48.0766 66.5573 48.3402C66.6619 48.6037 66.6772 48.8942 66.601 49.1673C66.5248 49.4403 66.3612 49.6809 66.1353 49.8522C65.9094 50.0235 65.6336 50.1161 65.3501 50.1158Z" fill="#D4A5A6"/>
<path d="M58.346 50.1158C58.0625 50.1161 57.7867 50.0235 57.5608 49.8522C57.3349 49.6809 57.1713 49.4403 57.0951 49.1673C57.0189 48.8942 57.0342 48.6037 57.1388 48.3402C57.2433 48.0766 57.4313 47.8546 57.674 47.708L64.6794 43.4763C64.8252 43.3882 64.987 43.3297 65.1554 43.3041C65.3239 43.2786 65.4957 43.2864 65.6611 43.3273C65.8265 43.3681 65.9822 43.4411 66.1194 43.5421C66.2566 43.6432 66.3725 43.7702 66.4606 43.916C66.5487 44.0619 66.6072 44.2236 66.6327 44.3921C66.6583 44.5605 66.6504 44.7323 66.6096 44.8977C66.5688 45.0631 66.4957 45.2189 66.3947 45.356C66.2937 45.4932 66.1666 45.6091 66.0208 45.6972L59.0154 49.929C58.8137 50.0516 58.5821 50.1163 58.346 50.1158Z" fill="#D4A5A6"/>
<path d="M48.0001 52.093C47.656 52.093 47.326 51.9564 47.0827 51.7131C46.8394 51.4698 46.7028 51.1398 46.7028 50.7957V42.6098C46.7028 42.2657 46.8394 41.9358 47.0827 41.6925C47.326 41.4492 47.656 41.3125 48.0001 41.3125C48.3441 41.3125 48.6741 41.4492 48.9174 41.6925C49.1607 41.9358 49.2974 42.2657 49.2974 42.6098V50.7957C49.2974 51.1398 49.1607 51.4698 48.9174 51.7131C48.6741 51.9564 48.3441 52.093 48.0001 52.093Z" fill="#D4A5A6"/>
<path d="M51.5028 50.1158C51.2668 50.1161 51.0352 50.0514 50.8334 49.929L43.828 45.6972C43.6822 45.6092 43.5551 45.4932 43.4541 45.356C43.3531 45.2189 43.2801 45.0631 43.2392 44.8977C43.1984 44.7323 43.1905 44.5605 43.2161 44.3921C43.2417 44.2236 43.3002 44.0619 43.3882 43.916C43.4763 43.7702 43.5923 43.6432 43.7294 43.5421C43.8666 43.4411 44.0224 43.3681 44.1878 43.3273C44.3532 43.2864 44.525 43.2786 44.6934 43.3041C44.8618 43.3297 45.0236 43.3882 45.1694 43.4763L52.1748 47.708C52.4175 47.8546 52.6055 48.0766 52.71 48.3402C52.8146 48.6037 52.8299 48.8942 52.7537 49.1673C52.6775 49.4403 52.5139 49.6809 52.288 49.8522C52.0621 50.0235 51.7863 50.1161 51.5028 50.1158Z" fill="#D4A5A6"/>
<path d="M44.4974 50.1158C44.2139 50.1161 43.9381 50.0235 43.7122 49.8522C43.4863 49.6809 43.3227 49.4403 43.2465 49.1673C43.1703 48.8942 43.1856 48.6037 43.2901 48.3402C43.3947 48.0766 43.5827 47.8546 43.8254 47.708L50.8308 43.4763C50.9766 43.3882 51.1383 43.3297 51.3068 43.3041C51.4752 43.2786 51.647 43.2864 51.8124 43.3273C51.9778 43.3681 52.1336 43.4411 52.2708 43.5421C52.4079 43.6432 52.5239 43.7702 52.6119 43.916C52.7 44.0619 52.7585 44.2236 52.7841 44.3921C52.8097 44.5605 52.8018 44.7323 52.761 44.8977C52.7201 45.0631 52.6471 45.2189 52.5461 45.356C52.4451 45.4932 52.318 45.6092 52.1722 45.6972L45.1668 49.929C44.965 50.0514 44.7334 50.1161 44.4974 50.1158Z" fill="#D4A5A6"/>
<path d="M34.1514 52.093C33.8074 52.093 33.4774 51.9564 33.2341 51.7131C32.9908 51.4698 32.8541 51.1398 32.8541 50.7957V42.6098C32.8541 42.2657 32.9908 41.9358 33.2341 41.6925C33.4774 41.4492 33.8074 41.3125 34.1514 41.3125C34.4955 41.3125 34.8255 41.4492 35.0687 41.6925C35.312 41.9358 35.4487 42.2657 35.4487 42.6098V50.7957C35.4487 51.1398 35.312 51.4698 35.0687 51.7131C34.8255 51.9564 34.4955 52.093 34.1514 52.093Z" fill="#D4A5A6"/>
<path d="M37.6541 50.1158C37.418 50.1163 37.1864 50.0516 36.9847 49.929L29.9793 45.6972C29.8334 45.6091 29.7064 45.4932 29.6054 45.356C29.5043 45.2189 29.4313 45.0631 29.3905 44.8977C29.3496 44.7323 29.3418 44.5605 29.3674 44.3921C29.3929 44.2236 29.4514 44.0619 29.5395 43.916C29.6276 43.7702 29.7435 43.6432 29.8807 43.5421C30.0179 43.4411 30.1736 43.3681 30.339 43.3273C30.5044 43.2864 30.6762 43.2786 30.8447 43.3041C31.0131 43.3297 31.1748 43.3882 31.3207 43.4763L38.3261 47.708C38.5688 47.8546 38.7567 48.0766 38.8613 48.3402C38.9658 48.6037 38.9812 48.8942 38.905 49.1673C38.8287 49.4403 38.6652 49.6809 38.4393 49.8522C38.2134 50.0235 37.9376 50.1161 37.6541 50.1158Z" fill="#D4A5A6"/>
<path d="M30.6501 50.1158C30.3666 50.1161 30.0908 50.0235 29.8649 49.8522C29.639 49.6809 29.4754 49.4403 29.3992 49.1673C29.323 48.8942 29.3383 48.6037 29.4429 48.3402C29.5474 48.0766 29.7354 47.8546 29.9781 47.708L36.9835 43.4763C37.1293 43.3882 37.2911 43.3297 37.4595 43.3041C37.6279 43.2786 37.7998 43.2864 37.9652 43.3273C38.1306 43.3681 38.2863 43.4411 38.4235 43.5421C38.5607 43.6432 38.6766 43.7702 38.7647 43.916C38.8527 44.0619 38.9112 44.2236 38.9368 44.3921C38.9624 44.5605 38.9545 44.7323 38.9137 44.8977C38.8728 45.0631 38.7998 45.2189 38.6988 45.356C38.5978 45.4932 38.4707 45.6092 38.3249 45.6972L31.3195 49.929C31.1177 50.0514 30.8861 50.1161 30.6501 50.1158Z" fill="#D4A5A6"/>
</svg>
