<svg width="25" height="40" viewBox="0 0 25 40" fill="none" xmlns="http://www.w3.org/2000/svg">
<path d="M12.4938 40C12.3485 39.7808 12.2138 39.584 12.0846 39.3817C8.91293 34.4971 5.92973 29.4945 3.39886 24.2108C2.26805 21.85 1.23955 19.4442 0.555672 16.8923C-0.618221 12.508 0.0441136 8.46089 2.76884 4.87473C4.90662 2.05863 7.73904 0.451045 11.1692 0.0744421C17.6417 -0.639418 23.4843 3.85172 24.7659 10.5013C25.229 12.9127 24.9813 15.2622 24.2328 17.5781C23.2797 20.5234 22.0088 23.317 20.6196 26.0544C18.2179 30.7873 15.5147 35.3402 12.65 39.7808C12.6123 39.8482 12.5585 39.9101 12.4938 40ZM12.4938 19.877C16.134 19.8826 19.1441 16.7967 19.1549 13.0532C19.1603 9.12416 16.2255 6.01016 12.5208 6.00454C8.84293 5.99892 5.84896 9.11292 5.85435 12.9408C5.85435 16.7686 8.82677 19.8714 12.4938 19.877Z" fill="#790013"/>
</svg>
