<svg width="22" height="25" viewBox="0 0 22 25" fill="none" xmlns="http://www.w3.org/2000/svg">
<path d="M11 24.4483C10.2529 24.4492 9.52515 24.2104 8.92381 23.7671C8.32248 23.3237 7.87924 22.6991 7.65926 21.9851L7.61538 21.8409H7.46496C2.65128 21.4962 0 20.5121 0 19.0705C0.0420645 18.3619 0.310051 17.6853 0.764672 17.14C1.49801 16.0494 2.50712 14.564 2.50712 10.3457V8.46539C2.51655 6.63666 3.11128 4.85899 4.2042 3.39274C5.29711 1.92649 6.8308 0.84871 8.58063 0.317243C9.36505 0.0836591 10.182 -0.0221573 11 0.00385288C11.8159 -0.0211584 12.6306 0.0846443 13.4131 0.317243C15.1649 0.848002 16.701 1.92504 17.7971 3.391C18.8932 4.85696 19.4918 6.63502 19.5054 8.46539V10.3457C19.5054 14.564 20.502 16.0494 21.2353 17.14C21.6899 17.6853 21.9579 18.3619 22 19.0705C22 20.5121 19.3487 21.4962 14.535 21.8409H14.3846L14.3407 21.9851C14.1208 22.6991 13.6775 23.3237 13.0762 23.7671C12.4748 24.2104 11.7471 24.4492 11 24.4483Z" fill="white" fill-opacity="0.9"/>
</svg>
