<svg width="40" height="38" viewBox="0 0 40 38" fill="none" xmlns="http://www.w3.org/2000/svg">
<path d="M10.7004 24.1757C11.074 23.9594 11.2018 23.4794 10.9864 23.1043C10.7706 22.7296 10.2927 22.601 9.91917 22.8173C9.54564 23.0339 9.41746 23.514 9.63322 23.8887C9.84868 24.2637 10.3269 24.3924 10.7004 24.1757Z" fill="#790013"/>
<path d="M7.49878 29.5892L11.4331 36.431C12.2821 37.9089 14.1919 38.4561 15.7022 37.5796C17.1967 36.7125 17.7103 34.7955 16.8457 33.294L14.502 29.2179L16.5317 28.0414C16.9052 27.8245 17.0334 27.345 16.8176 26.97L15.8017 25.2034C15.9229 25.1798 16.7194 25.0229 30.7657 22.2566C32.5022 22.162 33.5425 20.2554 32.6654 18.7311L30.069 14.2163L31.7282 11.6933C31.8912 11.4451 31.901 11.1262 31.753 10.8688L30.1905 8.15182C30.0425 7.89446 29.7614 7.74372 29.4669 7.76119L26.4612 7.94226L23.5788 2.92989C23.1613 2.20377 22.4134 1.76411 21.5784 1.75369C21.5683 1.75339 21.5586 1.75339 21.5485 1.75339C20.7416 1.75339 20.0092 2.15658 19.5752 2.83828L9.36951 15.8907L2.73467 19.7363C0.12511 21.2483 -0.778822 24.6093 0.733021 27.2362C2.11425 29.6382 5.02624 30.5831 7.49878 29.5892ZM15.4929 34.0786C15.9244 34.828 15.669 35.787 14.9204 36.2211C14.1693 36.6571 13.2129 36.3893 12.7863 35.6469L8.88001 28.8536L11.5863 27.2849C16.1072 35.1472 15.4202 33.9527 15.4929 34.0786ZM13.7207 27.8591L12.9395 26.5006L14.2926 25.7163L15.0739 27.0747L13.7207 27.8591ZM29.0787 9.35589L30.1584 11.2334L29.1956 12.6973L27.3346 9.46098L29.0787 9.35589ZM20.882 3.69829C21.0916 3.35391 21.4243 3.31837 21.5592 3.32205C21.6925 3.32358 22.0249 3.36525 22.2254 3.71391L31.3123 19.5154C31.6083 20.0299 31.2485 20.6766 30.6549 20.6913C30.5484 20.6938 30.4993 20.7131 30.2265 20.7642L20.6143 4.0497C20.8161 3.78928 20.842 3.76416 20.882 3.69829ZM19.5746 5.37939L28.6057 21.0835L14.9759 23.7674L10.8316 16.561L19.5746 5.37939ZM2.08617 26.4519C1.74315 25.856 1.56188 25.1795 1.56188 24.495C1.56188 23.0961 2.31078 21.7934 3.51592 21.0948L9.6051 17.5653L13.5114 24.3578L7.42218 27.8876C5.55664 28.9685 3.16314 28.3245 2.08617 26.4519Z" fill="#790013"/>
<path d="M8.28008 24.673C8.06432 24.298 7.58642 24.1693 7.21288 24.3859L5.85973 25.1703C5.4868 25.3866 5.00798 25.2576 4.79253 24.8832C4.57677 24.5082 4.09886 24.3795 3.72533 24.5961C3.35179 24.8127 3.22362 25.2925 3.43938 25.6675C4.08238 26.7858 5.51671 27.1801 6.64098 26.5287L7.99413 25.7444C8.36767 25.5278 8.49584 25.0483 8.28008 24.673Z" fill="#790013"/>
<path d="M38.8389 3.43114L34.4856 5.86318C34.1087 6.07397 33.9729 6.55161 34.1828 6.92999C34.3922 7.30806 34.8676 7.44501 35.2454 7.23392L39.5985 4.80188C39.9757 4.59109 40.1112 4.11344 39.9012 3.73507C39.6916 3.35638 39.2158 3.22035 38.8389 3.43114Z" fill="#790013"/>
<path d="M38.3823 11.5545L35.3638 10.7425C34.947 10.6304 34.5185 10.8786 34.4068 11.2971C34.2951 11.7156 34.5426 12.1455 34.9595 12.2576L37.9783 13.0695C38.3976 13.1826 38.8239 12.9304 38.935 12.515C39.0467 12.0964 38.7992 11.6663 38.3823 11.5545Z" fill="#790013"/>
<path d="M30.7969 0.581484L29.9873 3.61218C29.8756 4.0307 30.1227 4.46055 30.5396 4.57299C30.9562 4.68482 31.3847 4.43726 31.4967 4.01844L32.306 0.987742C32.4177 0.569229 32.1705 0.139073 31.7536 0.0269381C31.337 -0.0851966 30.9086 0.16297 30.7969 0.581484Z" fill="#790013"/>
</svg>
