<svg width="40" height="38" viewBox="0 0 40 38" fill="none" xmlns="http://www.w3.org/2000/svg">
<path d="M29.2996 24.1757C28.9261 23.9594 28.7982 23.4794 29.0136 23.1043C29.2294 22.7296 29.7073 22.601 30.0808 22.8173C30.4544 23.0339 30.5825 23.514 30.3668 23.8887C30.1513 24.2637 29.6731 24.3924 29.2996 24.1757Z" fill="#790013"/>
<path d="M32.5012 29.5892L28.5669 36.431C27.7179 37.9089 25.8081 38.4561 24.2978 37.5796C22.8033 36.7125 22.2897 34.7955 23.1543 33.294L25.498 29.2179L23.4683 28.0414C23.0948 27.8245 22.9666 27.345 23.1824 26.97L24.1983 25.2034C24.0771 25.1798 23.2806 25.0229 9.2343 22.2566C7.49785 22.162 6.4575 20.2554 7.33458 18.7311L9.93102 14.2163L8.27178 11.6933C8.10881 11.4451 8.09905 11.1262 8.24706 10.8688L9.80956 8.15182C9.95757 7.89446 10.2386 7.74372 10.5331 7.76119L13.5388 7.94226L16.4212 2.92989C16.8387 2.20377 17.5867 1.76411 18.4216 1.75369C18.4317 1.75339 18.4415 1.75339 18.4515 1.75339C19.2584 1.75339 19.9908 2.15658 20.4248 2.83828L30.6305 15.8907L37.2653 19.7363C39.8749 21.2483 40.7788 24.6093 39.267 27.2362C37.8858 29.6382 34.9738 30.5831 32.5012 29.5892ZM24.5071 34.0786C24.0756 34.828 24.3311 35.787 25.0797 36.2211C25.8307 36.6571 26.7871 36.3893 27.2137 35.6469L31.12 28.8536L28.4137 27.2849C23.8928 35.1472 24.5798 33.9527 24.5071 34.0786ZM26.2793 27.8591L27.0605 26.5006L25.7074 25.7163L24.9261 27.0747L26.2793 27.8591ZM10.9213 9.35589L9.8416 11.2334L10.8044 12.6973L12.6654 9.46098L10.9213 9.35589ZM19.118 3.69829C18.9084 3.35391 18.5757 3.31837 18.4409 3.32205C18.3075 3.32358 17.9752 3.36525 17.7747 3.71391L8.68773 19.5154C8.39171 20.0299 8.75151 20.6766 9.34508 20.6913C9.45159 20.6938 9.50072 20.7131 9.77355 20.7642L19.3857 4.0497C19.184 3.78928 19.158 3.76416 19.118 3.69829ZM20.4254 5.37939L11.3943 21.0835L25.0241 23.7674L29.1684 16.561L20.4254 5.37939ZM37.9138 26.4519C38.2568 25.856 38.4381 25.1795 38.4381 24.495C38.4381 23.0961 37.6892 21.7934 36.4841 21.0948L30.3949 17.5653L26.4886 24.3578L32.5778 27.8876C34.4434 28.9685 36.8369 28.3245 37.9138 26.4519Z" fill="#790013"/>
<path d="M31.7199 24.673C31.9357 24.298 32.4136 24.1693 32.7871 24.3859L34.1403 25.1703C34.5132 25.3866 34.992 25.2576 35.2075 24.8832C35.4232 24.5082 35.9011 24.3795 36.2747 24.5961C36.6482 24.8127 36.7764 25.2925 36.5606 25.6675C35.9176 26.7858 34.4833 27.1801 33.359 26.5287L32.0059 25.7444C31.6323 25.5278 31.5041 25.0483 31.7199 24.673Z" fill="#790013"/>
<path d="M1.16115 3.43114L5.5145 5.86318C5.8914 6.07397 6.0272 6.55161 5.81724 6.92999C5.60789 7.30806 5.13242 7.44501 4.75461 7.23392L0.401567 4.80188C0.0243688 4.59109 -0.11113 4.11344 0.0988317 3.73507C0.308488 3.35638 0.784259 3.22035 1.16115 3.43114Z" fill="#790013"/>
<path d="M1.61765 11.5545L4.63615 10.7425C5.05302 10.6304 5.48149 10.8786 5.59318 11.2971C5.70488 11.7156 5.45738 12.1455 5.04051 12.2576L2.02171 13.0695C1.60239 13.1826 1.17606 12.9304 1.06498 12.515C0.953285 12.0964 1.20078 11.6663 1.61765 11.5545Z" fill="#790013"/>
<path d="M9.20313 0.581484L10.0128 3.61218C10.1245 4.0307 9.87726 4.46055 9.46039 4.57299C9.04382 4.68482 8.61536 4.43726 8.50336 4.01844L7.69403 0.987742C7.58234 0.569229 7.82953 0.139073 8.2464 0.0269381C8.66297 -0.0851966 9.09143 0.16297 9.20313 0.581484Z" fill="#790013"/>
</svg>
