<svg width="96" height="96" viewBox="0 0 96 96" fill="none" xmlns="http://www.w3.org/2000/svg">
<path d="M31.514 6H68.0561C70.2652 6 72.0561 7.79086 72.0561 10V16.5629M31.514 6H30.8459C29.7672 6 28.7343 6.43564 27.9814 7.20808L12 23.6048M31.514 6V19.6048C31.514 21.8139 29.7232 23.6048 27.514 23.6048H12M12 23.6048V76.4431C12 78.6523 13.7909 80.4431 16 80.4431H22.0935M22.0935 38.3593H35.3832M22.0935 48.9222H62.1308M22.0935 59.1497H62.1308M53.0467 24.7784C51.1402 25.002 46.9907 24.4431 46.9907 20.2515C46.9907 16.0848 50.6916 14.3832 53.0467 14.3832C55.4019 14.3832 58.4299 15.8587 58.4299 19.7485C58.4299 23.6383 55.7383 24.7784 53.0467 24.7784ZM53.0467 24.7784C48.6851 24.7784 44.7256 26.9074 43.8178 34.4121C43.5549 36.5859 45.3867 38.3593 47.5763 38.3593H58.1308C60.34 38.3593 62.1821 36.5603 61.8996 34.3693C61.3184 29.8611 59.3572 24.7784 53.0467 24.7784ZM72.0561 16.5629V76.4431C72.0561 78.6523 70.2652 80.4431 68.0561 80.4431H22.0935M72.0561 16.5629H80C82.2091 16.5629 84 18.3537 84 20.5629V86C84 88.2091 82.2091 90 80 90H26.0935C23.8843 90 22.0935 88.2091 22.0935 86V80.4431" stroke="#D4A5A6" stroke-width="2.5"/>
</svg>
