<svg width="19" height="13" viewBox="0 0 19 13" fill="none" xmlns="http://www.w3.org/2000/svg">
<path d="M17.5042 0.493836C17.2599 0.334774 16.9737 0.25 16.6812 0.25C16.3887 0.25 16.1026 0.334774 15.8582 0.493836L6.3418 10.2373L3.05993 6.66732C2.81562 6.50826 2.5295 6.42348 2.23697 6.42348C1.94443 6.42348 1.65832 6.50826 1.414 6.66732C1.25273 6.90688 1.16669 7.18822 1.16669 7.47599C1.16669 7.76375 1.25273 8.04509 1.414 8.28465L5.68343 12.5055C5.92575 12.6649 6.21033 12.75 6.50141 12.75C6.79248 12.75 7.07706 12.6649 7.31938 12.5055L17.8334 2.08158C17.8334 1.79559 17.8334 0.819275 17.5042 0.493836Z" fill="#790013" stroke="#790013" stroke-width="0.5" stroke-miterlimit="10"/>
</svg>
