<svg width="80" height="80" viewBox="0 0 80 80" fill="none" xmlns="http://www.w3.org/2000/svg">
<path d="M21.25 42.5V45.1775C19.0988 45.7362 17.5 47.6762 17.5 50C17.5 52.7575 19.7425 55 22.5 55C23.8787 55 25 56.1213 25 57.5C25 58.8787 23.8787 60 22.5 60C21.1212 60 20 58.8787 20 57.5H17.5C17.5 59.8237 19.0988 61.7638 21.25 62.3225V65H23.75V62.3225C25.9012 61.7638 27.5 59.8237 27.5 57.5C27.5 54.7425 25.2575 52.5 22.5 52.5C21.1212 52.5 20 51.3787 20 50C20 48.6213 21.1212 47.5 22.5 47.5C23.8787 47.5 25 48.6213 25 50H27.5C27.5 47.6762 25.9012 45.7362 23.75 45.1775V42.5H21.25Z" fill="#790013"/>
<path d="M25.25 30.5L22.5 28.4375L19.7512 30.5C14.8062 34.2075 8.67875 36.25 2.5 36.25H1.25V51.885C1.25 64.5975 9.86375 75.63 22.1975 78.7125L22.5 78.7887L22.8025 78.7112C35.1362 75.63 43.75 64.5975 43.75 51.885V36.25H42.5C36.3213 36.25 30.1938 34.2075 25.25 30.5ZM41.25 51.885C41.25 63.3437 33.5563 73.3025 22.5 76.21C11.4437 73.3025 3.75 63.3437 3.75 51.885V38.7237C10.0387 38.4675 16.21 36.28 21.2512 32.5L22.5 31.5625L23.75 32.5C28.79 36.28 34.9613 38.4675 41.25 38.7237V51.885Z" fill="#790013"/>
<path d="M77.38 10.6125L72.0437 5.27625C69.4487 2.68125 65.995 1.25 62.3212 1.25H34.02C31.9825 1.25 29.9812 1.80375 28.2312 2.8525L26.25 4.0425V1.25H1.25V23.75H26.25V21.25H30.88C33.465 22.8875 36.44 23.75 39.5062 23.75H41.25V28.75C41.25 31.5075 43.4925 33.75 46.25 33.75C49.0075 33.75 51.25 31.5075 51.25 28.75V23.055C52.7375 22.1875 53.75 20.5925 53.75 18.75C53.75 18.1763 53.6325 17.6338 53.4538 17.12C54.2812 16.5575 55.2388 16.25 56.25 16.25C59.0075 16.25 61.25 18.4925 61.25 21.25V68.75H58.9412L57.2738 78.75H75.225L73.5575 68.75H71.25V21.25C71.25 19.9675 71.07 18.7125 70.7575 17.4987C71.615 18.2887 72.7513 18.75 73.9187 18.75H74.075C76.6525 18.75 78.75 16.6525 78.75 14.075V13.9188C78.75 12.6875 78.2513 11.4837 77.38 10.6125ZM23.75 21.25H3.75V3.75H23.75V21.25ZM48.75 28.75C48.75 30.1287 47.6287 31.25 46.25 31.25C44.8713 31.25 43.75 30.1287 43.75 28.75V23.75H48.75V28.75ZM71.4413 71.25L72.2738 76.25H60.225L61.0575 71.25H61.25H71.25H71.4413ZM63.75 68.75V21.25C63.75 17.1138 60.3862 13.75 56.25 13.75C54.7412 13.75 53.3125 14.2087 52.0762 15.0437C51.19 14.2487 50.0325 13.75 48.75 13.75H45.5175L46.9188 12.3487C47.6275 11.64 48.5688 11.25 49.5713 11.25H62.9287C63.4012 11.25 63.8575 11.3438 64.285 11.51L64.2038 11.6075C67.0938 13.9925 68.75 17.5075 68.75 21.25V68.75H63.75ZM76.25 14.075C76.25 15.275 75.275 16.25 74.075 16.25H73.9187C73.3462 16.25 72.7862 16.0175 72.3812 15.6125L67.35 10.5813C66.1688 9.40125 64.5987 8.75 62.9287 8.75H49.5713C47.9013 8.75 46.3312 9.40125 45.1512 10.5813L41.9825 13.75H40V16.25H48.75C50.1287 16.25 51.25 17.3713 51.25 18.75C51.25 20.1287 50.1287 21.25 48.75 21.25H39.5062C36.8062 21.25 34.19 20.4575 31.9425 18.96L31.6287 18.75H26.25V6.9575L29.5163 4.99625C30.8775 4.18125 32.435 3.75 34.02 3.75H62.3225C65.3275 3.75 68.1525 4.92125 70.2775 7.045L75.6138 12.3812C76.0188 12.7863 76.2513 13.3463 76.2513 13.9188V14.075H76.25Z" fill="#790013"/>
</svg>
