<svg width="251" height="188" viewBox="0 0 251 188" fill="none" xmlns="http://www.w3.org/2000/svg">
<g opacity="0.57">
<path opacity="0.57" d="M223.276 144.435H46.3898C40.7916 144.435 36.2128 147.217 36.2128 150.618C36.2128 152.964 38.4019 155.025 41.6105 156.064H26.0358C20.4376 156.064 15.8587 158.845 15.8587 162.246C15.8587 165.648 20.4376 168.429 26.0358 168.429H31.4669C29.9462 169.502 29.027 170.909 29.027 172.434V174.914C29.027 178.315 33.6059 181.097 39.2041 181.097C39.2041 181.097 213.333 181.097 213.45 181.097C216.074 181.097 218.982 180.51 221.154 178.902C223.611 177.075 224.563 173.59 223.243 170.775C223.109 170.507 222.959 170.239 222.792 169.988C220.87 167.307 217.043 166.368 213.952 166.285C213.784 166.285 213.634 166.285 213.467 166.285L210.81 166.419C211.712 166.419 213.183 165.983 214.169 165.112C216.859 162.732 215.573 156.734 211.528 156.734L223.276 156.818C228.875 156.818 233.453 154.036 233.453 150.635C233.453 147.217 228.875 144.435 223.276 144.435Z" fill="#F7D7D6"/>
</g>
<path d="M197.859 59.8179L184.824 66.0175L172.892 50.0157L168.564 52.0264L178.641 72.7199L184.824 75.1494L201.535 71.3794L204.059 61.8788L197.859 59.8179Z" fill="#663333"/>
<path d="M122.609 34.249L58.639 59.3157C58.3215 59.4497 58.1042 59.7681 58.1042 60.1199V73.2565C58.1042 73.7256 58.4719 74.111 58.9231 74.111H186.846C187.297 74.111 187.665 73.7256 187.665 73.2565V60.1199C187.665 59.7681 187.448 59.4329 187.13 59.3157L123.194 34.249C122.993 34.1652 122.793 34.1652 122.609 34.249Z" fill="#86504E"/>
<path d="M82.3353 76.1711H63.1009V80.0584H82.3353V76.1711Z" fill="#CEBCBD"/>
<path d="M80.33 138.805H65.2065L66.2927 80.0422H79.2438L80.33 138.805Z" fill="#86504E"/>
<path d="M115.691 76.1711H96.4562V80.0584H115.691V76.1711Z" fill="#CEBCBD"/>
<path d="M113.685 138.805H98.5618L99.648 80.0422H112.599L113.685 138.805Z" fill="#86504E"/>
<path d="M149.163 76.1711H129.928V80.0584H149.163V76.1711Z" fill="#CEBCBD"/>
<path d="M147.158 138.805H132.017L133.12 80.0422H146.055L147.158 138.805Z" fill="#86504E"/>
<path d="M182.518 76.1711H163.284V80.0584H182.518V76.1711Z" fill="#CEBCBD"/>
<path d="M180.513 138.805H165.372L166.475 80.0422H179.41L180.513 138.805Z" fill="#86504E"/>
<path d="M122.843 37.851L85.0758 52.6128H160.76L122.843 37.851Z" fill="#CEBCBD"/>
<path d="M192.662 61.4432L123.244 34.3155C123.043 34.2318 122.826 34.2318 122.626 34.3155L52.857 61.6275C52.2888 61.8453 51.6705 61.4097 51.6705 60.7729V58.6952C51.6705 58.3098 51.9045 57.9747 52.2387 57.8407L122.626 30.2942C122.826 30.2104 123.043 30.2104 123.244 30.2942L193.28 57.6396C193.631 57.7737 193.848 58.1088 193.848 58.4942V60.5719C193.848 61.2254 193.23 61.661 192.662 61.4432Z" fill="#9A6A69"/>
<path d="M187.13 149.109H57.72V151.17H187.13V149.109Z" fill="#86504E"/>
<path d="M192.261 154.957H52.7568V157.018H192.261V154.957Z" fill="#86504E"/>
<path d="M82.3353 138.888H63.1009V142.726H82.3353V138.888Z" fill="#CEBCBD"/>
<path d="M82.3353 142.726H63.1009V145.306H82.3353V142.726Z" fill="#86504E"/>
<path d="M115.69 142.726H96.456V145.306H115.69V142.726Z" fill="#86504E"/>
<path d="M115.69 138.888H96.456V142.726H115.69V138.888Z" fill="#CEBCBD"/>
<path d="M149.163 142.726H129.928V145.306H149.163V142.726Z" fill="#86504E"/>
<path d="M149.163 138.888H129.928V142.726H149.163V138.888Z" fill="#CEBCBD"/>
<path d="M182.518 138.888H163.284V142.726H182.518V138.888Z" fill="#CEBCBD"/>
<path d="M182.518 142.726H163.284V145.306H182.518V142.726Z" fill="#86504E"/>
<path d="M187.147 145.306H57.8203V149.193H187.147V145.306Z" fill="#9A6A69"/>
<path d="M192.227 151.17H52.7401V155.057H192.227V151.17Z" fill="#9A6A69"/>
<path d="M197.575 157.102H47.2254V160.989H197.575V157.102Z" fill="#9A6A69"/>
<path d="M184.824 74.1107H60.6945V76.1716H184.824V74.1107Z" fill="#9A6A69"/>
<path d="M95.6282 116.654C95.9625 115.816 96.1129 114.911 96.1296 114.057C96.163 112.599 95.7452 111.141 94.9431 109.935C94.5921 109.415 93.9237 109.181 93.3555 109.516C92.8375 109.818 92.5868 110.588 92.9378 111.108C93.7399 112.314 94.0073 113.789 93.6563 115.179C93.3555 115.062 93.038 114.978 92.7205 114.928C91.5507 114.727 89.8295 114.559 89.1778 115.799C88.4425 117.19 89.512 118.547 90.8155 118.966C91.8515 119.301 93.0547 119.318 93.9906 118.782C94.2078 120.189 93.9237 120.977 92.637 121.58C91.8515 121.949 89.8629 122.468 89.0942 121.798C88.5929 121.362 88.3924 119.837 88.1417 119.201C87.4398 117.408 86.5374 115.699 85.4679 114.09C83.2955 110.84 80.4546 108.075 77.2294 105.88C69.9601 100.903 61.0364 98.7419 52.3299 98.5241C51.8453 98.5074 51.3607 98.5074 50.8927 98.5074C44.9269 98.5074 39.2451 99.5797 34.1148 101.59C32.6443 99.8813 30.8729 98.4571 28.8509 97.4853C24.3222 95.307 18.5736 95.5919 14.613 98.6749C18.6404 102.127 22.3168 107.421 22.9017 108.293C18.2728 112.247 14.6298 117.324 12.357 123.356C12.3069 123.49 12.2735 123.608 12.2234 123.725L6.04027 125.719C6.04027 125.719 5.60578 138.57 7.5944 142.123C7.5944 142.123 12.8417 143.396 15.9666 143.731C18.9913 148.49 23.5033 152.545 29.0347 155.511C29.4023 155.712 29.77 155.896 30.1376 156.08V166.285C30.1376 166.285 38.3427 168.949 42.32 167.608L44.6929 160.42C46.715 160.671 48.8039 160.805 50.9262 160.805C53.4328 160.805 55.8894 160.655 58.2623 160.336L60.6687 167.592C64.6459 168.915 72.8511 166.268 72.8511 166.268V156.064C83.2621 150.919 90.0969 141.804 90.0969 129.656C90.0969 128.618 90.0467 127.612 89.9465 126.624C91.7178 126.305 93.389 125.585 94.6423 124.211C95.5948 123.155 96.1296 121.915 96.2967 120.491C96.3969 119.218 96.3969 117.743 95.6282 116.654Z" fill="#E07E85"/>
<path d="M39.0948 102.813L40.4484 106.483C40.4484 106.483 51.9121 103.249 64.0611 106.483L66.6513 103.886C66.668 103.886 55.2376 95.91 39.0948 102.813Z" fill="#A0424A"/>
<g opacity="0.19">
<path opacity="0.19" d="M89.395 130.896C85.2673 139.458 77.3964 145.474 68.8738 149.21C62.557 151.975 55.5885 153.885 48.6033 154.287C38.4764 154.857 28.8843 151.807 19.8102 147.752C19.4091 147.568 19.0248 147.384 18.6237 147.199C21.3977 150.383 24.8903 153.131 28.9344 155.293C35.1843 158.644 42.721 160.621 50.8259 160.621C72.3998 160.621 89.8963 148.976 89.9966 129.623C89.8128 130.042 89.6122 130.477 89.395 130.896Z" fill="black"/>
</g>
<g opacity="0.03">
<path opacity="0.03" d="M12.1398 123.977C12.1398 123.977 8.94796 136.912 15.9666 143.715L12.8082 143.212C12.8082 143.212 8.07899 132.07 12.1398 123.977Z" fill="black"/>
</g>
<path d="M59.1683 76.5996C61.396 68.5856 56.7227 60.2782 48.7301 58.0444C40.7375 55.8107 32.4523 60.4965 30.2245 68.5105C27.9967 76.5245 32.6701 84.8319 40.6626 87.0657C48.6552 89.2994 56.9405 84.6136 59.1683 76.5996Z" fill="#E89F40"/>
<g opacity="0.1">
<path opacity="0.1" d="M37.1561 57.9585C29.1181 62.1307 25.9764 72.0334 30.1374 80.0929C34.2985 88.1525 44.1747 91.3025 52.2128 87.1304C60.2508 82.9582 63.3925 73.0555 59.2314 64.996C55.0871 56.9532 45.1941 53.8031 37.1561 57.9585ZM50.9594 84.684C44.275 88.1525 36.0532 85.5386 32.594 78.8362C29.1348 72.1339 31.7417 63.8901 38.4261 60.4216C45.1106 56.9532 53.3324 59.5671 56.7916 66.2694C60.2508 72.9717 57.6439 81.2156 50.9594 84.684Z" fill="#272525"/>
</g>
<path d="M36.3874 56.4672C27.5305 61.0583 24.0714 71.9831 28.6502 80.8804C33.229 89.761 44.1246 93.2294 52.9982 88.6383C61.855 84.0472 65.3142 73.1225 60.7354 64.2251C56.1399 55.3446 45.2443 51.8761 36.3874 56.4672ZM51.5945 85.9406C44.2249 89.7609 35.1508 86.879 31.3407 79.4897C27.5305 72.1004 30.4048 63.002 37.7744 59.1816C45.144 55.3613 54.2181 58.2433 58.0282 65.6326C61.855 73.0219 58.964 82.1036 51.5945 85.9406Z" fill="#F2D042"/>
<path d="M42.4034 78.8364C42.1862 78.8029 42.0358 78.5851 41.8854 78.384C41.501 77.8814 41.6347 77.2949 42.1527 76.943C42.9215 76.4236 44.0745 76.6247 44.9936 76.5912C45.7456 76.5744 46.4976 76.3733 47.2329 75.988C48.0183 75.5858 48.5531 75.0664 48.8372 74.4464C49.1212 73.8265 49.1045 73.1897 48.787 72.5698C48.4695 71.9331 48.035 71.5812 47.517 71.5142C46.9989 71.4471 46.2804 71.6482 45.3445 72.1174L44.7262 72.4357C43.2055 73.2065 41.8854 73.4913 40.7657 73.2568C39.6461 73.0222 38.7771 72.3017 38.1588 71.0953C37.5572 69.9056 37.4737 68.7997 37.9249 67.7441C38.3761 66.6885 39.2952 65.8004 40.6989 65.0967C41.2671 64.8118 41.9021 64.594 42.6039 64.4935C44.0411 64.2589 46.5979 64.2254 46.7984 65.6664C47.0157 67.3252 43.8238 66.4036 42.888 66.4539C42.3366 66.4874 41.7684 66.655 41.1668 66.9733C40.4649 67.3252 39.997 67.8111 39.7631 68.3976C39.5291 68.984 39.5458 69.5705 39.8466 70.1402C40.1307 70.7099 40.5652 70.9947 41.1167 71.0115C41.6848 71.0282 42.6875 70.6764 44.1581 69.9726C45.7289 69.2186 47.0324 68.9673 48.0517 69.2186C49.0711 69.4532 49.9067 70.2072 50.5417 71.4639C51.16 72.6703 51.2603 73.8432 50.8258 74.9659C50.408 76.0885 49.5223 76.9933 48.1854 77.6803C47.7676 77.8981 47.2663 78.0992 46.6981 78.2667C45.6621 78.5851 43.9408 79.0375 42.4034 78.8364Z" fill="#F2D042"/>
<path d="M49.3886 81.0987L49.3719 81.1154C48.904 81.35 48.3191 81.1154 48.035 80.5792L39.6126 64.0245C39.3453 63.4883 39.4957 62.8684 39.9636 62.6338L39.9803 62.617C40.4482 62.3824 41.0331 62.617 41.3172 63.1532L49.7395 79.7079C49.9902 80.2274 49.8398 80.8473 49.3886 81.0987Z" fill="#F2D042"/>
<path d="M190.272 102.194L190.573 130.226L196.656 159.633L201.536 159.046L200.884 130.427L205.312 99.1945L190.272 102.194Z" fill="#7A1A2B"/>
<path d="M201.636 96.9826L207.484 127.78L215.756 159.666L220.335 158.945L218.664 127.009L220.252 97.1837L201.636 96.9826Z" fill="#7A1A2B"/>
<path d="M201.134 59.9521C202.254 59.751 203.374 59.55 204.493 59.3489C204.427 58.4441 204.293 57.5393 204.092 56.6512C204.109 56.7518 205.797 55.5621 205.914 55.3275C206.281 54.6405 206.198 53.5849 206.298 52.8309C206.499 51.2056 206.632 49.3792 205.613 48.089C204.56 46.7486 202.622 46.514 200.934 46.6983C198.812 46.9329 196.539 47.8712 195.703 49.8316C194.935 51.6077 196.506 53.853 197.09 55.5453C197.375 56.3831 197.776 57.3215 198.611 57.5728C199.062 57.7068 199.564 57.6231 199.981 57.8409C200.733 58.1928 200.717 59.2316 201.134 59.9521Z" fill="#FFB27D"/>
<path d="M191.977 47.1174C191.693 45.9612 191.409 44.8051 191.125 43.6489C191.024 43.2133 190.907 42.7776 190.991 42.342C191.125 41.6215 191.776 41.1021 192.445 40.8172C193.113 40.5324 193.848 40.4318 194.55 40.1805C195.286 39.9124 195.971 39.4768 196.756 39.4097C198.243 39.2757 199.547 40.4989 201.034 40.5324C203.09 40.5826 204.811 39.4097 206.348 41.6215C206.632 42.0236 206.766 42.5263 207.017 42.9452C207.351 43.4981 207.869 43.8835 208.304 44.3527C210.209 46.4137 210.158 49.9491 208.487 52.1441C207.685 53.2165 207.418 54.1046 206.164 54.5905C206.599 53.3003 205.179 48.6254 203.491 48.3071C203.04 48.2233 201.836 48.927 201.368 49.0611C200.332 49.3627 199.346 49.6643 198.411 50.2005C197.024 51.0047 195.486 51.6582 193.932 51.9933C193.731 52.0436 193.498 52.0771 193.33 51.9598C193.163 51.8593 193.113 51.6415 193.063 51.4571C192.679 49.9994 192.328 48.5584 191.977 47.1174Z" fill="#575759"/>
<path d="M224.379 101.121C224.814 103.97 225.248 107.824 224.296 108.092C224.112 108.142 223.928 108.058 223.761 107.991C221.94 107.187 220.553 105.88 218.748 105.109C216.859 104.288 214.787 104.003 212.782 103.886C209.774 103.685 206.733 103.718 203.741 104.054C201.385 104.322 199.062 104.858 196.756 105.394C194.834 105.83 193.113 106.735 191.124 106.835C189.069 106.952 186.98 106.517 185.092 105.562C185.025 105.528 184.941 105.478 184.908 105.411C184.874 105.327 184.891 105.226 184.891 105.143C185.142 103.819 185.259 102.512 185.877 101.356C186.562 100.066 186.947 98.4907 187.381 97.0664C188.267 94.1006 189.069 91.0008 189.554 87.901C190.339 83.6785 191.342 79.5231 192.094 75.2839C192.612 72.3516 193.046 69.3691 193.898 66.5374C194.567 64.3256 195.854 61.0415 197.775 59.835C198.427 59.4329 199.179 59.2989 199.931 59.1816C202.187 58.7962 204.426 58.4276 206.682 58.0422C207.501 57.9081 208.354 57.7741 209.156 58.0422C210.359 58.4611 211.178 59.701 211.896 60.8571C215.138 66.0682 217.528 71.8489 219.249 77.8978C220.152 81.0646 221.004 84.2315 221.773 87.4318C222.625 91.0008 223.377 94.6033 223.912 98.2226C223.962 98.6415 224.179 99.7641 224.379 101.121Z" fill="#BB7577"/>
<path d="M204.995 71.0281C205.078 72.3183 205.429 73.5749 205.797 74.8316C207.953 82.4388 210.743 96.2958 212.899 103.903C206.833 104.674 199.413 105.646 193.347 106.416C193.18 103.484 193.698 94.084 193.531 91.135C193.414 89.2584 193.314 87.365 193.464 85.4883C193.698 82.4555 194.6 79.5065 195.486 76.591C197.124 71.1956 198.778 65.8003 200.416 60.4217C200.499 60.1368 200.6 59.8352 200.8 59.6006C201.051 59.3325 201.402 59.1985 201.753 59.0812C203.441 58.545 205.362 58.0256 207.15 58.0423C207.802 59.5671 206.566 62.5496 206.164 64.1079C205.596 66.3867 204.844 68.6655 204.995 71.0281Z" fill="#F7D7D6"/>
<path d="M197.241 159.498L194.199 161.492L194.734 163.335L201.602 162.146L201.285 159.096L197.241 159.498Z" fill="#3A3029"/>
<path d="M216.742 159.465L214.369 162.33L215.556 163.989L221.137 161.141L220.185 158.879L216.742 159.465Z" fill="#3A3029"/>
<path d="M170.119 55.6285H82.3855V72.3843H170.119V55.6285Z" fill="#CEBCBD"/>
<path d="M175.098 50.5348L172.959 46.9156L168.615 46.5804L166.275 49.9316L168.615 51.2721L172.959 49.9316L175.098 50.5348Z" fill="#FFB27D"/>
<path d="M209.724 59.6506C209.339 59.483 208.754 59.3155 208.053 59.3155C206.348 59.3155 205.195 60.3544 204.878 60.656C200.867 65.5151 196.856 70.3743 192.846 75.2335L173.294 65.3476L170.62 69.369L188.835 83.9465L196.188 84.4492L212.063 67.5258C212.281 66.9059 212.698 65.3643 212.23 63.5044C211.679 61.2927 210.208 60.036 209.724 59.6506Z" fill="#BB7577"/>
<path d="M169.494 56.5197L81.8755 52.0773L81.0316 68.8113L168.651 73.2537L169.494 56.5197Z" fill="#FFFDF8"/>
<path d="M172.609 65.9174L170.102 63.8062L166.225 63.9402L165.59 66.2525L167.879 67.8275L171.589 68.1962L172.609 65.9174Z" fill="#FFB27D"/>
</svg>
