<svg width="18" height="18" viewBox="0 0 18 18" fill="none" xmlns="http://www.w3.org/2000/svg">
<path d="M13.5 6.74997C13.5 3.0224 10.4777 0 6.75001 0C3.02242 0 0 3.0224 0 6.74997C0 10.4775 3.02242 13.4998 6.75001 13.4998C10.4777 13.4998 13.5 10.4775 13.5 6.74997ZM6.75001 11.8123C3.95838 11.8123 1.68755 9.54163 1.68755 6.75001C1.68755 3.95839 3.95838 1.68758 6.75001 1.68758C9.54158 1.68758 11.8126 3.95839 11.8126 6.75001C11.8126 9.54163 9.54158 11.8123 6.75001 11.8123Z" fill="#790013"/>
<path d="M17.5056 15.1196L13.3762 10.9898C12.7609 11.9467 11.9466 12.7606 10.9897 13.3759L15.1195 17.5057C15.7788 18.1648 16.8477 18.1648 17.5056 17.5057C18.1649 16.8476 18.1649 15.7787 17.5056 15.1196Z" fill="#790013"/>
</svg>
