<svg width="20" height="20" viewBox="0 0 20 20" fill="none" xmlns="http://www.w3.org/2000/svg">
<g clip-path="url(#clip0)">
<path d="M19.4242 12.1225C20.8725 5.61416 15.1708 -0.298332 8.47499 0.836667C4.83999 -1.41916 -7.62939e-06 1.13 -7.62939e-06 5.45499C-7.62939e-06 6.46082 0.277492 7.40249 0.759992 8.21416C-0.585841 14.7375 5.16249 20.565 11.8525 19.3525C16.5817 21.8533 21.8075 16.8658 19.4242 12.1225ZM13.0592 16.0475C11.3025 16.77 8.41166 16.7741 6.66249 15.8583C4.16833 14.5283 3.72499 11.5342 5.87666 11.5342C7.49833 11.5342 6.98499 13.425 8.62249 14.1958C9.37416 14.5433 10.99 14.5791 11.9292 13.9458C12.8567 13.325 12.7717 12.3483 12.2675 11.8816C10.9317 10.6483 7.10916 11.1383 5.36166 8.97915C4.60249 8.04249 4.45916 6.38999 5.39249 5.19166C7.01916 3.09833 11.7925 2.97083 13.845 4.55166C15.74 6.01833 15.2283 7.96499 13.6992 7.96499C11.86 7.96499 12.8267 5.55833 9.85749 5.55833C7.70499 5.55833 6.85833 7.08916 8.37416 7.83416C10.4292 8.85499 15.6658 8.51415 15.6658 12.5033C15.6617 14.1633 14.6442 15.4008 13.0592 16.0475Z" fill="#00AFF0"/>
</g>
<defs>
<clipPath id="clip0">
<rect width="20" height="20" fill="white"/>
</clipPath>
</defs>
</svg>
