<svg width="42" height="42" viewBox="0 0 42 42" fill="none" xmlns="http://www.w3.org/2000/svg">
<path d="M21 0C9.42047 0 0 9.59816 0 21.3961C0 24.0222 0.462 26.5877 1.37287 29.0209C1.49116 29.3368 1.78648 29.5311 2.09975 29.5311C2.19187 29.5311 2.28564 29.5143 2.37677 29.4788C2.77799 29.3229 2.97929 28.8649 2.82622 28.456C1.98311 26.2038 1.55548 23.8286 1.55548 21.3961C1.55556 10.4721 10.2782 1.5849 21 1.5849C31.7218 1.5849 40.4444 10.4721 40.4444 21.3961C40.4444 21.8337 40.7927 22.1885 41.2222 22.1885C41.6517 22.1885 42 21.8337 42 21.3961C42 9.59816 32.5795 0 21 0Z" fill="#7A1A2B"/>
<path d="M21.0128 3.96204C16.3445 3.96204 11.5084 6.26337 8.08449 10.118C5.05196 13.532 3.52396 17.6714 3.89729 21.4748L3.98367 22.3648C4.59127 28.5296 4.59054 28.5296 3.44973 30.8295C3.37032 30.9897 3.2855 31.1603 3.19551 31.3433C3.00356 31.7349 3.15909 32.2108 3.54316 32.4066C3.6548 32.4635 3.77334 32.4903 3.89032 32.4903C4.17554 32.4903 4.45026 32.3298 4.5866 32.0521C4.67527 31.8713 4.75886 31.7027 4.83745 31.5443C6.18317 28.8317 6.17103 28.7075 5.53012 22.2065L5.44259 21.317C5.11299 17.9584 6.49415 14.264 9.23236 11.1815C12.366 7.6532 16.7768 5.54685 21.0128 5.54685C29.5904 5.54685 36.5794 12.6566 36.5794 21.3959V25.3581C36.5794 25.7957 36.9276 26.1505 37.3572 26.1505C37.7868 26.1505 38.135 25.7957 38.135 25.3581V21.3959C38.1349 11.7828 30.4479 3.96204 21.0128 3.96204Z" fill="#7A1A2B"/>
<path d="M25.8691 8.86664C24.3199 8.24114 22.6819 7.92404 21.001 7.92404C17.456 7.92404 14.1364 9.30735 11.6534 11.8191C9.15484 14.347 7.77877 17.748 7.77877 21.3957C7.77877 23.4193 7.96178 25.1842 8.12338 26.7412C8.54035 30.7622 8.77012 32.9773 5.79173 35.0004C5.4344 35.2432 5.33768 35.7352 5.57607 36.0993C5.72586 36.3284 5.97252 36.4522 6.22395 36.4522C6.3721 36.4522 6.52205 36.4092 6.65461 36.3191C10.4159 33.7644 10.0868 30.5915 9.67025 26.5749C9.51283 25.0565 9.33433 23.3358 9.33433 21.3957C9.33433 14.7303 14.459 9.50894 21.001 9.50894C22.4849 9.50894 23.93 9.78851 25.2961 10.34C25.695 10.501 26.1473 10.3021 26.3057 9.89524C26.4638 9.48847 26.2684 9.02778 25.8691 8.86664Z" fill="#7A1A2B"/>
<path d="M34.2249 21.3658C34.2153 17.0408 32.1483 12.9567 28.6914 10.4352C28.3422 10.1807 27.8564 10.2623 27.6063 10.6184C27.3564 10.9742 27.4367 11.4694 27.7861 11.7241C30.8438 13.9544 32.6694 17.5702 32.6694 21.3964C32.6694 21.4167 32.6701 21.437 32.6717 21.4572C32.6793 21.5589 33.4214 31.7058 31.9148 37.8458C31.8108 38.2703 32.064 38.7005 32.4809 38.8067C32.5441 38.8228 32.6075 38.8306 32.67 38.8306C33.0184 38.8306 33.3356 38.5903 33.424 38.2301C34.9654 31.9484 34.2793 22.1048 34.2249 21.3658Z" fill="#7A1A2B"/>
<path d="M29.7714 18.134C28.4323 14.3969 24.9079 11.8861 21.0015 11.8861C15.8551 11.8861 11.6681 16.1518 11.6681 21.3955C11.6681 21.4283 11.6702 21.4613 11.6742 21.4938C11.6818 21.556 12.4303 27.7902 11.6759 33.1702C11.6151 33.6034 11.9106 34.0048 12.336 34.0667C12.3732 34.0722 12.4102 34.0749 12.4469 34.0749C12.8276 34.0749 13.1605 33.7895 13.2159 33.3943C13.9713 28.007 13.3018 22.0079 13.2239 21.3483C13.2488 17.0004 16.7283 13.471 21.0015 13.471C24.2571 13.471 27.1942 15.5634 28.31 18.6776C28.4574 19.0887 28.9044 19.2997 29.3075 19.1502C29.711 19.0002 29.9186 18.5451 29.7714 18.134Z" fill="#7A1A2B"/>
<path d="M21.0141 15.8501C18.012 15.8501 15.5644 18.3385 15.5644 21.3972C15.5644 21.4281 15.5632 21.4591 15.5668 21.4896C15.582 21.6214 17.0403 34.7224 13.3717 39.9553C13.122 40.3115 13.2023 40.8064 13.552 41.0608C13.689 41.1606 13.8466 41.2084 14.0031 41.2084C14.2456 41.2084 14.4847 41.0931 14.6364 40.8766C18.5732 35.2612 17.2312 22.3972 17.1147 21.3536C17.1376 19.1887 18.8842 17.4349 21.0143 17.4349C23.1587 17.4349 24.914 19.2123 24.914 21.3971V26.9442C24.914 27.3818 25.2622 27.7367 25.6918 27.7367C26.1214 27.7367 26.4697 27.3819 26.4697 26.9442V21.3971C26.4696 18.3385 24.0162 15.8501 21.0141 15.8501Z" fill="#7A1A2B"/>
<path d="M37.4061 27.2785C36.9828 27.2404 36.6008 27.5628 36.5635 27.9988L36.089 33.5249C36.0514 33.961 36.368 34.3452 36.7959 34.3833C36.8189 34.3854 36.8418 34.3864 36.8647 34.3864C37.2634 34.3864 37.6031 34.0755 37.6385 33.663L38.113 28.137C38.1507 27.7009 37.8341 27.3167 37.4061 27.2785Z" fill="#7A1A2B"/>
<path d="M12.0969 35.7924C11.7397 35.5496 11.2566 35.648 11.0183 36.0122L9.46275 38.3895C9.22445 38.7537 9.32108 39.2456 9.67841 39.4884C9.81097 39.5785 9.96076 39.6215 10.1091 39.6215C10.3605 39.6215 10.6072 39.4976 10.757 39.2686L12.3125 36.8913C12.5509 36.5272 12.4543 36.0352 12.0969 35.7924Z" fill="#7A1A2B"/>
<path d="M30.3206 21.2297C30.2308 20.8018 29.817 20.5292 29.3972 20.6209C28.9772 20.7126 28.7096 21.1338 28.7996 21.5617C28.8224 21.67 31.0326 32.472 27.3088 40.0601C27.1168 40.4516 27.2725 40.9276 27.6567 41.1234C27.7683 41.1802 27.887 41.2071 28.004 41.2071C28.2892 41.2071 28.5639 41.0466 28.7003 40.7689C32.6656 32.6888 30.4182 21.6939 30.3206 21.2297Z" fill="#7A1A2B"/>
<path d="M21.7519 20.4125C21.6474 19.9877 21.2243 19.7302 20.8087 19.8358C20.3919 19.942 20.1386 20.3723 20.2426 20.7968C20.2576 20.8581 21.7174 26.9916 19.4815 33.8258C19.3457 34.241 19.566 34.6896 19.9734 34.8281C20.0549 34.8558 20.1379 34.869 20.2195 34.869C20.545 34.869 20.8486 34.659 20.9572 34.3269C23.335 27.0595 21.8176 20.6804 21.7519 20.4125Z" fill="#7A1A2B"/>
<path d="M19.7317 36.5092C19.3334 36.3466 18.8805 36.5439 18.7208 36.9506L17.1652 40.9128C17.0057 41.3191 17.1996 41.7804 17.5985 41.9428C17.6932 41.9815 17.7908 41.9998 17.8872 41.9998C18.1958 41.9998 18.4878 41.8113 18.6095 41.5014L20.1651 37.5392C20.3245 37.1329 20.1306 36.6717 19.7317 36.5092Z" fill="#7A1A2B"/>
<path d="M25.6668 30.0813C25.6664 30.0813 25.6662 30.0813 25.666 30.0813C25.2371 30.0813 24.889 30.4512 24.8882 30.8883C24.8882 30.9345 24.8544 35.5694 22.6177 40.8868C22.4486 41.2891 22.6314 41.7589 23.0264 41.9314C23.1263 41.9749 23.2302 41.9975 23.3323 41.9975C23.634 41.9975 23.9211 41.8185 24.0476 41.5179C26.4166 35.886 26.4438 31.0895 26.4438 30.8887C26.4438 30.4512 26.096 30.0813 25.6668 30.0813Z" fill="#7A1A2B"/>
</svg>
