<svg width="40" height="40" viewBox="0 0 40 40" fill="none" xmlns="http://www.w3.org/2000/svg">
<path d="M40 0H0V40H40V0Z" fill="#50ABF1"/>
<path d="M5.29936 29.651C7.96146 31.3394 11.1193 32.3164 14.5044 32.3164C24.0143 32.3164 31.7233 24.6065 31.7233 15.0975C31.7233 14.8601 31.7183 14.6244 31.7092 14.3895C32.0531 14.1188 34.1805 12.4136 34.702 11.3175C34.702 11.3175 32.9744 12.0354 31.2835 12.2046C31.2802 12.2046 31.2761 12.2054 31.2728 12.2054C31.2728 12.2054 31.2761 12.2037 31.2819 12.1996C31.4377 12.0955 33.6158 10.6128 33.9107 8.8461C33.9107 8.8461 32.6888 9.49833 30.9778 10.0689C30.6946 10.163 30.3981 10.2555 30.0924 10.3413C28.9896 9.16427 27.422 8.42963 25.6819 8.42963C22.3442 8.42963 19.6397 11.1334 19.6397 14.4685C19.6397 14.9392 19.6938 15.3972 19.7962 15.8371C19.3298 15.8179 12.2271 15.4197 7.39516 9.56819C7.39516 9.56819 4.50731 13.5106 9.11608 17.5646C9.11608 17.5646 7.71508 17.5088 6.50639 16.7866C6.50639 16.7866 6.06244 21.5627 11.2817 22.7839C11.2817 22.7839 10.2547 23.1729 8.61632 22.8955C8.61632 22.8955 9.53256 26.7546 14.1697 27.1153C14.1697 27.1153 10.5029 30.4278 5.29769 29.6506L5.29936 29.651Z" fill="white"/>
</svg>
