<svg width="20" height="20" viewBox="0 0 20 20" fill="none" xmlns="http://www.w3.org/2000/svg">
<g clip-path="url(#clip0)">
<path d="M19.2958 11.5775C19.8925 6.555 19.0092 3.38416 17.4158 1.94999L17.4167 1.94916C14.845 -0.50001 6.16001 -0.862511 3.08334 2.05916C1.70167 3.48833 1.21501 5.58583 1.16167 8.1825C1.10834 10.78 1.04501 15.6458 5.57917 16.9658H5.58334L5.57917 18.9817C5.57917 18.9817 5.54834 19.7983 6.07 19.9625C6.66667 20.1558 6.93667 19.7767 8.7925 17.56C11.8958 17.8292 14.2792 17.2125 14.55 17.1225C15.1767 16.9125 18.7225 16.4433 19.2958 11.5775ZM9.09834 16.1417C9.09834 16.1417 7.13417 18.5908 6.52334 19.2267C6.32334 19.4333 6.10417 19.4142 6.1075 19.0042C6.1075 18.735 6.1225 15.6575 6.1225 15.6575C2.27834 14.5558 2.50501 10.4125 2.54667 8.245C2.58834 6.07666 2.98501 4.30083 4.15501 3.10499C6.85417 0.574157 14.4683 1.13999 16.4083 2.96333C18.78 5.06583 17.9358 11.0058 17.9408 11.2083C17.4533 15.27 14.58 15.5275 14.0517 15.7033C13.8258 15.7783 11.73 16.3175 9.09834 16.1417Z" fill="#8E24AA"/>
<path d="M10.185 3.58081C9.86417 3.58081 9.86417 4.08081 10.185 4.08498C12.6742 4.10414 14.7242 5.83914 14.7467 9.02164C14.7467 9.35748 15.2383 9.35331 15.2342 9.01748H15.2333C15.2067 5.58831 12.9683 3.59998 10.185 3.58081Z" fill="#8E24AA"/>
<path d="M13.4592 8.49414C13.4517 8.8258 13.9425 8.84164 13.9467 8.5058C13.9875 6.61497 12.8217 5.05747 10.6308 4.8933C10.31 4.86997 10.2767 5.37414 10.5967 5.39747C12.4967 5.54164 13.4975 6.8383 13.4592 8.49414Z" fill="#8E24AA"/>
<path d="M12.9342 10.645C12.5225 10.4066 12.1033 10.555 11.93 10.7891L11.5675 11.2583C11.3833 11.4966 11.0392 11.465 11.0392 11.465C8.5275 10.8008 7.85584 8.17247 7.85584 8.17247C7.85584 8.17247 7.825 7.81664 8.055 7.62581L8.50834 7.25081C8.735 7.07081 8.87834 6.63747 8.6475 6.21164C8.03084 5.09747 7.61667 4.71331 7.40583 4.41831C7.18417 4.14081 6.85083 4.07831 6.50417 4.26581H6.49667C5.77583 4.68747 4.98666 5.47664 5.23916 6.28914C5.67 7.14581 6.46167 9.87664 8.985 11.94C10.1708 12.9158 12.0475 13.9158 12.8442 14.1466L12.8517 14.1583C13.6367 14.42 14.4 13.6 14.8075 12.8575V12.8516C14.9883 12.4925 14.9283 12.1525 14.6642 11.93C14.1958 11.4733 13.4892 10.9691 12.9342 10.645Z" fill="#8E24AA"/>
<path d="M10.9742 6.75333C11.775 6.8 12.1633 7.21833 12.205 8.0775C12.22 8.41333 12.7075 8.39 12.6925 8.05417C12.6392 6.9325 12.0542 6.30749 11.0008 6.24916C10.68 6.22999 10.65 6.73416 10.9742 6.75333Z" fill="#8E24AA"/>
</g>
<defs>
<clipPath id="clip0">
<rect width="20" height="20" fill="white"/>
</clipPath>
</defs>
</svg>
