<svg width="122" height="122" viewBox="0 0 122 122" fill="none" xmlns="http://www.w3.org/2000/svg">
<g clip-path="url(#clip0)">
<path d="M88.9583 122C70.7396 122 55.9166 107.177 55.9166 88.9582C55.9166 70.7395 70.7396 55.9165 88.9583 55.9165C107.177 55.9165 122 70.7395 122 88.9582C122 107.177 107.177 122 88.9583 122ZM89 59.0005C73.5823 59.0005 59 73.5878 59 89.0005C59 104.413 73.5823 119 89 119C104.418 119 119 104.413 119 89.0005C119 73.5878 104.418 59.0005 89 59.0005Z" fill="#D4A5A6"/>
<path d="M83.8751 101.746L83.748 101.666L71.9089 90.7575C72.8592 89.8961 73.7302 89.0213 74.5 87.9998L83.748 96.9041L101 77.9998C101 77.9998 102.484 79.6461 103.578 80.4638L83.9564 101.666C83.9564 101.666 83.9005 101.746 83.8751 101.746Z" fill="#D4A5A6"/>
<path d="M48.2917 107H-7.62939e-06C-7.62939e-06 107 -7.62939e-06 101.052 -7.62939e-06 94.0417V27.9583V17L22.875 17.0003C24.278 17.0003 24 17.097 24 18.5C24 19.903 24.403 20.0004 23 20.0004H2.99999V27.9583V94.0417C2.99999 98.2456 2.99999 104 2.99999 104H48.2917V104.367C48.2917 105.77 48.2917 107 48.2917 107Z" fill="#D4A5A6"/>
<path d="M86 43C84.597 43 84 43 84 43V27.9588C84 28 84 20.0005 84 20.0005H63C63 20.0005 63 20.0005 63 19.0005C63 17.5975 63 17.0005 63 17.0005L75.7083 17C82.7132 17 87 17.0009 87 17.0009V43C87 43 87 43 86 43Z" fill="#D4A5A6"/>
<path d="M66.0834 29H21C21.0416 29 21 22.875 21 22.875V12.7083V10H31C32.1844 4.205 36.8593 0 43 0C49.1407 0 54.8156 4.205 56 10H66V12.5L66.0834 22.875C66.0834 27.0789 66.0834 29 66.0834 29ZM24 13V22.875V26H63V22.875V13H53C53 6 47.2039 3 43 3C38.7961 3 34 8.79608 34 13H24Z" fill="#D4A5A6"/>
<path d="M69 48H18C18 48 18 47.328 18 46.5C18 45.672 18 45 18 45H69C69 45 69 45.672 69 46.5C69 47.328 69 48 69 48Z" fill="#D4A5A6"/>
<path d="M53 63H18C18 63 18 62.328 18 61.5C18 60.672 18 60 18 60H53C53 60 53 60.672 53 61.5C53 62.328 53 63 53 63Z" fill="#D4A5A6"/>
<path d="M43 78H18C18 78 18 77.328 18 76.5C18 75.672 18 75 18 75H43C43 75 43 75.672 43 76.5C43 77.328 43 78 43 78Z" fill="#D4A5A6"/>
</g>
<defs>
<clipPath id="clip0">
<rect width="122" height="122" fill="white"/>
</clipPath>
</defs>
</svg>
