<svg width="20" height="20" viewBox="0 0 20 20" fill="none" xmlns="http://www.w3.org/2000/svg">
<path d="M0 20L1.3793 15C0.482773 13.4483 0 11.7241 0 9.93102C0 4.48277 4.48277 0 9.96551 0C15.4482 0 20 4.48277 20 9.93102C20 15.3793 15.4483 20 9.96551 20C8.24137 20 6.58621 19.4483 5.10344 18.6207L0 20Z" fill="#EDEDED"/>
<path d="M5.3793 16.8276L5.68965 17C6.96551 17.7931 8.44829 18.2759 10 18.2759C14.5172 18.2759 18.2759 14.5172 18.2759 9.93103C18.2759 5.34482 14.5172 1.72415 9.96551 1.72415C5.41379 1.72415 1.72414 5.37931 1.72414 9.93103C1.72414 11.5172 2.17243 13.069 3 14.3793L3.20692 14.6897L2.41383 17.5862L5.3793 16.8276Z" fill="#55CD6C"/>
<path d="M7.31036 5.31034L6.65521 5.27585C6.44829 5.27585 6.24142 5.34483 6.10349 5.48276C5.79314 5.75862 5.27591 6.27585 5.13798 6.96553C4.89661 8.00002 5.27591 9.24139 6.17247 10.4828C7.06904 11.7241 8.79318 13.7241 11.8276 14.5862C12.7931 14.862 13.5518 14.6896 14.1725 14.3103C14.6552 14 14.9656 13.5172 15.069 13L15.1725 12.5172C15.207 12.3793 15.138 12.2069 15.0001 12.1379L12.8276 11.1379C12.6897 11.0689 12.5173 11.1034 12.4138 11.2413L11.5518 12.3448C11.4828 12.4138 11.3793 12.4482 11.2759 12.4138C10.6897 12.2069 8.72419 11.3793 7.65521 9.31033C7.62072 9.2069 7.62072 9.10342 7.6897 9.03448L8.51728 8.10346C8.58626 8.00002 8.62071 7.86209 8.58626 7.75862L7.58626 5.51725C7.55173 5.41378 7.44829 5.31034 7.31036 5.31034Z" fill="#FEFEFE"/>
</svg>
