<svg width="40" height="40" viewBox="0 0 40 40" fill="none" xmlns="http://www.w3.org/2000/svg">
<path d="M40 0H0V40H40V0Z" fill="#FF0000"/>
<path d="M23.1066 25.6058C23.1057 25.4565 23.0618 25.3012 23.0065 25.1616C22.9328 24.9782 22.7748 24.8869 22.5764 24.8676C22.3439 24.8448 22.1578 24.9387 21.9893 25.0879C21.9217 25.1467 21.891 25.2345 21.891 25.2345L21.8945 29.9715V30.0882C21.8945 30.0882 21.9348 30.1426 21.941 30.1497C22.0779 30.298 22.2376 30.4156 22.4422 30.4577C22.7792 30.5271 23.0171 30.3867 23.0829 30.0742C23.0996 29.9961 23.1092 29.9153 23.1092 29.8354C23.111 28.425 23.1136 27.0154 23.1066 25.6058ZM23.1066 25.6058C23.1057 25.4565 23.0618 25.3012 23.0065 25.1616C22.9328 24.9782 22.7748 24.8869 22.5764 24.8676C22.3439 24.8448 22.1578 24.9387 21.9893 25.0879C21.9217 25.1467 21.891 25.2345 21.891 25.2345L21.8945 29.9715V30.0882C21.8945 30.0882 21.9348 30.1426 21.941 30.1497C22.0779 30.298 22.2376 30.4156 22.4422 30.4577C22.7792 30.5271 23.0171 30.3867 23.0829 30.0742C23.0996 29.9961 23.1092 29.9153 23.1092 29.8354C23.111 28.425 23.1136 27.0154 23.1066 25.6058ZM28.4106 18.4621C22.8046 18.3418 17.1961 18.3418 11.5893 18.4621C9.64425 18.5033 8.08895 20.0937 8.08895 22.0396V30.7957C8.08895 32.7424 9.64425 34.3328 11.5893 34.3741C17.1961 34.4943 22.8046 34.4943 28.4106 34.3741C30.3565 34.3328 31.9118 32.7424 31.9118 30.7957V22.0396C31.9118 20.0938 30.3565 18.5033 28.4106 18.4621ZM13.2358 31.5936H11.6191V22.454H9.94531V20.925H14.9132V22.4505H13.2358V31.5936ZM19.0217 27.8V31.5944H17.5902V30.7272C17.5384 30.7825 17.5094 30.8123 17.4822 30.8431C17.1741 31.1906 16.8248 31.4803 16.3789 31.6339C16.1613 31.7085 15.9374 31.7339 15.7084 31.6944C15.3959 31.6427 15.1861 31.4627 15.0597 31.1783C14.9421 30.9159 14.9123 30.635 14.9114 30.3524C14.9079 29.3079 14.9096 23.7801 14.9096 23.7266H16.3377C16.3403 23.7749 16.3456 27.743 16.3465 29.6783C16.3465 29.7837 16.3473 29.8916 16.3684 29.9943C16.4211 30.2541 16.6203 30.3656 16.8704 30.2743C17.1583 30.169 17.3778 29.9706 17.5621 29.7328C17.5893 29.6985 17.5893 29.6371 17.5893 29.5879V23.7178L19.0217 23.7143C19.0217 23.7144 19.0217 26.4852 19.0217 27.8ZM24.4679 30.836C24.2766 31.4118 23.8553 31.705 23.2496 31.6988C22.7573 31.6944 22.3579 31.4987 22.0288 31.1415C21.9919 31.102 21.8901 30.994 21.8901 30.994V31.5926H20.4559V20.9241H21.8901C21.8901 22.0598 21.8901 24.4358 21.8901 24.4358C21.8901 24.4358 21.9708 24.2743 22.0446 24.1909C22.2666 23.9425 22.5369 23.7503 22.8705 23.666C23.4208 23.5282 24.0554 23.6985 24.3573 24.3419C24.5355 24.7219 24.5855 25.1274 24.5855 25.5399C24.5882 27.0312 24.5882 28.5224 24.5864 30.0136C24.5855 30.2927 24.5566 30.5684 24.4679 30.836ZM29.7649 30.5359C29.5165 31.2636 29.003 31.6673 28.25 31.7779C27.783 31.8464 27.3205 31.8367 26.8825 31.6384C26.283 31.368 25.9433 30.8791 25.7976 30.2568C25.7301 29.9672 25.6967 29.6635 25.6932 29.366C25.6818 28.1977 25.6871 27.0286 25.6897 25.8604C25.6906 25.2495 25.8363 24.686 26.2549 24.2182C26.7324 23.6837 27.3433 23.4844 28.0411 23.5292C28.2508 23.5424 28.465 23.5766 28.6642 23.6424C29.3427 23.8653 29.7052 24.3735 29.8474 25.0476C29.9018 25.3074 29.922 25.5769 29.9264 25.8428C29.9378 26.466 29.922 27.8396 29.922 27.8396H27.1756V29.8083C27.1756 30.162 27.4618 30.4482 27.8155 30.4482C28.1683 30.4482 28.4545 30.162 28.4545 29.8083V28.7963H29.9299C29.9299 28.7962 29.9518 29.9909 29.7649 30.5359ZM28.4545 25.5137C28.4545 25.1608 28.1683 24.8738 27.8155 24.8738C27.4618 24.8738 27.1756 25.1608 27.1756 25.5137V26.6187H28.4545V25.5137ZM23.0065 25.1617C22.9328 24.9783 22.7748 24.887 22.5764 24.8677C22.3439 24.8449 22.1578 24.9388 21.9893 25.088C21.9217 25.1468 21.891 25.2346 21.891 25.2346L21.8945 29.9716V30.0883C21.8945 30.0883 21.9348 30.1427 21.941 30.1498C22.0779 30.2981 22.2376 30.4157 22.4422 30.4578C22.7792 30.5272 23.0171 30.3867 23.0829 30.0743C23.0996 29.9962 23.1092 29.9154 23.1092 29.8355C23.111 28.4251 23.1136 27.0154 23.1066 25.6058C23.1057 25.4565 23.0618 25.3012 23.0065 25.1617Z" fill="white"/>
<path d="M26.6726 8.33737L26.6722 16.2582H25.2045L25.2062 15.4072C25.0439 15.5671 24.9054 15.7164 24.7532 15.8505C24.4834 16.0882 24.1778 16.2654 23.8203 16.3353C23.2715 16.4427 22.804 16.2692 22.629 15.7008C22.5707 15.5114 22.5355 15.3074 22.534 15.1097V8.33737H23.9907V14.3779C23.9907 14.4579 23.9971 14.5388 24.0111 14.6173C24.0554 14.8662 24.2393 14.9834 24.479 14.9003C24.7712 14.7992 24.9942 14.5969 25.1833 14.3585C25.2102 14.3244 25.2053 14.2609 25.2053 14.2109V8.33737H26.6726Z" fill="white"/>
<path d="M14.533 9.71378C14.2144 8.3708 13.5469 5.53571 13.5469 5.53571H11.8767C11.8767 5.53571 13.1599 9.79146 13.7337 11.6894C13.7544 11.7581 13.7639 11.8326 13.7639 11.9045L13.7632 16.2565H15.3034L15.3027 11.9045C15.3027 11.8326 15.3122 11.7581 15.3328 11.6894C15.9067 9.79146 17.1899 5.53571 17.1899 5.53571H15.5197C15.5197 5.53571 14.8521 8.3708 14.5336 9.71378H14.533Z" fill="white"/>
<path d="M19.2002 8.13907C18.0395 8.13907 17.0986 9.07997 17.0986 10.2407V14.3535C17.0986 15.5142 18.0395 16.4551 19.2002 16.4551C20.3609 16.4551 21.3018 15.5142 21.3018 14.3535V10.2407C21.3019 9.07997 20.3609 8.13907 19.2002 8.13907ZM19.8067 14.4366C19.8067 14.771 19.5346 15.043 19.2003 15.043C18.866 15.043 18.5939 14.771 18.5939 14.4366V10.1575C18.5939 9.82313 18.866 9.55113 19.2003 9.55113C19.5346 9.55113 19.8067 9.82322 19.8067 10.1575V14.4366Z" fill="white"/>
</svg>
